<?xml version="1.0" encoding="utf-8"?>
<!-- Generator: Adobe Illustrator 26.3.1, SVG Export Plug-In . SVG Version: 6.00 Build 0)  -->
<svg version="1.1" id="Layer_1" xmlns="http://www.w3.org/2000/svg" xmlns:xlink="http://www.w3.org/1999/xlink" x="0px" y="0px"
	 width="1387.8px" height="2500px" viewBox="0 0 1387.8 2500" enable-background="new 0 0 1387.8 2500" xml:space="preserve">
<g>
	<g>
		<path fill="#E9F0F7" d="M1387.7,1374.3l0.1-28.1c0-0.1,0-0.1,0-0.2c0-0.3,0-0.5,0-0.8c0-0.1,0-0.1,0-0.2c0,0,0,0,0-0.1
			c0,0,0-0.1,0-0.1c0-0.1,0-0.2-0.1-0.3c0-0.2-0.1-0.4-0.1-0.6c0-0.1,0-0.1,0-0.2c0,0,0-0.1,0-0.1c0-0.1,0-0.2-0.1-0.2
			c-0.1-0.2-0.1-0.3-0.2-0.5c-0.1-0.1-0.1-0.3-0.2-0.4c0,0,0,0,0,0c0,0,0,0,0,0c-0.1-0.1-0.1-0.3-0.2-0.4c-0.1-0.1-0.1-0.3-0.2-0.4
			c-0.1-0.1-0.1-0.2-0.2-0.3c0,0,0,0,0,0c0,0,0,0,0,0c-0.1-0.1-0.2-0.3-0.3-0.4c-0.1-0.1-0.2-0.3-0.3-0.4c0-0.1-0.1-0.1-0.1-0.2
			c0,0,0-0.1-0.1-0.1c0-0.1-0.1-0.1-0.1-0.2c-0.1-0.2-0.3-0.3-0.4-0.5c-0.1-0.1-0.1-0.1-0.2-0.2c-0.1-0.1-0.1-0.1-0.2-0.2
			c-0.1-0.1-0.1-0.1-0.2-0.2c-0.1-0.1-0.3-0.3-0.4-0.4c-0.1-0.1-0.2-0.2-0.3-0.2c-0.3-0.2-0.6-0.5-0.9-0.6l-70.9-41
			c-0.2-0.1-0.5-0.2-0.7-0.3c-0.1,0-0.1,0-0.2-0.1c-0.1,0-0.1,0-0.2-0.1c-0.1,0-0.1,0-0.2-0.1c-0.1,0-0.3-0.1-0.4-0.1
			c-0.1,0-0.1,0-0.2,0c0,0,0,0-0.1,0c0,0-0.1,0-0.1,0c-0.1,0-0.2,0-0.3,0c-0.1,0-0.2,0-0.3,0c0,0,0,0-0.1,0c0,0,0,0,0,0
			c-0.1,0-0.1,0-0.2,0c-0.1,0-0.2,0.1-0.3,0.1c-0.1,0-0.2,0.1-0.2,0.1c0,0,0,0,0,0l-2.1,1.2v-293.8l-87.7-151.9L955.6,700
			l-61.9,35.7l-74.8,43.2c-0.4,0-0.9,0-1.3,0c-12.8,0-102.4,10.2-109.6,95.2c-0.3,4-0.4,8.1-0.1,12.4c-8.1-3.2-12.3-14.7-12.3-14.7
			c-2.1,16.9,8.4,32.2,8.4,32.2c-5.5-2.3-10.5-9.6-10.5-9.6c2.7,19.1,13.9,30.3,25.3,37c6.4,25.5,15.7,57.8,18.1,64.3
			c1.7,4.7,3.5,8.3,5.1,12.2c0.5,1.2,0.6,2.5,0.5,3.8c-0.7,0.4-1.4,0.9-2.1,1.3c-10.2-1.3-27.6-3-27.6-3c-0.2,0-0.4,0-0.6,0
			c0,0,0,0,0,0s-7.3-2.7-18.7,5.3c-10.1,7.1-31.4,20.4-41.1,34.1c-3.5,4.9-12.8,14.6-12.8,14.6l-2.7,2.7c-3.5-0.5-6.8,0.3-9.7,3.2
			c-5,5-81.5,82.6-92.2,97.3c-9,12.4-21.5,29.7-14.9,47l-231.3,133.6l0,0c-0.6,0.3-1,1-1.3,1.8l0,0c0,0,0,0.1,0,0.1
			c0,0.1,0,0.2-0.1,0.3c0,0.2,0,0.4-0.1,0.6c0,0.1,0,0.2,0,0.3l0,15.4l0,12.7c0,2,0.9,4.3,2.3,6.1c0.6,0.8,1.4,1.5,2.1,2l-2.3,1.3
			c0,0,0,0,0,0c-1.4,0.8-2.2,2.5-2.2,4.9l0,6.1c0,8.2,5.7,18.2,12.9,22.3l18.4,10.6c4.6,2.7,9,7.3,12.2,12.9c3.2,5.6,5,11.7,5,17
			l-0.2,227l-41,23.7c-5,2.8-7.8,8.9-7.8,16.9l0,10.8c0,16.7,11.6,37,26.1,45.5l0,0v65.3c-47.4,32.6-90.2,62.3-104,71.2
			c-3.4,2.2-6.1,4.7-8.1,7.4c-4.3,1.8-9,4.2-14,7.3c-32.7,19.7-34.4,24.8-110.2,57.9c-92.8,40.5-80.3,82.9-68.2,98.9
			c15,19.9,49,34.7,86.7,24.8c38-10,70.1-49.4,86.8-65.4c16.6-16,51.1-38.5,58.7-45.1c5.6-4.8,11.2-12.8,14.8-22.2
			c11.2-4.9,32.2-13.8,57.4-24.5v75.7l54.6,31.5l31.5-18.2l141.9,81.9c2.9,80.9,5.7,155.6,6.1,161.2c0.1,1.8,2.4,3.7,6,5.4
			c-0.5,2.1-1,3.8-1.4,5.1c-1.7,5-11.1,37.4-28.5,59.2c-17.3,21.8-29.9,40.5-50,57.4c-23.6,19.9-33.3,38.2-33.2,51.5
			c0.1,8.9,4.5,15.6,12.1,19.2c32.5,15.2,65.8,9.5,90.1-14.7c22.6-22.5,29.4-40.8,42.4-50.3c13-9.5,54.8-27.3,61.8-37.7
			c7-10.4,12-22.1,2.3-40.8c-8.4-16.1-18.1-34.9-21-46.6c2.6-2,4.1-4.6,4.2-7.8c0.4-18,5.5-61.9,11.2-102.3l163.1,94.1v36.4
			l54.6,31.5l500.5-289v-238.9l18.5-10.7c4.8-2.8,7.7-8.6,7.7-17l0-10.8c0-0.9,0-1.9-0.1-2.8c0-0.3-0.1-0.6-0.1-0.9
			c0-0.5-0.1-0.9-0.1-1.4c0-0.2-0.1-0.3-0.1-0.5c-0.1-0.8-0.2-1.5-0.4-2.3c-0.1-0.3-0.1-0.6-0.2-0.9c0-0.1-0.1-0.2-0.1-0.3
			c-0.1-0.4-0.2-0.9-0.3-1.3c-0.1-0.5-0.2-0.9-0.3-1.4c0-0.2-0.1-0.3-0.2-0.5c-0.1-0.3-0.2-0.7-0.3-1c-0.1-0.4-0.2-0.8-0.4-1.1
			c-0.1-0.3-0.2-0.6-0.3-1c-0.1-0.3-0.2-0.6-0.3-0.9c-0.1-0.2-0.1-0.4-0.2-0.6c-0.3-0.7-0.6-1.4-0.9-2.2c0,0,0-0.1-0.1-0.1
			c0,0,0,0,0,0c-0.3-0.8-0.7-1.5-1-2.3c-0.1-0.2-0.2-0.4-0.3-0.6c-0.1-0.2-0.3-0.5-0.4-0.7c-0.1-0.3-0.3-0.6-0.4-0.9
			c-0.3-0.7-0.7-1.3-1.1-2c0-0.1-0.1-0.2-0.1-0.2c-0.4-0.7-0.9-1.5-1.3-2.2c-0.1-0.1-0.2-0.3-0.3-0.4c-0.2-0.3-0.3-0.5-0.5-0.8
			c-0.2-0.4-0.5-0.7-0.7-1.1c-0.2-0.3-0.4-0.5-0.6-0.8c-0.2-0.3-0.5-0.6-0.7-1c-0.1-0.2-0.3-0.4-0.4-0.6c-0.3-0.3-0.5-0.6-0.8-1
			c-0.3-0.4-0.6-0.8-1-1.2c-0.1-0.1-0.2-0.3-0.3-0.4c-0.2-0.2-0.4-0.4-0.6-0.6c-0.6-0.7-1.2-1.3-1.8-1.9c-0.2-0.2-0.3-0.4-0.5-0.5
			c-0.2-0.2-0.5-0.4-0.7-0.6c-0.3-0.3-0.6-0.6-0.9-0.9c-0.5-0.4-1-0.9-1.5-1.3c-0.3-0.3-0.6-0.5-0.9-0.8c-0.5-0.4-1.1-0.8-1.6-1.2
			c-0.3-0.2-0.5-0.4-0.8-0.6c-0.8-0.6-1.6-1.1-2.4-1.6l-22.4-12.9l0.2-299.8l45-26c2.3-1.3,3.8-4.2,3.8-8.3l0-6.1c0-0.5,0-1-0.1-1.5
			c0-0.1,0-0.2,0-0.3c0-0.1,0-0.2,0-0.3c0-0.2-0.1-0.4-0.1-0.5c-0.1-0.3-0.1-0.6-0.2-0.9c0-0.1-0.1-0.2-0.1-0.3c0-0.1,0-0.1,0-0.2
			c0-0.1-0.1-0.2-0.1-0.4c-0.1-0.2-0.2-0.5-0.3-0.7c-0.1-0.2-0.2-0.5-0.3-0.7c0,0,0,0,0,0c0,0,0,0,0,0c-0.1-0.2-0.2-0.4-0.3-0.6
			c-0.1-0.2-0.2-0.4-0.3-0.6c-0.1-0.2-0.2-0.4-0.3-0.5c0,0,0,0,0,0c0,0,0,0,0-0.1c-0.1-0.2-0.3-0.4-0.4-0.6
			c-0.1-0.2-0.3-0.4-0.4-0.7c-0.1-0.1-0.1-0.2-0.2-0.3c0,0-0.1-0.1-0.1-0.1c-0.1-0.1-0.1-0.2-0.2-0.3c-0.1-0.1-0.2-0.2-0.2-0.3
			l2.4-1.4C1387.2,1377,1387.7,1375.9,1387.7,1374.3z"/>
		<path fill="#E9F0F7" d="M665.5,269.7c0,0,0.1,0,0.1,0.1c0.8,0.3,1.6,0.7,2.4,1c0.1,0,0.1,0,0.2,0.1c1.6,0.6,3.3,1,5,1.3
			c0.1,0,0.3,0.1,0.4,0.1c0.8,0.1,1.6,0.2,2.5,0.3c0.2,0,0.3,0,0.5,0c0.9,0.1,1.7,0.1,2.6,0.1c0.2,0,0.5,0,0.7,0
			c0,7-0.1,14-0.3,22.3v0.1l-0.2,78.5c-10.8,18.4-16.4,37.9-16.3,57.9l-0.8,58.6c0.3,47.4,32.4,92,90.4,125.5c1.8,1,3.6,2.1,5.5,3.1
			c0.6,0.3,1.2,0.7,1.9,1c1.2,0.7,2.5,1.3,3.7,2c0.7,0.4,1.5,0.8,2.2,1.2c1.1,0.6,2.3,1.2,3.4,1.7c0.8,0.4,1.6,0.8,2.4,1.2
			c1.1,0.5,2.2,1.1,3.3,1.6c0.8,0.4,1.7,0.8,2.5,1.2c1.1,0.5,2.2,1,3.3,1.5c0.9,0.4,1.7,0.8,2.6,1.2c1.1,0.5,2.2,1,3.3,1.5
			c0.9,0.4,1.8,0.7,2.6,1.1c1.1,0.5,2.3,0.9,3.4,1.4c0.9,0.4,1.8,0.7,2.6,1.1c0.4,0.2,0.8,0.3,1.2,0.5c0.5,0.2,1,0.4,1.4,0.5
			c1.6,0.7,3.3,1.3,4.9,1.9c1.1,0.4,2.2,0.8,3.3,1.2c2.7,1,5.4,1.9,8.2,2.9c0.5,0.2,0.9,0.3,1.4,0.5c2.2,0.7,4.4,1.5,6.7,2.2
			c0.9,0.3,1.9,0.6,2.8,0.9c2.8,0.9,5.6,1.7,8.5,2.5c0,0,0.1,0,0.1,0c0.3,0.1,0.6,0.2,0.8,0.2c2.1,0.6,4.3,1.2,6.5,1.8
			c0.8,0.2,1.7,0.4,2.5,0.7c1.6,0.4,3.3,0.9,5,1.3c1,0.2,1.9,0.5,2.9,0.7c1.6,0.4,3.1,0.7,4.7,1.1c1,0.2,2,0.5,3,0.7
			c1.6,0.4,3.2,0.7,4.7,1c0.6,0.1,1.2,0.3,1.9,0.4c0.4,0.1,0.7,0.1,1.1,0.2c1.4,0.3,2.8,0.6,4.1,0.8c1.1,0.2,2.1,0.4,3.2,0.6
			c1.4,0.3,2.9,0.5,4.3,0.8c1,0.2,2,0.4,3,0.5c1.5,0.3,3.1,0.5,4.6,0.8c0.9,0.2,1.9,0.3,2.8,0.5c1.8,0.3,3.5,0.5,5.3,0.8
			c0.7,0.1,1.3,0.2,2,0.3c0.1,0,0.1,0,0.2,0c1.7,0.2,3.5,0.5,5.2,0.7c0.7,0.1,1.4,0.2,2.1,0.3c2.4,0.3,4.9,0.6,7.4,0.9
			c0.4,0,0.8,0.1,1.3,0.1c2,0.2,4.1,0.4,6.1,0.6c0.9,0.1,1.8,0.2,2.6,0.2c1.6,0.1,3.2,0.3,4.8,0.4c0.1,0,0.2,0,0.2,0
			c0.9,0.1,1.8,0.1,2.7,0.2c1.5,0.1,3,0.2,4.5,0.3c1.1,0.1,2.1,0.1,3.2,0.2c1.4,0.1,2.8,0.2,4.3,0.3c1.1,0.1,2.2,0.1,3.3,0.2
			c1.4,0.1,2.8,0.1,4.2,0.2c1.1,0,2.2,0.1,3.4,0.1c1.4,0,2.7,0.1,4.1,0.1c0.2,0,0.5,0,0.7,0c0.8,0,1.7,0,2.5,0c1.5,0,3,0.1,4.4,0.1
			c1.1,0,2.2,0,3.3,0c1.4,0,2.9,0,4.3,0c1.1,0,2.2,0,3.4,0c1.4,0,2.8,0,4.3-0.1c1.1,0,2.3,0,3.4-0.1c1.4,0,2.8-0.1,4.2-0.1
			c0.5,0,1.1,0,1.6,0c0.5,0,1.1,0,1.6-0.1c1.7-0.1,3.3-0.1,5-0.2c1,0,2-0.1,3.1-0.1c1.8-0.1,3.5-0.2,5.3-0.3
			c0.9-0.1,1.8-0.1,2.7-0.2c2.3-0.2,4.6-0.3,7-0.5c0.3,0,0.7,0,1-0.1c2.6-0.2,5.3-0.5,7.9-0.7c0.2,0,0.3,0,0.5,0
			c0.4,0,0.9-0.1,1.3-0.1c2.4-0.2,4.8-0.5,7.2-0.8c0.9-0.1,1.8-0.2,2.7-0.3c2.4-0.3,4.8-0.6,7.1-0.9c0.6-0.1,1.2-0.2,1.8-0.2
			c2.9-0.4,5.8-0.8,8.7-1.3c0.6-0.1,1.2-0.2,1.8-0.3c2.2-0.4,4.5-0.7,6.7-1.1c0.6-0.1,1.3-0.2,1.9-0.3c0.5-0.1,0.9-0.2,1.4-0.3
			c1.3-0.2,2.7-0.5,4-0.7c1.1-0.2,2.2-0.4,3.3-0.6c1.3-0.3,2.7-0.5,4-0.8c1.1-0.2,2.2-0.4,3.2-0.7c1.3-0.3,2.7-0.6,4-0.9
			c1-0.2,2.1-0.5,3.1-0.7c1.4-0.3,2.7-0.7,4.1-1c1-0.2,2-0.5,3-0.7c1.4-0.4,2.8-0.7,4.2-1.1c0.9-0.2,1.9-0.5,2.8-0.7
			c1.6-0.4,3.1-0.9,4.7-1.3c0.8-0.2,1.5-0.4,2.3-0.6c2.2-0.6,4.4-1.3,6.6-2c0.1,0,0.2-0.1,0.3-0.1c2.3-0.7,4.6-1.4,6.8-2.1
			c0.1,0,0.1,0,0.2-0.1c0.2-0.1,0.5-0.2,0.7-0.2c2.4-0.8,4.8-1.6,7.2-2.4c0.8-0.3,1.6-0.5,2.3-0.8c2.2-0.8,4.4-1.6,6.6-2.4
			c0.5-0.2,1-0.4,1.5-0.5c2.6-1,5.1-2,7.7-3c0.5-0.2,1.1-0.5,1.6-0.7c2-0.8,4.1-1.7,6.1-2.6c0.7-0.3,1.5-0.6,2.2-1
			c2.1-0.9,4.2-1.9,6.3-2.8c0.4-0.2,0.8-0.4,1.2-0.6c2.4-1.2,4.8-2.3,7.2-3.5c0.6-0.3,1.2-0.6,1.8-0.9c1.9-1,3.7-1.9,5.6-2.9
			c0.7-0.4,1.4-0.7,2-1.1c2.3-1.3,4.7-2.6,6.9-3.9c1.3-0.7,2.5-1.5,3.7-2.2c0.3-0.2,0.6-0.4,0.8-0.5c0.9-0.6,1.9-1.2,2.8-1.7
			c0.9-0.5,1.7-1.1,2.6-1.6c0.9-0.6,1.8-1.2,2.7-1.8c0.8-0.5,1.7-1.1,2.5-1.6c0.9-0.6,1.8-1.2,2.7-1.8c0.8-0.5,1.6-1.1,2.4-1.6
			c0.9-0.6,1.7-1.2,2.6-1.9c0.8-0.6,1.5-1.1,2.3-1.7c0.8-0.6,1.7-1.3,2.5-1.9c0.7-0.6,1.5-1.1,2.2-1.7c0.8-0.6,1.6-1.3,2.4-1.9
			c0.7-0.6,1.4-1.1,2.1-1.7c0.8-0.7,1.6-1.3,2.3-2c0.7-0.6,1.3-1.1,2-1.7c0.8-0.7,1.5-1.4,2.3-2c0.5-0.5,1.1-1,1.6-1.5
			c0.1-0.1,0.1-0.1,0.2-0.2c1.6-1.5,3.2-3,4.7-4.5c0.4-0.4,0.8-0.8,1.1-1.2c1.1-1.2,2.3-2.3,3.4-3.5c0.4-0.5,0.9-0.9,1.3-1.4
			c1.2-1.3,2.3-2.5,3.4-3.8c0.3-0.3,0.5-0.6,0.8-0.9c1.3-1.5,2.6-3.1,3.8-4.7c0.1-0.1,0.2-0.2,0.3-0.4c0.3-0.4,0.6-0.8,0.9-1.2
			c0.7-0.9,1.4-1.8,2.1-2.7c0.4-0.6,0.8-1.1,1.2-1.7c0.6-0.9,1.2-1.7,1.8-2.6c0.4-0.6,0.8-1.2,1.2-1.7c0.6-0.9,1.2-1.8,1.7-2.7
			c0.4-0.6,0.7-1.1,1.1-1.7c0.6-0.9,1.1-1.9,1.7-2.8c0.2-0.4,0.5-0.8,0.7-1.2c0.1-0.1,0.1-0.3,0.2-0.4c0.5-0.8,0.9-1.7,1.4-2.5
			c0.3-0.6,0.6-1.1,0.9-1.7c0.5-0.9,0.9-1.9,1.4-2.8c0.2-0.5,0.5-1,0.7-1.4c0.6-1.3,1.2-2.6,1.7-3.9c0.1-0.1,0.1-0.2,0.2-0.4
			c0.6-1.4,1.2-2.8,1.7-4.3c0,0,0-0.1,0-0.1c0.2-0.5,0.4-1,0.5-1.5c0.3-0.9,0.6-1.7,0.9-2.6c0.2-0.6,0.4-1.2,0.6-1.8
			c0.3-0.8,0.5-1.6,0.8-2.5c0.2-0.6,0.3-1.2,0.5-1.9c0.2-0.8,0.4-1.6,0.6-2.4c0.2-0.6,0.3-1.3,0.4-1.9c0.2-0.8,0.4-1.6,0.5-2.3
			c0-0.1,0.1-0.3,0.1-0.4c0.1-0.5,0.2-1,0.3-1.5c0.1-0.8,0.3-1.6,0.4-2.4c0.1-0.7,0.2-1.3,0.3-2c0.1-0.8,0.2-1.6,0.3-2.4
			c0.1-0.7,0.1-1.3,0.2-2c0.1-0.8,0.2-1.6,0.2-2.3c0.1-0.7,0.1-1.3,0.1-2c0-0.8,0.1-1.5,0.1-2.3c0-0.2,0-0.5,0-0.7
			c0-0.9,0-1.8,0-2.7c0,0,0,0,0,0l0.1-46.8c2.4-20.5-1.4-41.3-11.2-61.2l0.2-86.2c-0.2-40-1.6-71-5.1-106.5
			c13-1.8,23.7-11,27.5-23.3c0.3-1.1,0.6-2.1,0.8-3.2c0.2-1.1,0.4-2.2,0.5-3.3s0.2-2.3,0.2-3.4c0-0.5,0-1.1,0-1.6
			c0-0.4-0.1-0.8-0.1-1.2c0-0.1,0-0.2,0-0.3c-1.6-17.1-16-30.5-33.5-30.5c-18.6,0-33.6,15-33.6,33.6c0,12.3,6.6,23,16.4,28.9
			c-20.4,29.5-52.2,69.3-66.6,87.2c-10.4-26.8-44.3-109.1-106.2-210.5c9.8-5.9,16.4-16.6,16.4-28.8c0-0.5,0-1.1,0-1.6
			c0-0.4-0.1-0.8-0.1-1.2c0-0.1,0-0.2,0-0.3c-1.6-17.1-16-30.5-33.5-30.5c-18.6,0-33.6,15-33.6,33.6c0,10.5,4.8,19.9,12.4,26
			c-30.5,38.2-77.4,99.7-125.8,171.9c-10.6-12.7-77.6-89.3-113-129.5c3.1-2.7,5.7-5.8,7.6-9.4c0.3-0.5,0.5-1,0.7-1.4
			c0.9-2,1.7-4,2.3-6.2c0.4-1.6,0.7-3.3,0.9-5c0.1-1.1,0.2-2.3,0.2-3.4c0-0.5,0-1.1,0-1.6c0-0.4-0.1-0.8-0.1-1.2c0-0.1,0-0.2,0-0.3
			C797,56.3,782.6,43,765.1,43c-18.6,0-33.6,15-33.6,33.6c0,13.7,8.2,25.5,19.9,30.7c0,0,0.1,0,0.1,0c0.4,0.2,0.7,0.3,1.1,0.5
			c-11.6,29.1-26.9,71.2-40.6,124c-3.3-15.1-16.7-26.4-32.8-26.4c-18.6,0-33.6,15-33.6,33.6C645.6,252.7,653.8,264.5,665.5,269.7z
			 M843,423.3c-12.3,14-28.3,32.2-49.5,56.5c-6.5,7.4-13.5,15.3-21,23.9c-14.1-32.2-27.8-65.6-40.1-97.7c0.5-0.5,1.1-1,1.6-1.5
			c0.5-0.5,1.1-1,1.7-1.5c0.7-0.6,1.3-1.2,2-1.8c0.6-0.5,1.2-1,1.8-1.5c0.7-0.6,1.4-1.2,2.1-1.8c0.6-0.5,1.3-1,1.9-1.5
			c0.7-0.6,1.4-1.2,2.2-1.7c0.7-0.5,1.3-1,2-1.5c0.7-0.6,1.5-1.1,2.2-1.7c0.7-0.5,1.4-1,2.1-1.5c0.8-0.6,1.5-1.1,2.3-1.7
			c0.7-0.5,1.4-1,2.2-1.5c0.8-0.5,1.6-1.1,2.4-1.6c0.7-0.5,1.5-1,2.2-1.5c0.8-0.5,1.6-1.1,2.5-1.6c0.8-0.5,1.5-1,2.3-1.5
			c0.8-0.5,1.7-1.1,2.6-1.6c1.4-0.8,2.7-1.7,4.1-2.5c2.1-1.2,4.2-2.4,6.3-3.5c0.6-0.3,1.2-0.7,1.8-1c1.7-0.9,3.4-1.8,5.1-2.7
			c0.5-0.3,1-0.5,1.5-0.8c2.2-1.1,4.3-2.2,6.6-3.2c0.4-0.2,0.8-0.3,1.1-0.5c1.9-0.9,3.8-1.7,5.7-2.6c0.7-0.3,1.4-0.6,2-0.9
			c1.8-0.8,3.7-1.6,5.5-2.3c0.5-0.2,1-0.4,1.5-0.6c2.3-0.9,4.6-1.8,7-2.7c0.4-0.2,0.9-0.3,1.4-0.5c2-0.7,3.9-1.5,5.9-2.2
			c0.7-0.3,1.4-0.5,2.1-0.7c2.1-0.7,4.3-1.5,6.5-2.2c0.3-0.1,0.5-0.2,0.8-0.3c2-0.7,4.1-1.3,6.2-1.9c0.1,0,0.3-0.1,0.4-0.1
			c1.9-0.6,3.9-1.2,5.8-1.7c0.7-0.2,1.5-0.4,2.2-0.6c1.4-0.4,2.7-0.8,4.1-1.1c0.9-0.2,1.7-0.4,2.6-0.7c1.3-0.3,2.5-0.7,3.8-1
			c0.9-0.2,1.8-0.4,2.7-0.7c1.2-0.3,2.5-0.6,3.7-0.9c0.9-0.2,1.9-0.4,2.9-0.6c1.1-0.2,2.2-0.5,3.3-0.7c-5.5,6-8.9,14-8.9,22.8
			c0,10.2,4.6,19.4,11.8,25.5c-7,8-16.4,18.9-30.7,35.1C843.2,423.1,843.1,423.2,843,423.3z M1068.6,340c0.9,0.2,1.8,0.4,2.7,0.6
			c1.4,0.3,2.8,0.7,4.2,1c0.9,0.2,1.8,0.4,2.6,0.6c1.5,0.4,3,0.8,4.5,1.1c0.8,0.2,1.5,0.4,2.3,0.6c2,0.5,3.9,1.1,5.9,1.6
			c0.3,0.1,0.6,0.2,0.8,0.2c2.6,0.7,5.1,1.5,7.7,2.3c0.8,0.3,1.7,0.5,2.5,0.8c2,0.6,4.1,1.3,6.1,2c0.4,0.1,0.8,0.3,1.3,0.4
			c2.5,0.8,4.9,1.7,7.4,2.6c0.5,0.2,0.9,0.3,1.4,0.5c2,0.7,4,1.5,6,2.3c0.8,0.3,1.6,0.6,2.5,1c0.8,0.3,1.6,0.6,2.4,1
			c1,0.4,2.1,0.9,3.1,1.3c0.8,0.3,1.6,0.7,2.4,1c1,0.4,2,0.9,3,1.3c0.8,0.3,1.6,0.7,2.3,1c1,0.5,2,0.9,3,1.4
			c0.8,0.4,1.5,0.7,2.3,1.1c1,0.5,2,1,3,1.5c0.7,0.4,1.5,0.7,2.2,1.1c0.2,0.1,0.3,0.2,0.5,0.3c-31.3,56.4-81.6,144.2-106.9,172.6
			c0,0-82.9-95.6-127.1-152.3c7.8-6.2,12.9-15.7,12.9-26.5c0-0.5,0-1.1,0-1.6c0-0.4-0.1-0.8-0.1-1.2c0-0.1,0-0.2,0-0.3
			c-1.1-11.5-7.9-21.3-17.5-26.5c0.6-0.1,1.2-0.1,1.7-0.2c2.2-0.3,4.3-0.5,6.5-0.7c0.5-0.1,1.1-0.1,1.6-0.2c2.4-0.2,4.8-0.5,7.2-0.7
			c0.3,0,0.6,0,1-0.1c2.1-0.2,4.2-0.3,6.3-0.5c0.8-0.1,1.6-0.1,2.4-0.2c1.6-0.1,3.2-0.2,4.8-0.3c0.9,0,1.9-0.1,2.8-0.1
			c1.5-0.1,3-0.1,4.5-0.2c1,0,2-0.1,3-0.1c1.3,0,2.5-0.1,3.8-0.1c1,0,2.1,0,3.1-0.1c1.3,0,2.6,0,3.8,0c1,0,2,0,3.1,0
			c1.3,0,2.6,0,3.9,0c1,0,2,0,3,0c1.3,0,2.7,0,4,0.1c1,0,1.9,0,2.9,0.1c1.2,0,2.5,0.1,3.7,0.1c1,0,2.1,0.1,3.1,0.1
			c1.2,0.1,2.5,0.1,3.7,0.2c1,0,2,0.1,3,0.1c1.3,0.1,2.6,0.2,3.8,0.2c1,0.1,1.9,0.1,2.9,0.2c1.3,0.1,2.7,0.2,4,0.3
			c0.9,0.1,1.8,0.1,2.7,0.2c1.4,0.1,2.9,0.3,4.3,0.4c0.8,0.1,1.6,0.1,2.4,0.2c1.9,0.2,3.8,0.4,5.7,0.6c0.3,0,0.7,0.1,1,0.1
			c2.2,0.2,4.4,0.5,6.7,0.8c0.7,0.1,1.4,0.2,2,0.3c1.5,0.2,3.1,0.4,4.6,0.6c0.7,0.1,1.3,0.2,2,0.3c1.6,0.2,3.1,0.5,4.7,0.7
			c0.9,0.1,1.7,0.3,2.6,0.4c1.4,0.2,2.7,0.4,4.1,0.7c0.9,0.2,1.9,0.3,2.8,0.5c1.3,0.2,2.6,0.5,3.9,0.7c1,0.2,1.9,0.4,2.9,0.6
			c1.2,0.2,2.5,0.5,3.7,0.7c0.9,0.2,1.8,0.4,2.7,0.6C1065.8,339.4,1067.2,339.7,1068.6,340z"/>
	</g>
	<g>
		<g>
			<g>
				<g>
					<polygon fill="#FBC977" points="312.8,1786 312.8,2037.2 367.4,2068.8 367.4,1817.6 					"/>
					<polygon fill="#FBC977" points="813.3,1497.1 813.3,1748.3 867.9,1779.8 867.9,1528.6 					"/>
					<polygon fill="#F9B142" points="367.4,2068.8 867.9,1779.8 867.9,1528.6 367.4,1817.6 					"/>
					<polygon fill="#FBC977" points="813.3,1497.1 312.8,1786 367.4,1817.6 867.9,1528.6 					"/>
				</g>
				<polygon fill="#F89D1F" points="837.4,2052.6 837.4,2303.8 398.9,2050.6 398.9,1799.4 				"/>
				<g>
					<polygon fill="#FBC977" points="805.9,2070.8 805.9,2322 860.5,2353.5 860.5,2102.3 					"/>
					<polygon fill="#FBC977" points="1306.4,1781.8 1306.4,2033 1361,2064.5 1361,1813.3 					"/>
					<polygon fill="#F9B142" points="860.5,2353.5 1361,2064.5 1361,1813.3 860.5,2102.3 					"/>
					<polygon fill="#FBC977" points="1306.4,1781.8 805.9,2070.8 860.5,2102.3 1361,1813.3 					"/>
				</g>
				<g>
					<path fill="#F89D1F" d="M310.2,1713.1c-0.4-0.2-0.9-0.4-1.3-0.5c-0.6-0.2-1.3-0.5-1.9-0.6c-0.4-0.1-0.7-0.2-1.1-0.3
						c-0.4-0.1-0.7-0.2-1.1-0.2c-0.4-0.1-0.9-0.2-1.3-0.2c-0.3,0-0.5-0.1-0.8-0.1c-0.5,0-1-0.1-1.5-0.1c-0.2,0-0.4,0-0.6,0
						c-0.7,0-1.3,0.1-2,0.2c-0.1,0-0.2,0.1-0.3,0.1c-0.5,0.1-1.1,0.3-1.6,0.4c-0.2,0.1-0.3,0.1-0.5,0.2c-0.6,0.2-1.2,0.5-1.7,0.8
						l500.5-289c0,0,0,0,0,0c0.4-0.2,0.9-0.5,1.3-0.7c0.1-0.1,0.2-0.1,0.4-0.1c0.2-0.1,0.3-0.1,0.5-0.2c0.2-0.1,0.4-0.1,0.5-0.2
						c0.3-0.1,0.7-0.2,1-0.2c0.1,0,0.2-0.1,0.3-0.1c0,0,0.1,0,0.1,0c0.5-0.1,1-0.2,1.6-0.2c0.1,0,0.2,0,0.3,0c0.2,0,0.4,0,0.6,0
						c0.3,0,0.6,0,0.9,0c0.2,0,0.4,0,0.6,0.1c0.3,0,0.5,0,0.8,0.1c0.2,0,0.4,0,0.5,0.1c0.3,0,0.5,0.1,0.8,0.2
						c0.4,0.1,0.7,0.1,1.1,0.2c0.2,0,0.3,0.1,0.4,0.1c0.2,0.1,0.4,0.2,0.6,0.2c0.6,0.2,1.3,0.4,1.9,0.6c0.2,0.1,0.4,0.1,0.6,0.2
						c0.2,0.1,0.5,0.2,0.7,0.3c0.2,0.1,0.4,0.2,0.6,0.3c0.8,0.4,1.5,0.8,2.3,1.2l22.4,12.9l-500.5,289l-22.4-12.9
						c-0.8-0.4-1.6-0.8-2.3-1.2C310.6,1713.3,310.4,1713.2,310.2,1713.1z"/>
					<path fill="#DAA301" d="M293.1,1388.1c-0.4-0.1-0.8-0.2-1.2-0.3c0,0-0.1,0-0.1,0c-0.4,0-0.8,0-1.2,0.1c0,0,0,0-0.1,0
						c-0.4,0.1-0.8,0.2-1.1,0.4l500.5-289c0,0,0,0,0,0c0.1-0.1,0.3-0.1,0.4-0.2c0.1-0.1,0.3-0.1,0.4-0.1c0.1,0,0.2,0,0.3-0.1
						c0,0,0,0,0.1,0c0,0,0.1,0,0.1,0c0.1,0,0.3,0,0.5-0.1c0.2,0,0.3,0,0.5,0c0.1,0,0.1,0,0.2,0c0,0,0.1,0,0.1,0c0.1,0,0.2,0,0.3,0
						c0.2,0,0.4,0.1,0.7,0.1c0.1,0,0.2,0.1,0.3,0.1c0.1,0,0.2,0.1,0.3,0.1c0.1,0,0.2,0.1,0.3,0.1c0.3,0.1,0.7,0.3,1.1,0.5l64.7,37.3
						l-500.5,289l-64.7-37.3c-0.5-0.3-0.9-0.5-1.4-0.6C293.3,1388.2,293.2,1388.1,293.1,1388.1z"/>
					<path fill="#F89D1F" d="M367.8,1438.9c0-0.1,0-0.2-0.1-0.3c-0.1-0.6-0.2-1.2-0.4-1.9c0-0.1,0-0.1-0.1-0.2
						c-0.2-0.7-0.5-1.3-0.7-2c0,0,0,0,0,0c-0.3-0.7-0.6-1.3-1-2c0,0,0,0,0-0.1c-0.4-0.6-0.8-1.2-1.2-1.8c0-0.1-0.1-0.1-0.1-0.2
						c-0.4-0.5-0.8-1-1.2-1.5c-0.1-0.1-0.2-0.2-0.3-0.3c-0.3-0.4-0.7-0.7-1.1-1c-0.2-0.1-0.3-0.3-0.5-0.4c-0.5-0.4-1-0.8-1.6-1.1
						l500.5-289c0.5,0.3,1.1,0.7,1.6,1.1c0.2,0.1,0.3,0.3,0.5,0.4c0.3,0.2,0.5,0.4,0.8,0.7c0.1,0.1,0.2,0.2,0.3,0.3
						c0.1,0.1,0.2,0.2,0.3,0.3c0.1,0.1,0.2,0.2,0.3,0.3c0.2,0.3,0.5,0.6,0.7,0.8c0.1,0.1,0.1,0.2,0.2,0.3c0,0.1,0.1,0.1,0.1,0.2
						c0.1,0.1,0.2,0.2,0.2,0.3c0.2,0.2,0.3,0.5,0.5,0.7c0.2,0.2,0.3,0.5,0.4,0.7c0,0,0,0,0,0.1c0,0,0,0,0,0.1
						c0.1,0.2,0.2,0.4,0.3,0.6c0.1,0.2,0.2,0.5,0.4,0.7c0.1,0.2,0.2,0.4,0.3,0.7c0,0,0,0,0,0c0,0,0,0,0,0c0.1,0.3,0.2,0.5,0.3,0.8
						c0.1,0.3,0.2,0.5,0.3,0.8c0,0.1,0.1,0.3,0.1,0.4c0,0.1,0,0.1,0.1,0.2c0,0.1,0.1,0.2,0.1,0.3c0.1,0.3,0.2,0.6,0.2,1
						c0,0.2,0.1,0.4,0.1,0.6c0,0.1,0,0.2,0.1,0.3c0,0.1,0,0.2,0,0.3c0.1,0.6,0.1,1.1,0.1,1.7l-0.5,376.7l-500.5,289l0.5-376.7
						C367.9,1440.2,367.9,1439.5,367.8,1438.9z"/>
					<g>
						<path fill="#FBC977" d="M294.8,1388.8c-4.2-2.4-7.6-0.5-7.6,4.3l0,6.1c0,8.2,5.7,18.1,12.9,22.3l18.4,10.6
							c4.6,2.7,9,7.3,12.2,12.9c3.2,5.6,5,11.7,5,17l-0.2,265.5l-22.4-12.9c-7-4-13.7-4.7-18.6-1.9c-5,2.8-7.8,8.9-7.8,16.9l0,10.8
							c0,16.8,11.8,37.3,26.4,45.7l54.3,31.3l0.5-376.7c0-5.4-3.8-12-8.5-14.7L294.8,1388.8z"/>
					</g>
					<g>
						<path fill="#FF8666" d="M287.2,1378.8c0,3.1,2.2,6.9,4.9,8.5l70.9,41c1.5,0.9,2.9,0.8,3.8,0.1c-0.1,0.1-0.2,0.2-0.3,0.3
							l500.5-289c0.9-0.5,1.4-1.6,1.4-3.1l0.1-28.1c0-0.3,0-0.6-0.1-1c0-0.1,0-0.1,0-0.2c0-0.1,0-0.1,0-0.2c0-0.1,0-0.2-0.1-0.3
							c0-0.2-0.1-0.4-0.1-0.6c0-0.1,0-0.1,0-0.2c0,0,0-0.1,0-0.1c0-0.1,0-0.2-0.1-0.2c-0.1-0.2-0.1-0.3-0.2-0.5
							c-0.1-0.1-0.1-0.3-0.2-0.4c0,0,0,0,0,0c0,0,0,0,0,0c-0.1-0.1-0.1-0.3-0.2-0.4c-0.1-0.1-0.1-0.3-0.2-0.4
							c-0.1-0.1-0.1-0.2-0.2-0.3c0,0,0,0,0,0c0,0,0,0,0,0c-0.1-0.1-0.2-0.3-0.3-0.4c-0.1-0.1-0.2-0.3-0.3-0.4c0-0.1-0.1-0.1-0.1-0.2
							c0,0,0-0.1-0.1-0.1c0-0.1-0.1-0.1-0.1-0.2c-0.1-0.2-0.3-0.3-0.4-0.5c-0.1-0.1-0.1-0.1-0.2-0.2c-0.1-0.1-0.1-0.1-0.2-0.2
							c-0.1-0.1-0.1-0.1-0.2-0.2c-0.1-0.1-0.3-0.3-0.4-0.4c-0.1-0.1-0.2-0.2-0.3-0.2c-0.3-0.2-0.6-0.5-0.9-0.6l-70.9-41
							c-0.2-0.1-0.5-0.2-0.7-0.3c-0.1,0-0.1,0-0.2-0.1c-0.1,0-0.1,0-0.2-0.1c-0.1,0-0.1,0-0.2-0.1c-0.1,0-0.3-0.1-0.4-0.1
							c-0.1,0-0.1,0-0.2,0c0,0,0,0-0.1,0c0,0-0.1,0-0.1,0c-0.1,0-0.2,0-0.3,0c-0.1,0-0.2,0-0.3,0c0,0,0,0-0.1,0c0,0,0,0,0,0
							c-0.1,0-0.1,0-0.2,0c-0.1,0-0.2,0.1-0.3,0.1c-0.1,0-0.2,0.1-0.2,0.1c0,0,0,0,0,0l-500.5,288.9l0,0c-0.9,0.5-1.4,1.6-1.4,3.2
							L287.2,1378.8z"/>
						<path fill="#ED4944" d="M287.2,1378.8c0,3.1,2.2,6.9,4.9,8.4l70.9,41c1.5,0.9,2.9,0.8,3.8,0.1c-0.1,0.1-0.2,0.2-0.3,0.3
							l500.5-289c0.9-0.5,1.4-1.6,1.4-3.1l0.1-28.1c0-0.3,0-0.6,0-1c0-0.1,0-0.1,0-0.2c0,0,0-0.1,0-0.2c0-0.1,0-0.2,0-0.3
							c0-0.1,0-0.1,0-0.2l-483.1,276.8c-12,6.9-26.9,6.7-38.7-0.5l-57.8-35.2l-1.3,1.9c-0.1,0.4-0.1,0.8-0.1,1.3L287.2,1378.8z"/>
					</g>
				</g>
				<g>
					<g>
						<polygon fill="#F9B142" points="1306.4,1781.8 805.9,2070.8 367.4,1817.6 867.9,1528.6 						"/>
						<polygon fill="#F89D1F" points="1306.4,1712.8 805.9,2001.8 367.4,1748.6 867.9,1459.6 						"/>
						<polygon fill="#F9B142" points="1306.4,1712.8 1306.4,1781.8 805.9,2070.8 805.9,2001.8 						"/>
						<polygon fill="#FBC977" points="367.4,1748.6 367.4,1817.6 805.9,2070.8 805.9,2001.8 						"/>
					</g>
					<g>
						<polygon fill="#F9B142" points="1306.4,1003.8 1218.7,851.9 955.6,700 867.9,750.6 867.9,1459.6 1306.4,1712.8 						"/>
						<polygon fill="#FBC977" points="1244.5,1039.6 1156.8,887.7 893.7,735.7 805.9,786.4 805.9,1495.4 1244.5,1748.6 						"/>
						<polygon fill="#F9B142" points="1244.5,1748.6 1306.4,1712.8 1306.4,1003.8 1244.5,1039.6 						"/>
						
							<rect x="1195.9" y="858" transform="matrix(0.866 -0.5 0.5 0.866 -307.8714 742.5081)" fill="#FBC977" width="71.5" height="175.4"/>
						<polygon fill="#F89D1F" points="1218.7,851.9 955.6,700 893.7,735.7 1156.8,887.7 						"/>
					</g>
					<g>
						<polygon fill="#CF281F" points="1230.5,1043.3 1146.5,897.9 893.7,752 820,794.5 820,1503.5 1230.5,1740.5 						"/>
						<g>
							<polygon fill="#E03434" points="1212.9,1053.5 1129,908.1 876.1,762.1 802.4,804.6 802.4,1513.6 1212.9,1750.6 							"/>
							<polygon fill="#ED4944" points="1212.9,1750.6 1230.5,1740.5 1230.5,1043.3 1212.9,1053.5 							"/>
							<polygon fill="#FF8666" points="1146.5,897.9 1129,908.1 876.1,762.1 893.7,752 							"/>
							
								<rect x="1169.6" y="891.8" transform="matrix(0.866 -0.5 0.5 0.866 -329.7992 720.5843)" fill="#ED4944" width="20.3" height="167.9"/>
						</g>
					</g>
					<g>
						<polygon fill="#CF281F" points="1212.9,1750.6 802.4,1513.6 395.5,1748.6 805.9,1985.6 						"/>
						<polygon fill="#E03434" points="1212.9,1733 802.4,1496 395.5,1731 805.9,1968 						"/>
						<polygon fill="#ED4944" points="805.9,1968 805.9,1985.6 395.5,1748.6 395.5,1731 						"/>
						<polygon fill="#8E2409" points="1212.9,1733 1212.9,1750.6 805.9,1985.6 805.9,1968 						"/>
					</g>
				</g>
				<g>
					<path fill="#333333" d="M742.5,1511.1c0,0,20.1-28.5,75-41.7l-64-180.1L742.5,1511.1z"/>
					<g>
						<g>
							<path fill="#071F3B" d="M646.2,2389c-7,10.4-48.7,28.2-61.8,37.7c-13,9.5-19.8,27.7-42.4,50.3
								c-24.3,24.1-57.6,29.9-90.1,14.7c-7.6-3.5-12-10.2-12.1-19.2c-0.1-13.4,9.5-31.7,33.2-51.5c20.1-16.9,32.7-35.6,50-57.4
								c17.3-21.8,26.8-54.2,28.5-59.2c1.7-5,4.4-17.7,5.3-26.3c1.3-12.8,28.3-15.1,48.3-12.4c11.9,1.6,21.3,5,21.2,9.1
								c0,0,0,11.2,0.5,21.8c0.5,10.7,12.1,33,21.8,51.7C658.2,2366.9,653.2,2378.5,646.2,2389z"/>
						</g>
						<g>
							<path fill="#114077" d="M950.3,1550.8c-44.1,121.6-283.1,347.8-283.1,347.8s7.1,86.8,4.6,129.1
								c-2.5,42.3-10.3,58.7-17.9,95.7c-7.6,37-21.5,140.1-22.3,170.3c-0.3,10.9-17,14.4-35.5,13.8c-23-0.7-48.8-7.5-49.3-13.8
								c-0.8-11.4-11.1-301.9-13.3-361c-0.5-12.8-0.3-24.6,0.4-35.7c2.7-40.2,13.3-71.9,31.8-111.1
								c37.1-78.6,204.9-296.2,204.9-296.2C833.8,1410,994.4,1429.2,950.3,1550.8z"/>
							<path fill="#0C3461" d="M950.3,1550.8c-44.1,121.6-283.1,347.8-283.1,347.8s7.1,86.8,4.6,129.1
								c-2.5,42.3-10.3,58.7-17.9,95.7c-7.6,37-21.5,140.1-22.3,170.3c-0.3,10.9-17,14.4-35.5,13.8c0.2-5.1,0.5-10.1,1-15
								c8.4-101.9,15.3-204,21-306.1c1.3-24,1.4-51.3-15.9-67.9c-15.1-14.6-38.1-15.8-58.8-19.4c-3.3-0.6-6.4-1.3-9.3-2.1
								c2.7-40.2,13.3-71.9,31.8-111.1c37.1-78.6,204.9-296.2,204.9-296.2C833.8,1410,994.4,1429.2,950.3,1550.8z"/>
						</g>
					</g>
					<path fill="#0C3461" d="M575.1,1236.5c19.1-4.9,204.3-75.2,238.6-93.6c74-39.5,5.1-156.1-33.5-150.1
						c-38.6,6-222.1,158-238.7,175.4C518.2,1192.8,545.6,1244.1,575.1,1236.5z"/>
					<g>
						<g>
							<path fill="#071F3B" d="M186.7,1937.1c-32.7,19.7-34.4,24.8-110.2,57.9c-92.8,40.5-80.3,82.9-68.2,98.9
								c15,19.9,49,34.7,86.7,24.8c38-10,70.1-49.4,86.8-65.4c16.6-16,51.1-38.5,58.7-45.1c13.5-11.6,27.6-42.7,11.2-64.3
								C236.8,1924.2,219.7,1917.3,186.7,1937.1z"/>
						</g>
						<path fill="#114077" d="M977.5,1721.5c-142.8,49.7-279.5,49.6-353.9,85.5c-41.2,19.9-83,60-141.4,83.8
							c-52.9,21.6-206.1,85.8-231.9,97.4c-11.6,5.2-24.9,1.1-35.5-7.5c-18.7-15-29-43.6-6.1-58.3c30.5-19.6,203.5-141.6,252.5-169.8
							c49-28.3,157.3-98.4,205.8-112.2c48.5-13.8,199.5-72.7,251.5-92.6c35.4-13.5,79.1-24.6,106-21.6c12.7,1.4,21.6,5.9,24.1,14.8
							C1056.5,1568.9,1054,1694.9,977.5,1721.5z"/>
						<path fill="#0C3461" d="M977.5,1721.5c-142.8,49.7-279.5,49.6-353.9,85.5c-41.2,19.9-83,60-141.4,83.8
							c-52.9,21.6-206.1,85.8-231.9,97.4c-11.6,5.2-24.9,1.1-35.5-7.5c1.5-0.8,3-1.6,4.4-2.4c101.7-53.1,203.4-106.1,305-159.1
							c49.9-26,100.1-52.2,153.4-70.2c70.4-23.8,145.7-33.4,213.2-64.5c28-12.9,54.1-30.4,76-52c19.1-19,35.2-41.5,44.6-66.9
							c4.7-12.7,7.2-26.9,12.9-39.4c12.7,1.4,21.6,5.9,24.1,14.8C1056.5,1568.9,1054,1694.9,977.5,1721.5z"/>
					</g>
					<path fill="#E9F0F7" d="M1051.8,1533.1c6.9,19.9-47.8,61.9-106.3,61.9c-46.3,0-143.8-34.6-182.3-77.8c-5.3-6-7.2-14.2-5.2-21.9
						c4-15.1,12.3-44.8,25.7-86.6c-0.2-2.5-0.4-5.1-0.8-7.8c-4.1-29.2-20.5-66.3-31.2-119.2c-0.8-3.8-17.4-22.4-24.5-93.5
						c-3.9-38.9-10.5-105.5,7.5-147.2c18-41.7,34.8-50.7,69-49.8c0,0,73.9-6.3,142.3,38.2c73.2,47.6,107.1,75.5,117.1,107.7
						c10,32.2-45.2,259.9-41,295.5C1026.4,1468,1045.9,1516,1051.8,1533.1z"/>
					<path opacity="0.1" d="M1051.8,1533.1c6.9,19.9-47.8,61.9-106.3,61.9c-46.3,0-143.8-34.6-182.3-77.8c-5.3-6-7.2-14.2-5.2-21.9
						c4-15.1,12.3-44.8,25.7-86.6c-0.2-2.5-0.4-5.1-0.8-7.8c6.1,8.8,13.8,16.4,23.1,21.9c25.2,14.9,62.1,10.2,78.5-14.1
						c11.7-17.4,11.2-39.9,12.7-60.9c4-56.5,25.6-111.7,61.1-155.8c0,0,38.7-54.6,104.7-54.9c10,32.2-45.2,259.9-41,295.5
						C1026.4,1468,1045.9,1516,1051.8,1533.1z"/>
					<g>
						<path fill="#F2A29B" d="M898.4,962.6c0,0,3.5,33.8,38.9,61.2c35.4,27.4-38.9,93.1-106.4,67.8c-55.8-20.9-11-77.4-3.6-92
							C834.7,985,880.1,923.9,898.4,962.6z"/>
						<path fill="#FF8666" d="M830.8,1091.6l-16-12.9l-2,32.9c0,0-17.7,70.6-36.7,302.3l18.2,44.3l29.5-16.7
							c-10.7-153,10-319.6,10-319.6l25-20.5C851.8,1099.6,830.8,1091.6,830.8,1091.6z"/>
						<path fill="#AEC7E6" d="M830.8,1091.6l-34.6,34.3c0,0-26.9-76.5,33.5-127.9C829.7,998,811.1,1057.9,830.8,1091.6z"/>
						<path fill="#AEC7E6" d="M916.2,1006.4c0,0-17.1,65-85.4,85.2l8.9,57.7c0,0,111.7-43.4,106.6-114.6L916.2,1006.4z"/>
						<path fill="#E9F0F7" d="M830.8,1091.6l-33.8,27.9c0,0-25.2-76.5,35.1-127.9C832.2,991.6,811.1,1057.9,830.8,1091.6z"/>
						<path fill="#E9F0F7" d="M915.2,1001.3c0,0-16.1,70.1-84.4,90.3l11.4,51.3c0,0,111.7-43.4,106.6-114.6L915.2,1001.3z"/>
					</g>
					<g>
						<path fill="#114077" d="M832.2,991.5C832.2,991.6,832.1,991.6,832.2,991.5c-1.8,1.7-59.2,56.2-71.6,174.7
							c-5.8,55.4,5.2,130.2,3.5,242.3c-0.6,39.2-2.8,83-7.7,132.2c-1.3,12.4-2.8,38.6-16.3,48c0-25.6-17.2-29-17.2-60.5
							c0-30.4,17.2-21.7,17.2-147.6c0-44.2-21.3-188.4-21.3-261.2c0-72.8,15.6-106.8,48-122.6C790.9,985,832.2,991.5,832.2,991.5z"
							/>
						<path fill="#3D75A9" d="M760.6,1166.3c-5.8,55.4,5.2,130.2,3.5,242.3l0,0c0,0-25.8-210.2-29.6-240.6l15.7-3.8l-12.8-27
							c0,0,2.4-85.1,94.9-145.6C830.4,993.3,773,1047.7,760.6,1166.3z"/>
					</g>
					<g>
						<path fill="#114077" d="M627.1,1069.7c-5,5-81.5,82.6-92.2,97.3c-10.7,14.7-26.2,36.1-9.2,56.3c19,22.6,54.1,19.1,71.4-1.1
							c17.3-20.2,59.6-102.6,67.6-111.9C674.2,1099.2,643,1053.7,627.1,1069.7z"/>
						<g>
							<g>
								<path fill="#666666" d="M760.8,1048c0,0-15.4,0.7-17,0.8c-1.6,0-2.5-6.2-0.1-9.4c2.5-3.2,9.4-4.8,17.2-2.7L760.8,1048z"/>
								<path fill="#F2A29B" d="M712.6,1009.8c0,0,31,3.1,34.5,4.1c4.8,1.4,16.6,16.3,18.9,18.7c3.1,3.1,0.8,12.5-2.3,14.5
									c-1.8,1.1-5.1,1.3-7,0.2c-1.6-0.9-16.1-13.1-16.1-13.1s-18.3-1.8-27.2-2.4C704.6,1031.2,704.9,1009,712.6,1009.8z"/>
							</g>
							<g>
								<path fill="#FFFFFF" d="M760.4,1064.5c0,0-16.3,0.8-18,0.8c-1.7,0-2.7-6.6-0.1-10c2.6-3.4,10-5.1,18.3-2.9L760.4,1064.5z"/>
								<path fill="#F2A29B" d="M707.1,1023.6c0,0,35.1,3.7,38.8,4.8c5.1,1.5,17.6,17.3,20.1,19.8c3.3,3.3,0.9,13.2-2.5,15.3
									c-1.9,1.2-5.4,1.4-7.4,0.2c-1.6-1-17.1-13.9-17.1-13.9s-21.6-3-31-2.7C698.7,1047.4,698.9,1022.7,707.1,1023.6z"/>
							</g>
							<path fill="#FFC5B3" d="M712.1,1009.8c0,0-7.3-2.7-18.7,5.3c-10.1,7.1-31.4,20.4-41.1,34.1c-3.5,4.9-12.8,14.6-12.8,14.6
								l-6.5,6.5c-9,7.1,20.2,46,28.3,39.3l3.6-3.8c0,0,7.2,1.8,17.3-5.2c10.1-6.9,15.5-13.5,19.2-17.8c3.7-4.3,4.7-30.5,6.3-42.2
								C709.3,1028.9,712.1,1009.8,712.1,1009.8z"/>
							<g>
								<path fill="#FBB03B" d="M750.8,1076.3c0,0-14.1,1.5-15.7,1.7c-1.5,0.1-2.7-5.6-0.6-8.7c2.1-3.1,8.4-5,15.8-3.4L750.8,1076.3
									z"/>
								<path fill="#FFC5B3" d="M703.2,1043.6c0,0,29.8,1.3,33.1,2c4.5,1,16.2,14.2,18.5,16.2c3,2.7,1.4,11.5-1.3,13.5
									c-1.6,1.1-4.6,1.5-6.4,0.6c-1.5-0.8-15.6-11.2-15.6-11.2s-18.9-1.5-27.1-0.8C696.1,1064.6,696,1043.2,703.2,1043.6z"/>
							</g>
							<g>
								<path fill="#FBB03B" d="M741.4,1090.8c0,0-13.5,1.6-14.9,1.8c-1.4,0.2-2.7-4.7-0.9-7.4c1.7-2.8,7.4-4.6,14.1-3.6
									L741.4,1090.8z"/>
								<path fill="#FFC5B3" d="M697.6,1064c0,0,24.5,1.2,27.6,1.7c3,0.4,18.1,12.2,20.2,14.1c2.1,1.9,0.3,9.1-1.8,10.3
									c-1.5,0.9-3.7,1.1-5.4,0.2c-1.3-0.7-15.4-7.8-15.4-7.8s-18.5-0.1-25.9,0.6C689.5,1083.7,691.1,1063.7,697.6,1064z"/>
							</g>
						</g>
					</g>
					<g>
						<g>
							<g>
								<path fill="#FFC5B3" d="M927.2,900.1c-7.9,55.2-27.5,85.8-44.2,105.3c-31.4,36.6-55.3,54.5-79.7,62.2
									c-8.7,2.8-25,2.3-32.3-8c-6.1-8.6-9.5-15.1-17.4-29.2c0,0-10.4-4.1-12.4-7.7c-2.1-3.8,2.8-9.9,0.8-14.9
									c-1.6-3.9-3.4-7.5-5.1-12.2c-3.6-9.9-23.5-80.5-24.5-94.4c-5.2-77.9,57.1-113.1,102.9-118.9
									C873.1,775,937.4,829,927.2,900.1z"/>
							</g>
						</g>
						<g>
							<path fill="#114077" d="M928.3,901.4c-9.3,57.8-32.2,87.1-33,87.9c0.7-1.3,29.1-54,8.1-69.2c-15.7-11.3-22.7,23.7-23.7,40.3
								c-0.2,2.7-1.1,5.2-2.5,7.4c-1.5,2.2-3.5,4-5.9,5.2c-1.1,0.6-2.5-0.2-2.7-1.4l-4.3-38.8c0-1-0.2-1.7-0.5-2.2
								c-0.1-0.1-0.2-0.2-0.3-0.4c0,0,0,0,0,0c-0.1-0.1-0.2-0.2-0.4-0.3c-0.2-0.1-0.4-0.2-0.7-0.3c-0.1-0.1-0.3-0.1-0.5-0.1
								c0,0,0,0-0.1,0c-0.2,0-0.4,0-0.6-0.1c-11.4-0.9-54.2,24.6-117,11.1c-29.4-6.3-31.8-19.3-35.1-41.5c-0.6-4.3-1.1-8.5-1.3-12.6
								c-0.2-4.2-0.2-8.4,0.1-12.4c7.2-85,96.8-95.2,109.6-95.2c95.3,0,110.8,66.7,111.7,102.8C929.5,890.7,928.8,897.8,928.3,901.4
								z"/>
							<path fill="#0C3461" d="M929.3,881.7c-26.4,6.2-58.8-2.6-58.8-2.6c-25,14.9-74.5,20.6-103.7,20.1c-20.2-0.4-40.4-4.7-59-12.6
								c-8.1-3.2-12.3-14.7-12.3-14.7c-2.1,16.9,8.4,32.2,8.4,32.2c-5.5-2.3-10.5-9.6-10.5-9.6c5.2,36.2,40.6,44,50.8,46.2
								c62.7,13.5,105.5-12,117-11.1c0.2,0,0.4,0,0.6,0.1c0,0,0.1,0,0.1,0c0.2,0,0.4,0.1,0.5,0.1c0.3,0.1,0.5,0.2,0.7,0.3
								c0.1,0.1,0.3,0.2,0.4,0.3c0,0,0,0,0,0c0.1,0.1,0.2,0.2,0.3,0.4c0.4,0.5,0.5,1.3,0.5,2.2l4.3,38.8c0.2,1.2,1.5,2,2.7,1.4
								c2.4-1.2,4.5-3.1,5.9-5.2c1.4-2.2,2.3-4.8,2.5-7.4c1-16.6,8.1-51.6,23.7-40.3c21,15.2-7.4,67.9-8.1,69.2
								c0.8-0.8,23.7-30.2,33-87.9C928.8,897.8,929.5,890.7,929.3,881.7z"/>
						</g>
					</g>
					<g>
						<path fill="#114077" d="M1073.6,1140.2c-0.9,6-3.9,22.9-7.7,45.8c-11.7,69.1-32.1,193.3-33.5,243.9
							c-1.9,67.3,18.8,91.6,28.6,129.8c10.7,41.6-167,80.8-174.1,73.6c-6.7-6.8-12.9-15.3-18-27.7c-9.2-22.5-24.7-91.4-30.7-171.4
							c-0.2-2.7-0.4-5.3-0.6-8c-5.5-82.5-0.7-175.4,31.3-240.9c52-106.5,75.1-145.1,46.4-183.9h0c0.2,0.2,2,1.4,5,3.6
							C947.6,1024.5,1077,1118.6,1073.6,1140.2z"/>
						<path fill="#3D75A9" d="M910.5,1217.8l-35.7,3.4l27.9,27.7c0,0-57.2,95.7-64.5,185.3c-6.4-84.5-2.3-181.3,30.7-248.9
							c52-106.5,75.1-145.1,46.4-183.9h0c0.3,0.1,2.2,1.1,5,3.6C933.1,1016.6,974.5,1058.4,910.5,1217.8z"/>
						<path fill="#0C3461" d="M1060.9,1559.7c10.7,41.6-167,80.8-174.1,73.6c-6.7-6.8-12.9-15.3-18-27.7
							c-9.2-22.5-24.7-91.4-30.7-171.4c-0.2-2.7-0.4-5.3-0.6-8c8.6-1.2,17.7-1.1,26.3-1.2c35.8-0.4,75.5-9.7,95.2-39.7
							c16.2-24.7,16.1-96.6,14.4-126.1c-1.7-29.5,14.9-45,14.9-45c13.4-16.6,34.6-25.4,55.8-28.1c7.3-0.9,14.5-0.7,21.8-0.1
							c-11.7,69.1-32.1,193.3-33.5,243.9C1030.4,1497.3,1051.1,1521.5,1060.9,1559.7z"/>
					</g>
				</g>
				<g>
					<path fill="#F89D1F" d="M886.6,2072.4c-0.1-0.6-0.1-1.2-0.2-1.9c-0.1-0.8-0.2-1.5-0.4-2.3c-0.1-0.4-0.1-0.8-0.2-1.2
						c-0.1-0.4-0.2-0.9-0.3-1.3c-0.2-0.6-0.3-1.3-0.5-1.9c-0.1-0.3-0.2-0.7-0.3-1c-0.2-0.7-0.4-1.4-0.7-2.1
						c-0.1-0.3-0.2-0.6-0.3-0.9c-0.3-0.9-0.7-1.9-1.1-2.8c0,0,0-0.1-0.1-0.1c-0.4-1-0.9-1.9-1.4-2.9c-0.1-0.2-0.3-0.5-0.4-0.7
						c-0.5-0.9-1-1.9-1.5-2.8c-0.6-1-1.2-1.9-1.8-2.8c-0.2-0.3-0.3-0.5-0.5-0.8c-0.4-0.7-0.9-1.3-1.3-1.9c-0.2-0.3-0.5-0.6-0.7-1
						c-0.4-0.5-0.8-1-1.2-1.6c-0.3-0.4-0.6-0.8-1-1.2c-0.3-0.4-0.6-0.7-0.9-1.1c-0.6-0.7-1.2-1.3-1.8-1.9c-0.4-0.4-0.8-0.8-1.2-1.2
						c-0.3-0.3-0.6-0.6-0.9-0.9c-0.5-0.4-1-0.8-1.5-1.3c-0.3-0.3-0.6-0.5-0.9-0.8c-0.5-0.4-1.1-0.8-1.6-1.2
						c-0.3-0.2-0.5-0.4-0.8-0.6c-0.8-0.6-1.6-1.1-2.4-1.6l-22.4-12.9l500.5-289l22.4,12.9c0.8,0.5,1.6,1,2.4,1.6
						c0.3,0.2,0.5,0.4,0.8,0.6c0.5,0.4,1.1,0.8,1.6,1.2c0.3,0.2,0.6,0.5,0.9,0.8c0.5,0.4,1,0.8,1.5,1.3c0.3,0.3,0.6,0.6,0.9,0.9
						c0.2,0.2,0.5,0.4,0.7,0.6c0.2,0.2,0.3,0.4,0.5,0.5c0.6,0.6,1.2,1.2,1.8,1.9c0.2,0.2,0.4,0.4,0.6,0.6c0.1,0.1,0.2,0.3,0.3,0.4
						c0.3,0.4,0.7,0.8,1,1.2c0.3,0.3,0.5,0.6,0.8,1c0.1,0.2,0.3,0.4,0.4,0.6c0.2,0.3,0.5,0.6,0.7,1c0.2,0.3,0.4,0.5,0.6,0.8
						c0.2,0.4,0.5,0.7,0.7,1.1c0.2,0.3,0.3,0.5,0.5,0.8c0.1,0.1,0.2,0.3,0.3,0.4c0.5,0.7,0.9,1.5,1.3,2.2c0,0.1,0.1,0.2,0.1,0.2
						c0.4,0.6,0.7,1.3,1.1,2c0.2,0.3,0.3,0.6,0.4,0.9c0.1,0.2,0.3,0.5,0.4,0.7c0.1,0.2,0.2,0.4,0.3,0.6c0.4,0.8,0.7,1.5,1,2.3
						c0,0,0,0,0,0c0,0,0,0.1,0.1,0.1c0.3,0.7,0.6,1.4,0.9,2.2c0.1,0.2,0.1,0.4,0.2,0.6c0.1,0.3,0.2,0.6,0.3,0.9
						c0.1,0.3,0.2,0.6,0.3,1c0.1,0.4,0.2,0.8,0.4,1.1c0.1,0.3,0.2,0.7,0.3,1c0,0.2,0.1,0.3,0.2,0.5c0.1,0.5,0.2,0.9,0.3,1.4
						c0.1,0.4,0.2,0.9,0.3,1.3c0,0.1,0.1,0.2,0.1,0.3c0.1,0.3,0.1,0.6,0.2,0.9c0.2,0.8,0.3,1.6,0.4,2.3c0,0.2,0.1,0.3,0.1,0.5
						c0.1,0.5,0.1,0.9,0.1,1.4c0,0.3,0.1,0.6,0.1,0.9c0.1,1,0.1,1.9,0.1,2.8l0,10.8c0,8.3-3,14.2-7.7,17l-500.5,289
						c4.8-2.8,7.7-8.6,7.7-17l0-10.8c0-0.9,0-1.9-0.1-2.8C886.7,2073,886.6,2072.7,886.6,2072.4z"/>
					<path fill="#F9B142" d="M838.4,1690.4c0-5.3,1.9-9.3,5.1-11.2l500.5-289c-3.3,1.9-5.1,5.9-5.1,11.2l-0.2,327.4l-500.5,289
						L838.4,1690.4z"/>
					<path fill="#F89D1F" d="M813.1,1626.4c-0.5-0.2-0.9-0.3-1.4-0.3c0,0-0.1,0-0.1,0c-0.5,0-0.9,0-1.4,0.1c0,0,0,0-0.1,0
						c-0.4,0.1-0.9,0.2-1.2,0.5l500.5-289c0,0,0,0,0,0c0.1-0.1,0.3-0.1,0.4-0.2c0.1-0.1,0.3-0.1,0.4-0.2c0.1,0,0.2,0,0.3-0.1
						c0,0,0,0,0.1,0c0,0,0.1,0,0.1,0c0.2,0,0.3,0,0.5-0.1c0.2,0,0.4,0,0.6,0c0.1,0,0.1,0,0.2,0c0,0,0.1,0,0.1,0c0.1,0,0.2,0,0.3,0
						c0.2,0,0.5,0.1,0.7,0.2c0.1,0,0.2,0.1,0.3,0.1c0.1,0,0.2,0.1,0.3,0.1c0.1,0,0.2,0.1,0.4,0.1c0.4,0.2,0.8,0.4,1.2,0.6l64.7,37.3
						l-500.5,289l-64.7-37.3c-0.5-0.3-1.1-0.5-1.6-0.7C813.3,1626.4,813.2,1626.4,813.1,1626.4z"/>
					<g>
						<path fill="#FBC977" d="M815,1627.2c-4.7-2.7-8.5-0.5-8.5,4.9l-0.5,438.7l54.3,31.3c14.6,8.4,26.5,1.7,26.6-15.1l0-10.8
							c0-8-2.7-17.3-7.6-25.8c-4.9-8.5-11.6-15.6-18.6-19.6l-22.4-12.9l0.2-327.4c0-5.3,1.9-9.3,5.1-11.2c3.3-1.9,7.7-1.4,12.3,1.3
							l18.4,10.6c7.1,4.1,12.9,0.8,12.9-7.4l0-6.1c0-4.8-3.4-10.7-7.6-13.1L815,1627.2z"/>
					</g>
					<path fill="#F89D1F" d="M887.2,1683.7l0-6.1c0-0.6-0.1-1.2-0.1-1.7c0-0.1,0-0.2,0-0.3c-0.1-0.6-0.2-1.1-0.4-1.7
						c0-0.1,0-0.1,0-0.2c-0.2-0.6-0.4-1.2-0.7-1.8c0,0,0,0,0,0c-0.3-0.6-0.6-1.2-0.9-1.8c0,0,0,0,0-0.1c-0.3-0.6-0.7-1.1-1.1-1.6
						c0,0-0.1-0.1-0.1-0.1c-0.3-0.5-0.7-0.9-1.1-1.3c-0.1-0.1-0.2-0.2-0.3-0.3c-0.3-0.3-0.6-0.6-1-0.9c-0.1-0.1-0.3-0.3-0.4-0.4
						c-0.5-0.4-0.9-0.7-1.4-1l500.5-289c0.5,0.3,1,0.6,1.4,1c0.2,0.1,0.3,0.3,0.4,0.4c0.2,0.2,0.5,0.4,0.7,0.6
						c0.1,0.1,0.2,0.2,0.3,0.3c0.1,0.1,0.2,0.2,0.3,0.3c0.1,0.1,0.2,0.2,0.3,0.3c0.2,0.2,0.4,0.5,0.6,0.8c0.1,0.1,0.1,0.2,0.2,0.3
						c0,0,0.1,0.1,0.1,0.1c0.1,0.1,0.1,0.2,0.2,0.3c0.2,0.2,0.3,0.4,0.4,0.7c0.1,0.2,0.3,0.4,0.4,0.6c0,0,0,0,0,0.1c0,0,0,0,0,0
						c0.1,0.2,0.2,0.4,0.3,0.5c0.1,0.2,0.2,0.4,0.3,0.6c0.1,0.2,0.2,0.4,0.3,0.6c0,0,0,0,0,0c0,0,0,0,0,0c0.1,0.2,0.2,0.5,0.3,0.7
						c0.1,0.2,0.2,0.5,0.3,0.7c0,0.1,0.1,0.2,0.1,0.4c0,0.1,0,0.1,0,0.2c0,0.1,0.1,0.2,0.1,0.3c0.1,0.3,0.2,0.6,0.2,0.9
						c0,0.2,0.1,0.4,0.1,0.5c0,0.1,0,0.2,0,0.3c0,0.1,0,0.2,0,0.3c0.1,0.5,0.1,1,0.1,1.5l0,6.1c0,4.1-1.4,6.9-3.8,8.3l-500.5,289
						C885.8,1690.7,887.2,1687.8,887.2,1683.7z"/>
					<g>
						<path fill="#FF8666" d="M806.5,1616.7c0,3.1,2.2,6.9,4.9,8.5l70.9,41c1.5,0.9,2.9,0.8,3.8,0.1c-0.1,0.1-0.2,0.2-0.3,0.3
							l500.5-289c0.9-0.5,1.4-1.6,1.4-3.1l0.1-28.1c0-0.3,0-0.6-0.1-1c0-0.1,0-0.1,0-0.2c0-0.1,0-0.1,0-0.2c0-0.1,0-0.2-0.1-0.3
							c0-0.2-0.1-0.4-0.1-0.6c0-0.1,0-0.1,0-0.2c0,0,0-0.1,0-0.1c0-0.1,0-0.2-0.1-0.2c-0.1-0.2-0.1-0.3-0.2-0.5
							c-0.1-0.1-0.1-0.3-0.2-0.4c0,0,0,0,0,0c0,0,0,0,0,0c-0.1-0.1-0.1-0.3-0.2-0.4c-0.1-0.1-0.1-0.3-0.2-0.4
							c-0.1-0.1-0.1-0.2-0.2-0.3c0,0,0,0,0,0c0,0,0,0,0,0c-0.1-0.1-0.2-0.3-0.3-0.4c-0.1-0.1-0.2-0.3-0.3-0.4c0-0.1-0.1-0.1-0.1-0.2
							c0,0,0-0.1-0.1-0.1c0-0.1-0.1-0.1-0.1-0.2c-0.1-0.2-0.3-0.3-0.4-0.5c-0.1-0.1-0.1-0.1-0.2-0.2c-0.1-0.1-0.1-0.1-0.2-0.2
							c-0.1-0.1-0.1-0.1-0.2-0.2c-0.1-0.1-0.3-0.3-0.4-0.4c-0.1-0.1-0.2-0.2-0.3-0.2c-0.3-0.2-0.6-0.5-0.9-0.6l-70.9-41
							c-0.2-0.1-0.5-0.2-0.7-0.3c-0.1,0-0.1,0-0.2-0.1c-0.1,0-0.1,0-0.2-0.1c-0.1,0-0.1,0-0.2-0.1c-0.1,0-0.3-0.1-0.4-0.1
							c-0.1,0-0.1,0-0.2,0c0,0,0,0-0.1,0c0,0-0.1,0-0.1,0c-0.1,0-0.2,0-0.3,0c-0.1,0-0.2,0-0.3,0c0,0,0,0-0.1,0c0,0,0,0,0,0
							c-0.1,0-0.1,0-0.2,0c-0.1,0-0.2,0.1-0.3,0.1c-0.1,0-0.2,0.1-0.2,0.1c0,0,0,0,0,0l-500.5,289c0,0,0,0,0,0
							c-0.9,0.5-1.4,1.6-1.4,3.2L806.5,1616.7z"/>
						<path fill="#ED4944" d="M806.5,1616.7c0,3.1,2.2,6.9,4.9,8.4l70.9,41c1.5,0.9,2.9,0.8,3.8,0.1c-0.1,0.1-0.2,0.2-0.3,0.3
							l500.5-289c0.9-0.5,1.4-1.6,1.4-3.1l0.1-28.1c0-0.3,0-0.6,0-1c0-0.1,0-0.1,0-0.2c0,0,0-0.1,0-0.2c0-0.1,0-0.2,0-0.3
							c0-0.1,0-0.1,0-0.2l-483.1,276.8c-12,6.9-26.9,6.7-38.7-0.5l-57.8-35.3l-1.3,1.9c-0.1,0.4-0.1,0.8-0.1,1.3L806.5,1616.7z"/>
					</g>
				</g>
				<g>
					<path fill="#114077" d="M1032.2,1092.5c9.8,8.9,34.7,27.6,46.1,50.5c11.4,22.9,9.2,88.2,13.2,117.7
						c3.9,29.5,13.4,94.2,6.4,128.4c-7,34.2-181.2,158.9-188,165.8c-12,12.4-66.7-24.6-53-40.7c10-11.8,84.2-89.6,95.5-101.5
						c11.4-11.9,50.5-42.9,50.5-42.9s-41.3-113.1-34.9-187.1C974.5,1108.8,1020.9,1082.2,1032.2,1092.5z"/>
					<g>
						<path fill="#F2A29B" d="M854.3,1521.4c0,0-46.1,10.9-71.4,29.5c0,0-22.4,18.5-24.2,21c-1.8,2.5-18.7,29-18.7,29
							s2.7,8.2,16.1,2.7c14.4-5.9,17.8-17.4,17.8-17.4l22.7-14.3c0,0,24,12.9,55.8-11.9C884.2,1535.4,861.4,1518.7,854.3,1521.4z"/>
						<g>
							<path fill="#FFC5B3" d="M856.3,1519.4l-2,2c0,0-31.7,9.2-47.4,19.3s-22.5,14.3-24.1,16c-1.5,1.8-1.9,10.3,0.1,13.2
								c2,2.8,61,28.2,65.5,28.2c4.5,0,26.6-12.3,33.3-17.7c6.8-5.3,20.4-23.9,20.4-23.9l1.7-1.4
								C917.3,1541.9,869,1504.7,856.3,1519.4z"/>
							<path fill="#FFC5B3" d="M782.8,1556.8c-3.5,3.6-22.1,21.8-23,23.2c-0.9,1.4-15.2,24.3-15.7,26c-0.5,1.7-9.3,22.7-10,24.6
								c-0.7,1.8,5.2,6.8,10.5,5.7c5.3-1.1,14.3-18.8,15.6-22.6c0,0,11.7-12.6,15.5-22.4c0,0,19.9-13.4,23.4-17.5
								C805.6,1566.3,790.7,1548.7,782.8,1556.8z"/>
							<path fill="#FFC5B3" d="M796,1565.5c-3.5,3.6-22.4,21.1-23.3,22.6c-0.9,1.4-14,24.4-14.5,26.1c-0.5,1.7-11.4,25.3-12.1,27.1
								c-0.7,1.8,5.2,6.8,10.5,5.7c5.3-1.1,14.3-18.8,15.6-22.6c0,0,11.7-12.6,15.5-22.4c0,0,21.5-17.3,25.1-21.4
								C819.4,1573,804,1557.4,796,1565.5z"/>
							<path fill="#FFC5B3" d="M814,1575.3c-3.5,3.6-21.5,23.1-22.4,24.5c-0.9,1.4-13.5,25.2-14.1,26.9c-0.5,1.7-6,21.5-6.7,23.3
								c-0.7,1.8,4.9,6,10.2,4.9c5.3-1.1,11.3-16.7,12.6-20.4c0,0,9.8-13.2,13.2-19.9c0,0,20.3-19.7,23.9-23.8
								C837.3,1583.3,821.9,1567.2,814,1575.3z"/>
							<path fill="#FFC5B3" d="M835.8,1581.3c-3.5,3.7-19.1,22.3-20,23.7c-0.9,1.4-12.9,21.1-13.4,22.8c-0.5,1.7-6.6,17.1-7.3,18.9
								c-0.7,1.8,2.4,6.6,7.8,5.5c5.3-1.1,11.7-12,12.9-15.7c0,0,10.5-13.2,13.2-17.7c0,0,18.3-17.1,21.9-21.2
								C857.4,1590.1,841.8,1574.9,835.8,1581.3z"/>
						</g>
					</g>
				</g>
			</g>
		</g>
		<g>
			<g>
				<g>
					<g>
						<path fill="#EF9D1D" d="M692.3,484c0-0.6,0.1-1.2,0.1-1.8c0.1-0.7,0.1-1.4,0.2-2.1c0.1-0.6,0.1-1.2,0.2-1.8
							c0.1-0.7,0.2-1.4,0.3-2.1c0.1-0.6,0.2-1.2,0.3-1.8c0.1-0.7,0.3-1.4,0.4-2.2c0.1-0.6,0.2-1.2,0.3-1.7c0.1-0.7,0.3-1.4,0.5-2.1
							c0.1-0.6,0.3-1.2,0.4-1.7c0.2-0.7,0.4-1.4,0.6-2.2c0.2-0.6,0.3-1.1,0.5-1.7c0.2-0.7,0.5-1.5,0.7-2.2c0.2-0.5,0.3-1.1,0.5-1.6
							c0.3-0.8,0.5-1.6,0.8-2.3c0.2-0.5,0.3-1,0.5-1.5c0.5-1.3,1-2.6,1.5-3.9c0-0.1,0.1-0.2,0.1-0.3c0.5-1.2,1-2.4,1.6-3.5
							c0.2-0.4,0.4-0.9,0.6-1.3c0.4-0.8,0.8-1.7,1.2-2.5c0.3-0.5,0.5-1,0.8-1.5c0.4-0.8,0.8-1.5,1.2-2.3c0.3-0.5,0.5-0.9,0.8-1.4
							c0.5-0.9,1-1.7,1.5-2.6c0.3-0.5,0.6-1,1-1.5c0.5-0.8,1-1.6,1.6-2.4c0.3-0.5,0.7-1.1,1.1-1.6c0.5-0.8,1.1-1.6,1.7-2.4
							c0.4-0.5,0.7-1,1.1-1.5c0.6-0.8,1.2-1.6,1.9-2.4c0.4-0.5,0.7-0.9,1.1-1.4c1.1-1.4,2.3-2.8,3.5-4.2c0.2-0.3,0.5-0.5,0.7-0.8
							c1-1.1,2-2.3,3.1-3.4c0.4-0.4,0.8-0.9,1.2-1.3c1-1.1,2-2.1,3-3.2c0.3-0.3,0.7-0.7,1-1c1.4-1.4,2.8-2.7,4.2-4
							c0.5-0.5,1.1-1,1.7-1.5c0.7-0.6,1.3-1.2,2-1.8c0.6-0.5,1.2-1,1.8-1.5c0.7-0.6,1.4-1.2,2.1-1.8c0.6-0.5,1.3-1,1.9-1.5
							c0.7-0.6,1.4-1.2,2.2-1.7c0.7-0.5,1.3-1,2-1.5c0.7-0.6,1.5-1.1,2.2-1.7c0.7-0.5,1.4-1,2.1-1.5c0.8-0.6,1.5-1.1,2.3-1.7
							c0.7-0.5,1.4-1,2.2-1.5c0.8-0.5,1.6-1.1,2.4-1.6c0.7-0.5,1.5-1,2.2-1.5c0.8-0.5,1.6-1.1,2.5-1.6c0.8-0.5,1.5-1,2.3-1.5
							c0.8-0.5,1.7-1.1,2.6-1.6c1.4-0.8,2.7-1.7,4.1-2.5c2.1-1.2,4.2-2.4,6.3-3.5c0.6-0.3,1.2-0.7,1.8-1c1.7-0.9,3.4-1.8,5.1-2.7
							c0.5-0.3,1-0.5,1.5-0.8c2.2-1.1,4.3-2.2,6.6-3.2c0.4-0.2,0.8-0.3,1.1-0.5c1.9-0.9,3.8-1.7,5.7-2.6c0.7-0.3,1.4-0.6,2-0.9
							c1.8-0.8,3.7-1.6,5.5-2.3c0.5-0.2,1-0.4,1.5-0.6c2.3-0.9,4.6-1.8,7-2.7c0.4-0.2,0.9-0.3,1.4-0.5c2-0.7,3.9-1.5,5.9-2.2
							c0.7-0.3,1.4-0.5,2.1-0.7c2.1-0.7,4.3-1.5,6.5-2.2c0.3-0.1,0.5-0.2,0.8-0.3c2-0.7,4.1-1.3,6.2-1.9c0.1,0,0.3-0.1,0.4-0.1
							c1.9-0.6,3.9-1.2,5.8-1.7c0.7-0.2,1.5-0.4,2.2-0.6c1.4-0.4,2.7-0.8,4.1-1.1c0.9-0.2,1.7-0.4,2.6-0.7c1.3-0.3,2.5-0.7,3.8-1
							c0.9-0.2,1.8-0.4,2.7-0.7c1.2-0.3,2.5-0.6,3.7-0.9c0.9-0.2,1.9-0.4,2.9-0.6c1.2-0.3,2.4-0.5,3.6-0.8c1-0.2,2-0.4,2.9-0.6
							c1.2-0.2,2.4-0.5,3.6-0.7c1-0.2,2-0.4,3-0.6c1.2-0.2,2.4-0.5,3.6-0.7c0.9-0.2,1.7-0.3,2.6-0.5c2-0.4,4-0.7,6.1-1
							c0.7-0.1,1.3-0.2,2-0.3c2.6-0.4,5.2-0.8,7.9-1.2c0.5-0.1,1.1-0.1,1.6-0.2c2.2-0.3,4.3-0.6,6.5-0.8c0.8-0.1,1.6-0.2,2.4-0.3
							c2.2-0.3,4.4-0.5,6.5-0.7c0.5-0.1,1.1-0.1,1.6-0.2c2.4-0.2,4.8-0.5,7.2-0.7c0.3,0,0.6,0,1-0.1c2.1-0.2,4.2-0.3,6.3-0.5
							c0.8-0.1,1.6-0.1,2.4-0.2c1.6-0.1,3.2-0.2,4.8-0.3c0.9,0,1.9-0.1,2.8-0.1c1.5-0.1,3-0.1,4.5-0.2c1,0,2-0.1,3-0.1
							c1.3,0,2.5-0.1,3.8-0.1c1,0,2.1,0,3.1-0.1c1.3,0,2.6,0,3.8,0c1,0,2,0,3.1,0c1.3,0,2.6,0,3.9,0c1,0,2,0,3,0c1.3,0,2.7,0,4,0.1
							c1,0,1.9,0,2.9,0.1c1.2,0,2.5,0.1,3.7,0.1c1,0,2.1,0.1,3.1,0.1c1.2,0.1,2.5,0.1,3.7,0.2c1,0,2,0.1,3,0.1
							c1.3,0.1,2.6,0.2,3.8,0.2c1,0.1,1.9,0.1,2.9,0.2c1.3,0.1,2.7,0.2,4,0.3c0.9,0.1,1.8,0.1,2.7,0.2c1.4,0.1,2.9,0.3,4.3,0.4
							c0.8,0.1,1.6,0.1,2.4,0.2c1.9,0.2,3.8,0.4,5.7,0.6c0.3,0,0.7,0.1,1,0.1c2.2,0.2,4.4,0.5,6.7,0.8c0.7,0.1,1.4,0.2,2,0.3
							c1.5,0.2,3.1,0.4,4.6,0.6c0.7,0.1,1.3,0.2,2,0.3c1.6,0.2,3.1,0.5,4.7,0.7c0.9,0.1,1.7,0.3,2.6,0.4c1.4,0.2,2.7,0.4,4.1,0.7
							c0.9,0.2,1.9,0.3,2.8,0.5c1.3,0.2,2.6,0.5,3.9,0.7c1,0.2,1.9,0.4,2.9,0.6c1.2,0.2,2.5,0.5,3.7,0.7c0.9,0.2,1.8,0.4,2.7,0.6
							c1.4,0.3,2.9,0.6,4.3,0.9c0.9,0.2,1.8,0.4,2.7,0.6c1.4,0.3,2.8,0.7,4.2,1c0.9,0.2,1.8,0.4,2.6,0.6c1.5,0.4,3,0.8,4.5,1.1
							c0.8,0.2,1.5,0.4,2.3,0.6c2,0.5,3.9,1.1,5.9,1.6c0.3,0.1,0.6,0.2,0.8,0.2c2.6,0.7,5.1,1.5,7.7,2.3c0.8,0.3,1.7,0.5,2.5,0.8
							c2,0.6,4.1,1.3,6.1,2c0.4,0.1,0.8,0.3,1.3,0.4c2.5,0.8,4.9,1.7,7.4,2.6c0.5,0.2,0.9,0.3,1.4,0.5c2,0.7,4,1.5,6,2.3
							c0.8,0.3,1.6,0.6,2.5,1c0.8,0.3,1.6,0.6,2.4,1c1,0.4,2.1,0.9,3.1,1.3c0.8,0.3,1.6,0.7,2.4,1c1,0.4,2,0.9,3,1.3
							c0.8,0.3,1.6,0.7,2.3,1c1,0.5,2,0.9,3,1.4c0.8,0.4,1.5,0.7,2.3,1.1c1,0.5,2,1,3,1.5c0.7,0.4,1.5,0.7,2.2,1.1
							c1,0.5,2.1,1,3.1,1.6c0.7,0.3,1.4,0.7,2,1c1.1,0.6,2.2,1.2,3.4,1.8c0.6,0.3,1.1,0.6,1.7,0.9c1.7,0.9,3.3,1.8,4.9,2.8
							c54.6,31.5,81.9,73,81.8,114.5l0.2-58.6c0.1-41.4-27.2-82.9-81.8-114.5c-1.6-0.9-3.3-1.9-4.9-2.8c-0.6-0.3-1.1-0.6-1.7-0.9
							c-1.1-0.6-2.2-1.2-3.4-1.8c-0.7-0.4-1.3-0.7-2-1c-1-0.5-2.1-1.1-3.1-1.6c-0.7-0.4-1.5-0.7-2.2-1.1c-1-0.5-2-1-3-1.5
							c-0.8-0.4-1.5-0.7-2.3-1.1c-1-0.5-2-0.9-3-1.4c-0.8-0.4-1.6-0.7-2.3-1c-1-0.4-2-0.9-3-1.3c-0.8-0.3-1.6-0.7-2.4-1
							c-1-0.4-2.1-0.9-3.1-1.3c-0.8-0.3-1.6-0.6-2.4-1c-0.4-0.1-0.7-0.3-1.1-0.4c-0.4-0.2-0.9-0.3-1.3-0.5c-1.5-0.6-3-1.2-4.5-1.7
							c-1-0.3-2-0.7-3-1.1c-2.4-0.9-4.9-1.8-7.4-2.6c-0.4-0.1-0.8-0.3-1.3-0.4c-2-0.7-4-1.3-6.1-2c-0.8-0.3-1.7-0.5-2.5-0.8
							c-2.5-0.8-5.1-1.5-7.7-2.3c0,0,0,0-0.1,0c-0.3-0.1-0.5-0.1-0.8-0.2c-1.9-0.5-3.9-1.1-5.8-1.6c-0.8-0.2-1.5-0.4-2.3-0.6
							c-1.5-0.4-3-0.8-4.5-1.1c-0.9-0.2-1.8-0.4-2.6-0.6c-1.4-0.3-2.8-0.7-4.2-1c-0.9-0.2-1.8-0.4-2.7-0.6c-1.4-0.3-2.9-0.6-4.3-0.9
							c-0.6-0.1-1.1-0.2-1.7-0.4c-0.3-0.1-0.7-0.1-1-0.2c-1.2-0.3-2.5-0.5-3.7-0.7c-1-0.2-1.9-0.4-2.9-0.6c-1.3-0.2-2.6-0.5-3.9-0.7
							c-0.9-0.2-1.9-0.3-2.8-0.5c-1.4-0.2-2.7-0.5-4.1-0.7c-0.9-0.1-1.7-0.3-2.6-0.4c-1.6-0.2-3.1-0.5-4.7-0.7
							c-0.6-0.1-1.2-0.2-1.9-0.3c-0.1,0-0.1,0-0.2,0c-1.5-0.2-3-0.4-4.6-0.6c-0.7-0.1-1.4-0.2-2.1-0.3c-2.2-0.3-4.4-0.5-6.7-0.8
							c-0.3,0-0.7-0.1-1-0.1c-1.9-0.2-3.8-0.4-5.7-0.6c-0.8-0.1-1.6-0.1-2.4-0.2c-1.4-0.1-2.9-0.3-4.3-0.4c-0.1,0-0.1,0-0.2,0
							c-0.8-0.1-1.7-0.1-2.5-0.2c-1.3-0.1-2.7-0.2-4-0.3c-1-0.1-1.9-0.1-2.9-0.2c-1.3-0.1-2.6-0.2-3.8-0.2c-1-0.1-2-0.1-3-0.1
							c-1.2-0.1-2.5-0.1-3.7-0.2c-1,0-2.1-0.1-3.1-0.1c-1.2,0-2.5-0.1-3.7-0.1c-0.2,0-0.4,0-0.6,0c-0.8,0-1.5,0-2.3,0
							c-1.3,0-2.7-0.1-4-0.1c-1,0-2,0-3,0c-1.3,0-2.6,0-3.9,0c-1,0-2,0-3.1,0c-1.3,0-2.6,0-3.8,0c-1,0-2.1,0-3.1,0.1
							c-1.3,0-2.5,0.1-3.8,0.1c-0.5,0-1,0-1.5,0c-0.5,0-1,0-1.5,0.1c-1.5,0.1-3,0.1-4.5,0.2c-0.9,0-1.9,0.1-2.8,0.1
							c-1.6,0.1-3.2,0.2-4.8,0.3c-0.8,0.1-1.6,0.1-2.4,0.2c-2.1,0.1-4.2,0.3-6.3,0.5c-0.3,0-0.6,0-1,0.1c-2.4,0.2-4.8,0.4-7.2,0.7
							c-0.1,0-0.3,0-0.4,0c-0.4,0-0.8,0.1-1.2,0.1c-2.2,0.2-4.4,0.5-6.5,0.7c-0.8,0.1-1.6,0.2-2.4,0.3c-2.2,0.3-4.3,0.5-6.5,0.8
							c-0.5,0.1-1.1,0.1-1.6,0.2c-2.6,0.4-5.3,0.8-7.9,1.2c-0.6,0.1-1.1,0.2-1.7,0.3c-2,0.3-4,0.6-6,1c-0.6,0.1-1.1,0.2-1.7,0.3
							c-0.4,0.1-0.8,0.2-1.3,0.2c-1.2,0.2-2.4,0.4-3.6,0.7c-1,0.2-2,0.4-3,0.6c-1.2,0.2-2.4,0.5-3.6,0.7c-1,0.2-2,0.4-2.9,0.6
							c-1.2,0.3-2.4,0.5-3.6,0.8c-1,0.2-1.9,0.4-2.9,0.6c-1.2,0.3-2.5,0.6-3.7,0.9c-0.9,0.2-1.8,0.4-2.7,0.7c-1.3,0.3-2.5,0.7-3.8,1
							c-0.9,0.2-1.7,0.4-2.6,0.7c-1.4,0.4-2.8,0.8-4.1,1.1c-0.7,0.2-1.5,0.4-2.2,0.6c-2,0.6-4,1.2-6,1.8c-0.1,0-0.1,0-0.2,0.1
							c-2.1,0.6-4.1,1.3-6.2,1.9c-0.1,0-0.1,0-0.2,0c-0.2,0.1-0.4,0.1-0.6,0.2c-2.2,0.7-4.4,1.4-6.5,2.2c-0.7,0.2-1.4,0.5-2.1,0.7
							c-1.9,0.7-3.7,1.3-5.6,2c-0.6,0.2-1.1,0.4-1.7,0.6c-2.3,0.9-4.7,1.8-7,2.7c-0.5,0.2-1,0.4-1.5,0.6c-1.9,0.8-3.7,1.5-5.5,2.3
							c-0.7,0.3-1.4,0.6-2,0.9c-1.9,0.8-3.8,1.7-5.7,2.6c-0.4,0.2-0.8,0.3-1.1,0.5c-2.2,1-4.4,2.1-6.6,3.2c-0.4,0.2-0.8,0.4-1.3,0.6
							c-1.8,0.9-3.6,1.8-5.3,2.8c-0.6,0.3-1.3,0.7-1.9,1c-2.1,1.2-4.2,2.3-6.3,3.5c-1.1,0.7-2.3,1.3-3.4,2c-0.3,0.2-0.5,0.3-0.8,0.5
							c-0.9,0.5-1.7,1-2.6,1.6c-0.8,0.5-1.6,1-2.3,1.5c-0.8,0.5-1.7,1.1-2.5,1.6c-0.7,0.5-1.5,1-2.2,1.5c-0.8,0.5-1.6,1.1-2.4,1.6
							c-0.7,0.5-1.4,1-2.2,1.5c-0.8,0.6-1.5,1.1-2.3,1.7c-0.7,0.5-1.4,1-2.1,1.5c-0.8,0.6-1.5,1.1-2.2,1.7c-0.7,0.5-1.3,1-2,1.5
							c-0.7,0.6-1.4,1.2-2.2,1.7c-0.6,0.5-1.3,1-1.9,1.5c-0.7,0.6-1.4,1.2-2.1,1.8c-0.6,0.5-1.2,1-1.8,1.5c-0.7,0.6-1.4,1.2-2,1.8
							c-0.5,0.4-1,0.9-1.5,1.3c-0.1,0.1-0.1,0.1-0.2,0.2c-1.4,1.3-2.9,2.7-4.2,4c-0.3,0.3-0.7,0.7-1,1c-1,1-2.1,2.1-3,3.2
							c-0.4,0.4-0.8,0.9-1.2,1.3c-1,1.1-2.1,2.3-3.1,3.4c-0.2,0.3-0.5,0.5-0.7,0.8c-1.2,1.4-2.4,2.8-3.5,4.2
							c-0.1,0.1-0.2,0.2-0.3,0.3c-0.3,0.3-0.5,0.7-0.8,1c-0.6,0.8-1.3,1.6-1.9,2.5c-0.4,0.5-0.7,1-1.1,1.5c-0.6,0.8-1.1,1.6-1.7,2.4
							c-0.4,0.5-0.7,1-1.1,1.6c-0.5,0.8-1,1.6-1.6,2.4c-0.3,0.5-0.7,1-1,1.5c-0.5,0.9-1,1.7-1.5,2.6c-0.2,0.4-0.4,0.7-0.6,1.1
							c-0.1,0.1-0.1,0.2-0.2,0.3c-0.4,0.8-0.8,1.5-1.2,2.3c-0.3,0.5-0.6,1-0.8,1.5c-0.4,0.8-0.8,1.7-1.2,2.5
							c-0.2,0.4-0.4,0.9-0.6,1.3c-0.5,1.2-1.1,2.4-1.6,3.5c0,0.1-0.1,0.2-0.1,0.3c-0.5,1.3-1.1,2.6-1.5,3.9c0,0,0,0.1,0,0.1
							c-0.2,0.5-0.3,0.9-0.5,1.4c-0.3,0.8-0.6,1.6-0.8,2.3c-0.2,0.5-0.3,1.1-0.5,1.6c-0.2,0.7-0.5,1.5-0.7,2.2
							c-0.2,0.6-0.3,1.1-0.5,1.7c-0.2,0.7-0.4,1.4-0.6,2.2c-0.1,0.6-0.3,1.2-0.4,1.7c-0.2,0.7-0.3,1.4-0.5,2.1
							c0,0.1-0.1,0.2-0.1,0.4c-0.1,0.5-0.2,0.9-0.2,1.4c-0.1,0.7-0.3,1.4-0.4,2.2c-0.1,0.6-0.2,1.2-0.3,1.8
							c-0.1,0.7-0.2,1.4-0.3,2.1c-0.1,0.6-0.1,1.2-0.2,1.8c-0.1,0.7-0.1,1.4-0.2,2.1c0,0.6-0.1,1.2-0.1,1.8c0,0.7-0.1,1.4-0.1,2.1
							c0,0.2,0,0.4,0,0.7c0,0.8,0,1.6,0,2.4l-0.2,58.6c0-1,0-2.1,0.1-3.1C692.2,485.4,692.2,484.7,692.3,484z"/>
						<path fill="#FBC977" d="M1275.1,432.3c0,1.1,0,2.3-0.1,3.4c0,0.8-0.1,1.5-0.1,2.3c0,0.7-0.1,1.3-0.1,2
							c-0.1,0.8-0.1,1.6-0.2,2.3c-0.1,0.7-0.1,1.3-0.2,2c-0.1,0.8-0.2,1.6-0.3,2.4c-0.1,0.7-0.2,1.3-0.3,2c-0.1,0.8-0.3,1.6-0.4,2.4
							c-0.1,0.6-0.2,1.3-0.4,1.9c-0.2,0.8-0.3,1.6-0.5,2.3c-0.1,0.6-0.3,1.3-0.4,1.9c-0.2,0.8-0.4,1.6-0.6,2.4
							c-0.2,0.6-0.3,1.3-0.5,1.9c-0.2,0.8-0.5,1.6-0.8,2.4c-0.2,0.6-0.4,1.2-0.6,1.8c-0.3,0.9-0.6,1.7-0.9,2.6
							c-0.2,0.5-0.4,1.1-0.6,1.6c-0.5,1.4-1.1,2.9-1.7,4.3c0,0.1-0.1,0.2-0.1,0.3c-0.6,1.3-1.1,2.6-1.7,3.9c-0.2,0.5-0.5,1-0.7,1.4
							c-0.4,0.9-0.9,1.9-1.4,2.8c-0.3,0.6-0.6,1.1-0.9,1.7c-0.4,0.8-0.9,1.7-1.4,2.5c-0.3,0.5-0.6,1-0.9,1.6
							c-0.5,0.9-1.1,1.9-1.7,2.8c-0.3,0.6-0.7,1.1-1.1,1.7c-0.6,0.9-1.1,1.8-1.7,2.7c-0.4,0.6-0.8,1.2-1.2,1.7
							c-0.6,0.9-1.2,1.8-1.8,2.6c-0.4,0.6-0.8,1.1-1.2,1.7c-0.7,0.9-1.4,1.8-2.1,2.7c-0.4,0.5-0.8,1-1.2,1.5
							c-1.2,1.6-2.5,3.1-3.8,4.7c-0.3,0.3-0.5,0.6-0.8,0.9c-1.1,1.3-2.2,2.5-3.4,3.8c-0.4,0.5-0.9,0.9-1.3,1.4
							c-1.1,1.2-2.2,2.3-3.4,3.5c-0.4,0.4-0.8,0.8-1.1,1.2c-1.5,1.5-3.1,3-4.7,4.5c-0.6,0.6-1.2,1.1-1.8,1.7c-0.7,0.7-1.5,1.4-2.3,2
							c-0.7,0.6-1.3,1.1-2,1.7c-0.8,0.7-1.5,1.3-2.3,2c-0.7,0.6-1.4,1.1-2.1,1.7c-0.8,0.6-1.6,1.3-2.4,1.9c-0.7,0.6-1.4,1.1-2.2,1.7
							c-0.8,0.6-1.6,1.3-2.5,1.9c-0.7,0.6-1.5,1.1-2.3,1.7c-0.9,0.6-1.7,1.2-2.6,1.9c-0.8,0.6-1.6,1.1-2.4,1.6
							c-0.9,0.6-1.8,1.2-2.7,1.8c-0.8,0.5-1.6,1.1-2.5,1.6c-0.9,0.6-1.8,1.2-2.7,1.8c-0.8,0.5-1.7,1.1-2.6,1.6
							c-0.9,0.6-1.9,1.2-2.8,1.7c-1.5,0.9-3,1.8-4.6,2.7c-2.3,1.3-4.6,2.6-6.9,3.9c-0.7,0.4-1.4,0.7-2,1.1c-1.9,1-3.7,2-5.6,2.9
							c-0.6,0.3-1.2,0.6-1.7,0.9c-2.4,1.2-4.8,2.4-7.2,3.5c-0.4,0.2-0.8,0.4-1.2,0.6c-2.1,1-4.2,1.9-6.3,2.8c-0.7,0.3-1.5,0.7-2.2,1
							c-2,0.9-4,1.7-6.1,2.6c-0.5,0.2-1.1,0.5-1.6,0.7c-2.5,1-5.1,2-7.7,3c-0.5,0.2-1,0.4-1.4,0.5c-2.2,0.8-4.4,1.6-6.6,2.4
							c-0.8,0.3-1.6,0.6-2.3,0.8c-2.4,0.8-4.8,1.6-7.2,2.4c-0.3,0.1-0.6,0.2-0.9,0.3c-2.3,0.7-4.5,1.4-6.8,2.1
							c-0.1,0-0.2,0.1-0.3,0.1c-2.2,0.7-4.4,1.3-6.6,2c-0.8,0.2-1.5,0.4-2.3,0.6c-1.5,0.4-3.1,0.9-4.7,1.3c-0.9,0.2-1.9,0.5-2.8,0.7
							c-1.4,0.4-2.8,0.7-4.2,1.1c-1,0.3-2,0.5-3,0.7c-1.4,0.3-2.7,0.7-4.1,1c-1,0.2-2.1,0.5-3.2,0.7c-1.3,0.3-2.7,0.6-4,0.9
							c-1.1,0.2-2.2,0.5-3.2,0.7c-1.3,0.3-2.7,0.6-4,0.8c-1.1,0.2-2.2,0.4-3.3,0.6c-1.3,0.3-2.6,0.5-4,0.7c-0.9,0.2-1.9,0.3-2.8,0.5
							c-2.2,0.4-4.5,0.8-6.7,1.1c-0.7,0.1-1.5,0.2-2.2,0.4c-2.9,0.5-5.8,0.9-8.7,1.3c-0.6,0.1-1.2,0.2-1.8,0.2
							c-2.4,0.3-4.8,0.6-7.1,0.9c-0.9,0.1-1.8,0.2-2.7,0.3c-2.4,0.3-4.8,0.5-7.2,0.8c-0.6,0.1-1.2,0.1-1.8,0.2
							c-2.6,0.3-5.3,0.5-7.9,0.7c-0.3,0-0.7,0-1,0.1c-2.3,0.2-4.6,0.4-7,0.5c-0.9,0.1-1.8,0.1-2.7,0.2c-1.8,0.1-3.5,0.2-5.3,0.3
							c-1,0.1-2,0.1-3.1,0.1c-1.7,0.1-3.3,0.1-5,0.2c-1.1,0-2.2,0.1-3.3,0.1c-1.4,0-2.8,0.1-4.2,0.1c-1.1,0-2.3,0.1-3.4,0.1
							c-1.4,0-2.8,0-4.3,0.1c-1.1,0-2.2,0-3.4,0c-1.4,0-2.9,0-4.3,0c-1.1,0-2.2,0-3.3,0c-1.5,0-3,0-4.4-0.1c-1.1,0-2.1,0-3.2-0.1
							c-1.4,0-2.7-0.1-4.1-0.1c-1.1,0-2.2-0.1-3.4-0.1c-1.4-0.1-2.8-0.1-4.2-0.2c-1.1-0.1-2.2-0.1-3.3-0.2c-1.4-0.1-2.8-0.2-4.3-0.3
							c-1.1-0.1-2.1-0.1-3.2-0.2c-1.5-0.1-3-0.2-4.4-0.3c-1-0.1-2-0.1-3-0.2c-1.6-0.1-3.2-0.3-4.8-0.4c-0.9-0.1-1.8-0.2-2.6-0.2
							c-2-0.2-4.1-0.4-6.1-0.6c-0.4,0-0.9-0.1-1.3-0.1c-2.5-0.3-4.9-0.6-7.4-0.9c-0.7-0.1-1.4-0.2-2.1-0.3c-1.7-0.2-3.5-0.5-5.2-0.7
							c-0.7-0.1-1.4-0.2-2.2-0.3c-1.8-0.3-3.5-0.5-5.3-0.8c-0.9-0.1-1.9-0.3-2.8-0.5c-1.5-0.2-3.1-0.5-4.6-0.8c-1-0.2-2-0.4-3-0.5
							c-1.4-0.3-2.9-0.5-4.3-0.8c-1.1-0.2-2.1-0.4-3.2-0.6c-1.4-0.3-2.8-0.5-4.1-0.8c-1-0.2-2-0.4-3-0.6c-1.6-0.3-3.2-0.7-4.7-1
							c-1-0.2-2-0.4-3-0.7c-1.6-0.4-3.1-0.7-4.7-1.1c-1-0.2-1.9-0.5-2.9-0.7c-1.7-0.4-3.3-0.8-5-1.3c-0.8-0.2-1.7-0.4-2.5-0.7
							c-2.2-0.6-4.3-1.2-6.5-1.8c-0.3-0.1-0.6-0.2-0.9-0.3c-2.8-0.8-5.7-1.7-8.5-2.5c-0.9-0.3-1.9-0.6-2.8-0.9
							c-2.2-0.7-4.4-1.4-6.7-2.2c-0.5-0.2-0.9-0.3-1.4-0.5c-2.7-0.9-5.5-1.9-8.2-2.9c-0.5-0.2-1-0.4-1.5-0.6
							c-2.2-0.8-4.4-1.6-6.6-2.5c-0.9-0.4-1.8-0.7-2.7-1.1c-0.9-0.4-1.8-0.7-2.6-1.1c-1.1-0.5-2.3-0.9-3.4-1.4
							c-0.9-0.4-1.8-0.7-2.6-1.1c-1.1-0.5-2.2-1-3.3-1.5c-0.9-0.4-1.7-0.8-2.6-1.2c-1.1-0.5-2.2-1-3.3-1.5c-0.8-0.4-1.7-0.8-2.5-1.2
							c-1.1-0.5-2.2-1.1-3.3-1.6c-0.8-0.4-1.6-0.8-2.4-1.2c-1.1-0.6-2.3-1.2-3.4-1.7c-0.7-0.4-1.5-0.8-2.2-1.1
							c-1.2-0.7-2.5-1.3-3.7-2c-0.6-0.3-1.2-0.7-1.9-1c-1.8-1-3.7-2-5.5-3.1c-57.1-36-89.5-78.1-89.8-125.5l-0.8,58.6
							c0.3,47.4,32.4,92,90.4,125.5c1.8,1,3.6,2.1,5.5,3.1c0.6,0.3,1.2,0.7,1.9,1c1.2,0.7,2.5,1.3,3.7,2c0.7,0.4,1.5,0.8,2.2,1.2
							c1.1,0.6,2.3,1.2,3.4,1.7c0.8,0.4,1.6,0.8,2.4,1.2c1.1,0.5,2.2,1.1,3.3,1.6c0.8,0.4,1.7,0.8,2.5,1.2c1.1,0.5,2.2,1,3.3,1.5
							c0.9,0.4,1.7,0.8,2.6,1.2c1.1,0.5,2.2,1,3.3,1.5c0.9,0.4,1.8,0.7,2.6,1.1c1.1,0.5,2.3,0.9,3.4,1.4c0.9,0.4,1.8,0.7,2.6,1.1
							c0.4,0.2,0.8,0.3,1.2,0.5c0.5,0.2,1,0.4,1.4,0.5c1.6,0.7,3.3,1.3,4.9,1.9c1.1,0.4,2.2,0.8,3.3,1.2c2.7,1,5.4,1.9,8.2,2.9
							c0.5,0.2,0.9,0.3,1.4,0.5c2.2,0.7,4.4,1.5,6.7,2.2c0.9,0.3,1.9,0.6,2.8,0.9c2.8,0.9,5.6,1.7,8.5,2.5c0,0,0.1,0,0.1,0
							c0.3,0.1,0.6,0.2,0.8,0.2c2.1,0.6,4.3,1.2,6.5,1.8c0.8,0.2,1.7,0.4,2.5,0.7c1.6,0.4,3.3,0.9,5,1.3c1,0.2,1.9,0.5,2.9,0.7
							c1.6,0.4,3.1,0.7,4.7,1.1c1,0.2,2,0.5,3,0.7c1.6,0.4,3.2,0.7,4.7,1c0.6,0.1,1.2,0.3,1.9,0.4c0.4,0.1,0.7,0.1,1.1,0.2
							c1.4,0.3,2.8,0.6,4.1,0.8c1.1,0.2,2.1,0.4,3.2,0.6c1.4,0.3,2.9,0.5,4.3,0.8c1,0.2,2,0.4,3,0.5c1.5,0.3,3.1,0.5,4.6,0.8
							c0.9,0.2,1.9,0.3,2.8,0.5c1.8,0.3,3.5,0.5,5.3,0.8c0.7,0.1,1.3,0.2,2,0.3c0.1,0,0.1,0,0.2,0c1.7,0.2,3.5,0.5,5.2,0.7
							c0.7,0.1,1.4,0.2,2.1,0.3c2.4,0.3,4.9,0.6,7.4,0.9c0.4,0,0.8,0.1,1.3,0.1c2,0.2,4.1,0.4,6.1,0.6c0.9,0.1,1.8,0.2,2.6,0.2
							c1.6,0.1,3.2,0.3,4.8,0.4c0.1,0,0.2,0,0.2,0c0.9,0.1,1.8,0.1,2.7,0.2c1.5,0.1,3,0.2,4.5,0.3c1.1,0.1,2.1,0.1,3.2,0.2
							c1.4,0.1,2.8,0.2,4.3,0.3c1.1,0.1,2.2,0.1,3.3,0.2c1.4,0.1,2.8,0.1,4.2,0.2c1.1,0,2.2,0.1,3.4,0.1c1.4,0,2.7,0.1,4.1,0.1
							c0.2,0,0.5,0,0.7,0c0.8,0,1.7,0,2.5,0c1.5,0,3,0.1,4.4,0.1c1.1,0,2.2,0,3.3,0c1.4,0,2.9,0,4.3,0c1.1,0,2.2,0,3.4,0
							c1.4,0,2.8,0,4.3-0.1c1.1,0,2.3,0,3.4-0.1c1.4,0,2.8-0.1,4.2-0.1c0.5,0,1.1,0,1.6,0c0.5,0,1.1,0,1.6-0.1
							c1.7-0.1,3.3-0.1,5-0.2c1,0,2-0.1,3.1-0.1c1.8-0.1,3.5-0.2,5.3-0.3c0.9-0.1,1.8-0.1,2.7-0.2c2.3-0.2,4.6-0.3,7-0.5
							c0.3,0,0.7,0,1-0.1c2.6-0.2,5.3-0.5,7.9-0.7c0.2,0,0.3,0,0.5,0c0.4,0,0.9-0.1,1.3-0.1c2.4-0.2,4.8-0.5,7.2-0.8
							c0.9-0.1,1.8-0.2,2.7-0.3c2.4-0.3,4.8-0.6,7.1-0.9c0.6-0.1,1.2-0.2,1.8-0.2c2.9-0.4,5.8-0.8,8.7-1.3c0.6-0.1,1.2-0.2,1.8-0.3
							c2.2-0.4,4.5-0.7,6.7-1.1c0.6-0.1,1.3-0.2,1.9-0.3c0.5-0.1,0.9-0.2,1.4-0.3c1.3-0.2,2.7-0.5,4-0.7c1.1-0.2,2.2-0.4,3.3-0.6
							c1.3-0.3,2.7-0.5,4-0.8c1.1-0.2,2.2-0.4,3.2-0.7c1.3-0.3,2.7-0.6,4-0.9c1-0.2,2.1-0.5,3.1-0.7c1.4-0.3,2.7-0.7,4.1-1
							c1-0.2,2-0.5,3-0.7c1.4-0.4,2.8-0.7,4.2-1.1c0.9-0.2,1.9-0.5,2.8-0.7c1.6-0.4,3.1-0.9,4.7-1.3c0.8-0.2,1.5-0.4,2.3-0.6
							c2.2-0.6,4.4-1.3,6.6-2c0.1,0,0.2-0.1,0.3-0.1c2.3-0.7,4.6-1.4,6.8-2.1c0.1,0,0.1,0,0.2-0.1c0.2-0.1,0.5-0.2,0.7-0.2
							c2.4-0.8,4.8-1.6,7.2-2.4c0.8-0.3,1.6-0.5,2.3-0.8c2.2-0.8,4.4-1.6,6.6-2.4c0.5-0.2,1-0.4,1.5-0.5c2.6-1,5.1-2,7.7-3
							c0.5-0.2,1.1-0.5,1.6-0.7c2-0.8,4.1-1.7,6.1-2.6c0.7-0.3,1.5-0.6,2.2-1c2.1-0.9,4.2-1.9,6.3-2.8c0.4-0.2,0.8-0.4,1.2-0.6
							c2.4-1.2,4.8-2.3,7.2-3.5c0.6-0.3,1.2-0.6,1.8-0.9c1.9-1,3.7-1.9,5.6-2.9c0.7-0.4,1.4-0.7,2-1.1c2.3-1.3,4.7-2.6,6.9-3.9
							c1.3-0.7,2.5-1.5,3.7-2.2c0.3-0.2,0.6-0.4,0.8-0.5c1-0.6,1.9-1.2,2.8-1.7c0.9-0.5,1.7-1.1,2.6-1.6c0.9-0.6,1.8-1.2,2.7-1.8
							c0.8-0.5,1.7-1.1,2.5-1.6c0.9-0.6,1.8-1.2,2.7-1.8c0.8-0.5,1.6-1.1,2.4-1.6c0.9-0.6,1.7-1.2,2.6-1.9c0.8-0.6,1.5-1.1,2.3-1.7
							c0.8-0.6,1.7-1.3,2.5-1.9c0.7-0.6,1.5-1.1,2.2-1.7c0.8-0.6,1.6-1.3,2.4-1.9c0.7-0.6,1.4-1.1,2.1-1.7c0.8-0.7,1.6-1.3,2.3-2
							c0.7-0.6,1.3-1.1,2-1.7c0.8-0.7,1.5-1.4,2.3-2c0.5-0.5,1.1-1,1.6-1.5c0.1-0.1,0.1-0.1,0.2-0.2c1.6-1.5,3.2-3,4.7-4.5
							c0.4-0.4,0.8-0.8,1.1-1.2c1.1-1.2,2.3-2.3,3.4-3.5c0.4-0.5,0.9-0.9,1.3-1.4c1.2-1.3,2.3-2.5,3.4-3.8c0.3-0.3,0.5-0.6,0.8-0.9
							c1.3-1.5,2.6-3.1,3.8-4.7c0.1-0.1,0.2-0.2,0.3-0.4c0.3-0.4,0.6-0.8,0.9-1.2c0.7-0.9,1.4-1.8,2.1-2.7c0.4-0.6,0.8-1.1,1.2-1.7
							c0.6-0.9,1.2-1.7,1.8-2.6c0.4-0.6,0.8-1.2,1.2-1.7c0.6-0.9,1.2-1.8,1.7-2.7c0.4-0.6,0.7-1.1,1.1-1.7c0.6-0.9,1.1-1.9,1.7-2.8
							c0.2-0.4,0.5-0.8,0.7-1.2c0.1-0.1,0.1-0.3,0.2-0.4c0.5-0.8,0.9-1.7,1.4-2.5c0.3-0.6,0.6-1.1,0.9-1.7c0.5-0.9,0.9-1.9,1.4-2.8
							c0.2-0.5,0.5-1,0.7-1.4c0.6-1.3,1.2-2.6,1.7-3.9c0.1-0.1,0.1-0.2,0.2-0.4c0.6-1.4,1.2-2.8,1.7-4.3c0,0,0-0.1,0-0.1
							c0.2-0.5,0.4-1,0.5-1.5c0.3-0.9,0.6-1.7,0.9-2.6c0.2-0.6,0.4-1.2,0.6-1.8c0.3-0.8,0.5-1.6,0.8-2.5c0.2-0.6,0.3-1.2,0.5-1.9
							c0.2-0.8,0.4-1.6,0.6-2.4c0.2-0.6,0.3-1.3,0.4-1.9c0.2-0.8,0.4-1.6,0.5-2.3c0-0.1,0.1-0.3,0.1-0.4c0.1-0.5,0.2-1,0.3-1.5
							c0.1-0.8,0.3-1.6,0.4-2.4c0.1-0.7,0.2-1.3,0.3-2c0.1-0.8,0.2-1.6,0.3-2.4c0.1-0.7,0.1-1.3,0.2-2c0.1-0.8,0.2-1.6,0.2-2.3
							c0.1-0.7,0.1-1.3,0.1-2c0-0.8,0.1-1.6,0.1-2.3c0-0.2,0-0.5,0-0.7c0-0.9,0-1.8,0-2.7c0,0,0,0,0,0L1275.1,432.3z"/>
					</g>
					<g>
						<path fill="#F89D1F" d="M1185.4,306c119.9,69.2,120.5,181.8,1.4,251c-119.1,69.2-313.5,69.2-433.3,0
							c-58.1-33.5-90.2-78.1-90.4-125.5c-0.3-47.4,31.4-92,89-125.5c57.7-33.5,134.5-52,216.4-52
							C1050.3,254,1127.4,272.4,1185.4,306z M773.8,545.2c108.6,62.7,284.8,62.7,392.7,0c107.9-62.7,107.3-164.8-1.3-227.5
							c-108.6-62.7-284.8-62.7-392.7,0C664.6,380.4,665.2,482.5,773.8,545.2L773.8,545.2z"/>
					</g>
				</g>
				<g>
					<g>
						<g>
							<path fill="#F89D1F" d="M1046.6,34.1C1020.4,65.5,961.4,140,900,231.6C885.6,214.2,765.4,77.3,765.3,77.4
								c-15.7,36.8-57.6,134.5-76.8,273.4c0,7,0,16.4-0.1,23.4c0,3.4,0,8,0,11.4c2.3-4.4,5.3-10.5,8-14.7
								c35.3-49.9,89.5-81.1,175.8-101c7.6-1.4,17.8-3.3,25.5-4.5c7.8-1,18.2-2.4,26-3.1c91.4-6.4,161.5,4.7,234.3,37.1
								c5.9,3.1,10.4,6,16.1,9.3v-26.5C1174.1,282.2,1135.1,171.9,1046.6,34.1z"/>
						</g>
						<g>
							<path fill="#FBC977" d="M1255.1,155.9c0,0.1-3.3,148.7-3.3,148.7l-5.8,127.1l8.1,8l9.6-9.4l0.4-133.7
								C1263.8,244.5,1261.5,207.7,1255.1,155.9z"/>
							<g>
								<path fill="#DB8918" d="M1163,282.2c-24.2-55.1-52.9-150.9-116.6-248.1c-0.2,0-86.6,123.8-143.7,209
									C889.2,227,765.1,77.4,765.1,77.4c-13.7,38-43.2,148.4-61.1,277.6c0,6.5,0,15.3-0.1,21.8c0,3.2,0,7.4,0,10.6
									c2.2-4.1,8.9-9.7,11.4-13.7c32.8-46.4,83.3-75.4,163.6-94c7.1-1.3,16.6-3.1,23.7-4.2c7.2-0.9,16.9-2.2,24.2-2.9
									c85-6,150.2,4.4,218,34.5c5.5,2.9,12.8,6.5,18.1,9.6c5.3,3.4,13.6,8.4,18.7,12c35.3,27.1,61.9,57.2,64.2,103l7.6-107.4
									c0.9-13.1,1.4-26.2,1.4-39.4c0-40.4,0.1-129,0-129C1245.7,181.5,1163,282.2,1163,282.2z"/>
							</g>
						</g>
						<g>
							<path fill="#EF9D1D" d="M1234.3,436.8c-14.5-43.1-29.8-87-56.5-118.2c0,0-95.8,179.4-134.2,222.5
								c0,0-117.5-135.5-147.2-179.6c-16.7,19.9-20.8,24.8-123.9,142.2c-46.7-106.4-88.2-226.6-93.4-263.9
								c0-0.1,19.7,187.8,19.7,187.8c2.3,45.8,26.3,73.2,61.5,100.3c5.1,3.6,12.3,7.9,17.6,11.3c5.7,3.3,13.5,7.2,19.4,10.3
								c67.8,30.2,133,40.5,218,34.5c7.3-0.7,16.9-2,24.2-2.9c7.1-1.1,16.6-2.9,23.7-4.2c80.3-18.5,130.8-47.5,163.6-94
								c5.9-9.9,11.1-23.5,12.6-27.7C1242,445.7,1234.3,436.8,1234.3,436.8z"/>
						</g>
						<path fill="#FBC977" d="M1263.7,296.7c-0.2,67.2-6.7,117.4-9.9,141.7c-15.8-46.3-75.9-119.8-76-119.8l-0.4,1
							c-50.8,116-110.3,205.6-132.7,239.4c-73.2-88.5-148.1-197.4-148.3-197.4h0c-19.3,23-19.3,23-132.3,151.8
							c-54.6-127.6-78.6-233.9-84.1-273.5c-0.1,0,0,0-0.1,0c0,22.8,0.1,35-0.3,55.2v0.1l-0.4,133.7c2.5,49.2,28.2,78.7,66.1,107.8
							c5.3,3.7,12.5,8.1,18.1,11.7c0,0.2,0,0.3,0,0.5c6.1,3.5,14.6,7.8,20.8,11.1c72.9,32.4,142.9,43.5,234.3,37.1
							c7.8-0.8,18.2-2.1,26-3.1c7.7-1.2,17.9-3.1,25.5-4.5c86.3-19.9,140.5-51.1,175.8-101c2.6-4.3,5.6-10.3,8-14.7
							c0-0.1,0-0.3,0-0.4c1.9-4.4,3.8-10.2,5.4-14.6c2.9-10.3,2.9-11.3,4.1-28.1l0.4-133.5L1263.7,296.7z"/>
						<path fill="#FBC977" d="M1263.7,301.6l-0.4,125.4v3.5c-1.1,16.8-1.2,17.8-4.1,28.1c-1.6,4.4-3.5,10.2-5.4,14.6v0.4
							c-1.4,2.7-3.1,6-4.8,9.2c-1.1,2-2.2,3.9-3.2,5.6c-2.8,4-5.7,7.8-8.8,11.6c-27.8,34-66.1,58.6-119.9,76.4
							c-5.9,2-12,3.9-18.3,5.6c-5.9,1.7-12,3.3-18.2,4.9c-3.5,0.9-7,1.7-10.5,2.6c-7.7,1.4-17.8,3.3-25.5,4.5
							c-7.8,1-18.2,2.4-26,3.1c-1.2,0.1-2.5,0.2-3.7,0.2c-27.1,1.8-52.4,2-76.3,0.5c-31-1.9-60-6.5-88.3-14.2
							c-22.2-6-44-13.9-66-23.7c-0.3-0.2-0.6-0.3-0.9-0.5c-6.1-3.2-14-7.2-19.9-10.6v-0.5c-5.6-3.5-12.8-8-18.1-11.6
							c-7.9-6.1-15.2-12.1-22-18.4c-23.2-21.6-39-45.5-43.2-78.8c-0.4-3.4-0.8-7-0.9-10.6l0.2-59.1l0.2-74.6V295
							c0.2-8.4,0.3-15.4,0.3-22.5c0-9.8,0-19.5,0-32.7c0,0,0,0,0.1,0c1.6,11.6,4.8,29,9.9,51c12.3,52.9,35.6,132.4,74.1,222.5
							c10.8-12.3,20.6-23.5,29.4-33.5c21.3-24.3,37.3-42.5,49.5-56.5c9.4-10.7,16.6-18.9,22.4-25.6c12.5-14.4,18.3-21.1,24.6-28.6
							c2-2.4,4.1-4.9,6.4-7.7c0.2,0,75.1,108.9,148.3,197.4c3.1-4.7,6.9-10.4,11.3-17.2c3.4-5.2,7.2-11.1,11.3-17.5
							c3.6-5.6,7.4-11.7,11.5-18.2c23-37.2,52.5-88,80.8-147.6c3.3-6.9,6.6-14,9.8-21.1c2.7-5.8,5.3-11.8,7.9-17.8l0.4-1
							c0.2,0,60.3,73.5,76,119.8c0.8-6.2,1.8-14.1,2.9-23.5C1259.8,388.2,1263.3,349.4,1263.7,301.6z"/>
					</g>
					<g>
						<g>
							
								<ellipse transform="matrix(0.7821 -0.6231 0.6231 0.7821 -0.9687 475.2926)" fill="#FBC977" cx="679.2" cy="239" rx="33.6" ry="33.6"/>
							<path fill="#F89D1F" d="M679.2,272.6c18.6,0,33.6-15,33.6-33.6c0-4.2-0.8-8.1-2.2-11.8c0.1,1,0.2,2.1,0.2,3.1
								c0,19-15.4,34.4-34.4,34.4c-12.6,0-23.7-6.8-29.6-17C650.6,262.1,663.7,272.6,679.2,272.6z"/>
						</g>
						<g>
							
								<ellipse transform="matrix(0.1222 -0.9925 0.9925 0.1222 595.6552 826.6099)" fill="#FBC977" cx="765.1" cy="76.6" rx="33.6" ry="33.6"/>
							<path fill="#F89D1F" d="M765.1,110.2c18.6,0,33.6-15,33.6-33.6c0-4.2-0.8-8.1-2.2-11.8c0.1,1,0.2,2.1,0.2,3.1
								c0,19-15.4,34.4-34.4,34.4c-12.6,0-23.7-6.8-29.6-17C736.5,99.6,749.6,110.2,765.1,110.2z"/>
						</g>
						<g>
							
								<ellipse transform="matrix(0.9871 -0.1602 0.1602 0.9871 8.1363 168.1594)" fill="#FBC977" cx="1047.1" cy="33.6" rx="33.6" ry="33.6"/>
							<path fill="#F89D1F" d="M1047.1,67.2c18.6,0,33.6-15,33.6-33.6c0-4.2-0.8-8.1-2.2-11.8c0.1,1,0.2,2.1,0.2,3.1
								c0,19-15.4,34.4-34.4,34.4c-12.6,0-23.7-6.8-29.6-17C1018.5,56.7,1031.5,67.2,1047.1,67.2z"/>
						</g>
						<g>
							<circle fill="#FBC977" cx="1254.4" cy="156.9" r="33.6"/>
							<path fill="#F89D1F" d="M1254.4,190.5c18.6,0,33.6-15,33.6-33.6c0-4.2-0.8-8.1-2.2-11.8c0.1,1,0.2,2.1,0.2,3.1
								c0,19-15.4,34.4-34.4,34.4c-12.6,0-23.7-6.8-29.6-17C1225.8,179.9,1238.8,190.5,1254.4,190.5z"/>
						</g>
						<g>
							<circle fill="#FBC977" cx="1177.8" cy="319.3" r="33.6"/>
							<path fill="#F89D1F" d="M1177.8,352.9c18.6,0,33.6-15,33.6-33.6c0-4.2-0.8-8.1-2.2-11.8c0.1,1,0.2,2.1,0.2,3.1
								c0,19-15.4,34.4-34.4,34.4c-12.6,0-23.7-6.8-29.6-17C1149.2,342.4,1162.3,352.9,1177.8,352.9z"/>
						</g>
						<g>
							
								<ellipse transform="matrix(0.2298 -0.9732 0.9732 0.2298 337.4138 1150.9055)" fill="#FBC977" cx="895.8" cy="362.3" rx="33.6" ry="33.6"/>
							<path fill="#F89D1F" d="M895.8,395.9c18.6,0,33.6-15,33.6-33.6c0-4.2-0.8-8.1-2.2-11.8c0.1,1,0.2,2.1,0.2,3.1
								c0,19-15.4,34.4-34.4,34.4c-12.6,0-23.7-6.8-29.6-17C867.2,385.3,880.3,395.9,895.8,395.9z"/>
						</g>
					</g>
				</g>
			</g>
		</g>
	</g>
</g>
</svg>
