<?xml version="1.0" encoding="UTF-8" standalone="no"?>
<!-- Created with Inkscape (http://www.inkscape.org/) -->

<svg
   version="1.1"
   id="svg2"
   width="2356.2666"
   height="260.10666"
   viewBox="0 0 2356.2666 260.10666"
   sodipodi:docname="CMYK_Bårder-malva(2).svg"
   inkscape:version="1.4 (86a8ad7, 2024-10-11)"
   xmlns:inkscape="http://www.inkscape.org/namespaces/inkscape"
   xmlns:sodipodi="http://sodipodi.sourceforge.net/DTD/sodipodi-0.dtd"
   xmlns="http://www.w3.org/2000/svg"
   xmlns:svg="http://www.w3.org/2000/svg">
  <defs
     id="defs6" />
  <sodipodi:namedview
     id="namedview4"
     pagecolor="#ffffff"
     bordercolor="#000000"
     borderopacity="0.25"
     inkscape:showpageshadow="2"
     inkscape:pageopacity="0.0"
     inkscape:pagecheckerboard="0"
     inkscape:deskcolor="#d1d1d1"
     inkscape:zoom="0.38662858"
     inkscape:cx="1363.0653"
     inkscape:cy="290.97694"
     inkscape:window-width="1920"
     inkscape:window-height="1129"
     inkscape:window-x="-8"
     inkscape:window-y="-8"
     inkscape:window-maximized="1"
     inkscape:current-layer="g8" />
  <g
     id="g8"
     inkscape:groupmode="layer"
     inkscape:label="ink_ext_XXXXXX"
     transform="matrix(1.3333333,0,0,-1.3333333,0,260.10667)">
    <rect
       style="fill:#fcfff6;fill-opacity:1;stroke:#fcfff6;stroke-width:0"
       id="rect1"
       width="1794.3579"
       height="214.35303"
       x="-11.6391"
       y="-201.86945"
       transform="scale(1,-1)" />
    <g
       id="g10"
       transform="scale(0.1)"
       style="fill:#f8f0ff;fill-opacity:1">
      <path
         d="m 12103.3,1368.22 c 0,-478.63 0,-682.22 0,-1114.341 178,-63.508 381,76.101 506.5,304.973 105.4,191.769 89.1,804.998 -506.5,809.368"
         style="fill:#f8f0ff;fill-opacity:1;fill-rule:nonzero;stroke:none"
         id="path12" />
      <path
         d="m 5797.18,1905.53 c -1012.75,3.4 -1443.53,4.84 -2357.85,7.91 -135.65,-407.19 158.31,-872.9 641.7,-1162.01 405.01,-242.578 1702.68,-209.641 1716.15,1154.1"
         style="fill:#f8f0ff;fill-opacity:1;fill-rule:nonzero;stroke:none"
         id="path14" />
      <path
         d="m 8888.41,1219.3 c -149.36,-275.261 -327.12,-253.273 -520.72,-70.55 74.93,36.59 151.11,101.24 197.56,182.62 21.47,34.52 33.73,74.61 53.89,109.7 l 269.27,-221.77"
         style="fill:#f8f0ff;fill-opacity:1;fill-rule:nonzero;stroke:none"
         id="path16" />
      <path
         d="M 9915.28,943.371 C 9386.49,983.969 8960.11,422.16 8971.88,13.0313 l 941.75,-1.8008 1.65,932.1405"
         style="fill:#f8f0ff;fill-opacity:1;fill-rule:nonzero;stroke:none"
         id="path18" />
      <path
         d="m 8366.61,1504.55 c 240.56,-25.53 441.83,224.93 441.48,411.61 l -429.31,13.31 -12.17,-424.92"
         style="fill:#f8f0ff;fill-opacity:1;fill-rule:nonzero;stroke:none"
         id="path20" />
      <path
         d="m 5908.01,48.7891 c -11.22,75.3319 -90.83,413.2499 270.59,638.2889 361.46,225.051 666.57,405.712 593.5,835.212 -73.06,429.51 -661.24,404.04 -741.32,404.3 93.7,-39.43 216.27,-367.89 -206.03,-740.37 C 5402.47,813.781 5149.88,543.301 5431.84,239.441 5627.5,28.5898 5850.76,49 5908.01,48.7891"
         style="fill:#f8f0ff;fill-opacity:1;fill-rule:nonzero;stroke:none"
         id="path22" />
      <path
         d="M 5952.82,18.7305 H 6541.6 L 6449.79,712.941 C 6195.81,596.48 6029.89,342.629 5952.82,18.7305"
         style="fill:#f8f0ff;fill-opacity:1;fill-rule:nonzero;stroke:none"
         id="path24" />
      <path
         d="m 1232.39,927.719 -114.72,992.651 1099.48,-19.51 c -131.96,-450.89 -495.14,-780.1 -984.76,-973.141"
         style="fill:#f8f0ff;fill-opacity:1;fill-rule:nonzero;stroke:none"
         id="path26" />
      <path
         d="m 16467.2,35.5313 -311.8,384.4487 467.5,307.649 c 64.2,-227.508 -1.1,-470.27 -155.7,-692.0977"
         style="fill:#f8f0ff;fill-opacity:1;fill-rule:nonzero;stroke:none"
         id="path28" />
      <path
         d="m 13493.6,1413.42 45.3,488.57 -539.4,-22.69 c 69.7,-219.73 251.6,-376.98 494.1,-465.88"
         style="fill:#f8f0ff;fill-opacity:1;fill-rule:nonzero;stroke:none"
         id="path30" />
      <path
         d="M 6501.85,802.379 6598.51,10.2188 6956.51,8 c 513.77,515.078 811.01,1199.18 844.39,1924.45 l -498.36,3.12 C 7216.36,1493.41 6958.5,1022.1 6501.85,802.379"
         style="fill:#f8f0ff;fill-opacity:1;fill-rule:nonzero;stroke:none"
         id="path32" />
      <path
         d="M 7707.64,840.641 7320.84,231.922 7567.6,8.46094 C 8218.58,46.8594 8816.39,336.57 9254.96,818.359 L 8911.47,1129.43 C 8598.49,876.512 8149.87,709.82 7707.64,840.641"
         style="fill:#f8f0ff;fill-opacity:1;fill-rule:nonzero;stroke:none"
         id="path34" />
      <path
         d="m 12948.6,818.961 605,79.867 1.7,295.862 c -393.3,424.58 -915.8,670.22 -1469.7,697.8 l -2.4,-411.85 c 337.7,-71.21 697.6,-284.31 865.4,-661.679"
         style="fill:#f8f0ff;fill-opacity:1;fill-rule:nonzero;stroke:none"
         id="path36" />
      <path
         d="m 9399.12,913.551 -684.87,521.419 189.62,361.44 c 754.07,241.18 1549.33,173.97 2241.63,-180.8 l -263.9,-503.15 C 10424.3,1262.5 9847.96,1255.4 9399.12,913.551"
         style="fill:#f8f0ff;fill-opacity:1;fill-rule:nonzero;stroke:none"
         id="path38" />
      <path
         d="m 2403.92,1922.63 868.62,6.54 56.32,-417.35 C 2850.9,834.859 2158.09,385.039 1381.17,236.879 l -78.41,580.961 c 463.73,167.125 933.04,538.94 1101.16,1104.79"
         style="fill:#f8f0ff;fill-opacity:1;fill-rule:nonzero;stroke:none"
         id="path40" />
      <path
         d="m 17672,1916.57 h -26.3 c -266.5,-424.59 -285.1,-919.925 -24.8,-1276 h 51.1 c 0,515.6 0,592.14 0,1276"
         style="fill:#f8f0ff;fill-opacity:1;fill-rule:nonzero;stroke:none"
         id="path42" />
      <path
         d="m 16250.9,28.9609 v 87.0701 c -1299.6,882.809 -2815.7,944.509 -3905.7,82.18 l 0.1,-169.1993 c 1578.1,0 1812.4,-0.0508 3905.6,-0.0508"
         style="fill:#f8f0ff;fill-opacity:1;fill-rule:nonzero;stroke:none"
         id="path44" />
      <path
         d="M 0,39.6719 H 39.3711 C 438.57,675.602 466.465,1417.48 76.5313,1950.79 H 0.0195313 C 0.0195313,1178.55 0,1063.91 0,39.6719"
         style="fill:#f8f0ff;fill-opacity:1;fill-rule:nonzero;stroke:none"
         id="path46" />
      <path
         d="M 16829.4,35.5313 16618.3,1929.51 h 587.5 c 25.2,-536 168.2,-1074.209 444.6,-1529.772 L 17464.2,35.5313 h -634.8 v 0"
         style="fill:#f8f0ff;fill-opacity:1;fill-rule:nonzero;stroke:none"
         id="path48" />
      <path
         d="m 16511.2,1912.94 -2932.8,9.92 105.3,-971.891 c 823.7,54.501 1672,-85.649 2417.9,-461.199 L 16624.9,863.012 16511.2,1913 v -0.06"
         style="fill:#f8f0ff;fill-opacity:1;fill-rule:nonzero;stroke:none"
         id="path50" />
      <path
         d="m 5195.65,264.398 -848.33,29.141 40.25,279.941 c 237.71,-24.761 484.46,6.52 703.96,107 l 147.6,-113.66 -43.49,-302.441 0.01,0.019"
         style="fill:#f8f0ff;fill-opacity:1;fill-rule:nonzero;stroke:none"
         id="path52" />
      <path
         d="m 6910.57,1883.72 -104.16,-792.39 37.13,-21.64 295.27,522.52 -77.4,245.19 -150.84,46.32"
         style="fill:#f8f0ff;fill-opacity:1;fill-rule:nonzero;stroke:none"
         id="path54" />
      <path
         d="M 4312.48,15.6484 1709.08,0.191406 1655.54,139.398 3471.92,941 4229.27,562.871 4312.48,15.6484"
         style="fill:#f8f0ff;fill-opacity:1;fill-rule:nonzero;stroke:none"
         id="path56" />
      <path
         d="m 12003,1902 h -725.1 c -31,-661.46 53,-1325.641 -288.1,-1887.8398 H 12003 V 1902"
         style="fill:#f8f0ff;fill-opacity:1;fill-rule:nonzero;stroke:none"
         id="path58" />
      <path
         d="m 8304.49,671.82 0.02,1248.89 h -387.46 c -16.55,-353.44 28.34,-708.33 -153.92,-1008.73 h 122.79 418.59 l -0.02,-240.16"
         style="fill:#f8f0ff;fill-opacity:1;fill-rule:nonzero;stroke:none"
         id="path60" />
      <path
         d="M 4498.09,226.648 V 11.2695 h 537.85 V 226.648 h -537.85"
         style="fill:#f8f0ff;fill-opacity:1;fill-rule:nonzero;stroke:none"
         id="path62" />
      <path
         d="m 10101.1,1152.04 c 325.5,-27.66 601.6,-45.52 1106.3,-183.63 0,0 -114.2,-441.648 -119.1,-440.031 -319.8,105.601 -801.6,187.723 -1103.99,191.98 l 116.79,431.681"
         style="fill:#f8f0ff;fill-opacity:1;fill-rule:nonzero;stroke:none"
         id="path64" />
      <path
         d="m 10069.7,698.922 c 261.5,-42.891 483.7,-74.75 883.5,-218.223 0,0 -118,-349.801 -121.9,-348.179 -252.3,105.531 -637,202.308 -881.18,224.832 l 119.58,341.57"
         style="fill:#f8f0ff;fill-opacity:1;fill-rule:nonzero;stroke:none"
         id="path66" />
      <path
         d="m 10008.8,239.16 c 142.7,-1.301 263.5,0.039 487.7,-43.48 0,0 -36.3,-196.219063 -38.5,-195.68 -142.6,35.4609 -355,55.3281 -486.91,47.1992 l 37.71,191.9608"
         style="fill:#f8f0ff;fill-opacity:1;fill-rule:nonzero;stroke:none"
         id="path68" />
      <path
         d="M 990.996,1939.44 C 1097.58,1388.39 1196.53,923.559 1216.19,25.7617 c 0,0 -727.252,-13.1719 -727.042,-4.2109 C 504.348,598.68 409.531,1433.18 277.77,1935.31 l 713.226,4.13"
         style="fill:#f8f0ff;fill-opacity:1;fill-rule:nonzero;stroke:none"
         id="path70" />
    </g>
  </g>
</svg>
