<?xml version="1.0" encoding="UTF-8" standalone="no"?>
<!-- Created with Inkscape (http://www.inkscape.org/) -->

<svg
   version="1.1"
   id="svg1"
   width="1198.0001"
   height="660.23236"
   viewBox="0 0 1198.0001 660.23236"
   sodipodi:docname="background-large.svg"
   inkscape:version="1.4 (86a8ad7, 2024-10-11)"
   xmlns:inkscape="http://www.inkscape.org/namespaces/inkscape"
   xmlns:sodipodi="http://sodipodi.sourceforge.net/DTD/sodipodi-0.dtd"
   xmlns="http://www.w3.org/2000/svg"
   xmlns:svg="http://www.w3.org/2000/svg">
  <defs
     id="defs1" />
  <sodipodi:namedview
     id="namedview1"
     pagecolor="#ffffff"
     bordercolor="#000000"
     borderopacity="0.25"
     inkscape:showpageshadow="2"
     inkscape:pageopacity="0.0"
     inkscape:pagecheckerboard="0"
     inkscape:deskcolor="#d1d1d1"
     inkscape:zoom="0.61458333"
     inkscape:cx="571.11864"
     inkscape:cy="487.32203"
     inkscape:window-width="1920"
     inkscape:window-height="1129"
     inkscape:window-x="-8"
     inkscape:window-y="-8"
     inkscape:window-maximized="1"
     inkscape:current-layer="g1" />
  <g
     inkscape:groupmode="layer"
     inkscape:label="Image"
     id="g1"
     transform="translate(-92.254236,-43.203391)">
    <rect
       style="fill:#fcfff6;fill-opacity:1;stroke:#fcfff6;stroke-width:0"
       id="rect1"
       width="1388.5449"
       height="777.19385"
       x="2.6779885"
       y="-14.661011" />
    <path
       style="fill:#f8f0ff;stroke:none;fill-opacity:1"
       d="m 1250.2543,48.203391 c 4.4669,15.50629 17.0379,26.90521 32,32 l -1,-37 -31,5 m 26,223.999999 c 3.4,-0.2189 10.6437,1.46866 12.9577,-1.60339 2.2884,-3.0383 0.042,-12.56327 0.042,-16.39661 0,-16.38348 -0.999,-32.61108 -1,-49 0,-27.62109 -0.2135,-56.50678 -2.8302,-84 -0.7839,-8.23651 2.8505,-21.840759 -1.7732,-28.985349 -8.7903,-13.58277 -28.9638,-24.90088 -41.3966,-35.26154 -4.4649,-3.72076 -10.1998,-10.61761 -16,-11.99078 -5.5951,-1.32459 -14.5812,2.9732 -20,4.52856 -4.6966,1.34809 -23.676,3.73474 -24.8789,8.98767 -1.1535,5.03748 5.0093,14.2522 7.1343,18.72144 7.0719,14.87341 13.5795,30.025569 20.4359,44.999999 9.2794,20.26617 18.4348,40.61383 27.4484,61 13.1086,29.64832 28.1346,58.77771 39.8603,89 m -905.00006,64 -26.42437,-170 -18.57563,-120.999999 c -34.99797,5.83301 -75.28601,18.38135 -99,50 -44.21917,58.958919 -45.5437,161.842219 20,210.999999 24.95316,18.71487 45.58362,30.6459 75,38 9.77384,2.44345 25.25238,0.18689 34,-2 4.66391,-1.16599 12.99381,-6.50156 15,-6 m 243,-290.999999 c 0.62543,14.56787 3.48847,29.56048 5.57947,44 0.44049,3.04205 0.11896,11.913999 3.02393,13.635799 4.35345,2.58033 15.73761,-5.442439 19.3966,-7.700619 18.14801,-11.20007 35.02533,-27.44312 40,-48.93518 l -68,-1 m 508.00006,12 c -2.2538,-15.03442 -27.6289,-10.99921 -40,-11 -37.7163,-0.002 -75.3292,-1 -113.00006,-1 h -28 c -3.09405,0 -8.81128,-1.05609 -11.39276,1.02777 -3.74353,3.02191 0.513,16.74615 1.12195,20.97223 0.67737,4.70074 0.29651,12.46069 3.25922,16.36267 2.88812,3.80371 9.84002,5.7984 14.01159,7.88422 11.49152,5.74578 26.31409,16.910029 39,18.930599 10.76197,1.71411 30.06506,-10.584169 40.00006,-14.753109 31.4511,-13.1977 63.2045,-26.08881 95,-38.42438 m -787.00006,-8 13,79.999999 c 27.14093,-4.83807 55.22464,-32.524409 68.7963,-54.999999 4.56833,-7.56549 6.11871,-19.5791 11.2037,-26 h -26 l -67,1 m 601,54.999999 c -9.17627,-20.588199 -30.54455,-38.848449 -44,-56.999999 -42.17907,17.53784 -81.7442,30.08124 -128,26.91052 -16.59942,-1.13788 -33.41497,-5.24847 -49,-10.96374 -4.97931,-1.82599 -14.03643,-8.45087 -19.28552,-5.78785 -6.6889,3.39356 -11.53717,11.59754 -16.71832,16.84107 -12.76709,12.92078 -25.15668,26.160519 -37.99616,38.999999 -5.35205,5.35205 -16.51739,13.54321 -18.69366,21 -1.15784,3.96728 3.6842,8.23694 5.89349,11 6.61566,8.27393 16.97052,28.35565 27.80402,30.65662 17.07275,3.62616 35.6466,2.34338 52.99615,2.34338 59.23743,0 117.74469,-14.30255 171,-40.25928 19.74604,-9.62427 37.39081,-22.25641 56,-33.74072 M 93.253936,48.203391 v 172.999999 42 l 1.603397,14.97223 24.396607,1.02777 h 66 c 0,-55.20441 -1.94038,-113.96344 10.88427,-168 5.41452,-22.814029 17.2767,-41.465639 25.11573,-62.999999 H 93.254236 m 386.000004,0 c 0.33902,7.9574 10.78574,14.49847 15.91049,20 15.09345,16.20306 30.42978,32.340389 46.08951,47.999999 6.43167,-6.3042 -0.2977,-19.291569 -3.78393,-25.999999 -12.30405,-23.67627 -34.02127,-34.26349 -58.21607,-42 m 73,0 c 0,45.87164 10.17191,88.869749 16,133.999999 h 52 c -2.0296,-15.07239 -6.50317,-29.89429 -8.72839,-45 -4.36725,-29.64703 -6.27161,-59.064879 -6.27161,-88.999999 h -53 m 289,7 v -4 c -29.64898,0 -60.50073,0.63769 -90,-2.16974 -7.37274,-0.70166 -14.58178,-0.84552 -22,-0.83026 -2.18884,0.005 -6.47497,-0.63751 -7.8634,1.60266 -1.96722,3.17407 2.76532,6.56409 4.87884,8.03778 7.1009,4.95123 15.64686,8.92255 23.98456,11.20752 32.862,9.00592 61.22705,0.0524 91,-13.84796 m 51,-7 -1,1 1,-1 m -674,40 c 12.22103,-7.6106 23.48014,-17.23358 35,-25.87347 4.88567,-3.66425 10.98607,-6.69202 12,-13.12653 -19.81265,4.08948 -64.25259,9.46918 -47,39 m 119,-38 -1,1 1,-1 m 96,14 24,9.66669 53,20.33331 c 0.22022,-6.19537 -5.77984,-10.9256 -10,-14.96063 -12.3183,-11.77802 -27.29394,-18.27881 -44,-20.3241 -7.00815,-0.85797 -18.87243,-1.46619 -23,5.28473 m 556,56.999999 10.75316,24 16.2468,33 c 34.507,-14.15704 69.8319,-23.29297 107.0001,-26.83026 12.8831,-1.22608 26.0927,-0.3194 39,-0.1659 4.1513,0.0494 8.917,1.67078 12.9854,0.67438 8.3076,-2.03467 15.8067,-18.12054 20.6435,-24.67822 1.9363,-2.62524 4.6984,-5.5658 4.8797,-9 0.2877,-5.45258 -4.991,-13.13385 -7.2895,-18 -6.6327,-14.042049 -14.2468,-27.654969 -20.2191,-41.999999 l -47,15.65588 -81,28.036259 -56.00006,19.30786 m -553,-59.999999 -1,1 1,-1 m -217,25 -1,1 1,-1 m 227,1.42438 c -34.34607,4.56506 -66.00967,26.510979 -80.69134,58.575619 -4.37921,9.56409 -6.09021,19.52478 -5.36884,30 0.20764,3.01501 0.12821,7.90247 2.78781,9.97223 2.96637,2.30847 9.72934,1.02777 13.27237,1.02777 h 33 98 c 13.31382,0 32.11591,3.46326 44.85187,-0.31787 4.98734,-1.48065 3.24997,-10.81055 2.72296,-14.68213 -1.94842,-14.31397 -5.24576,-28.5 -12.77853,-41 -19.29987,-32.026549 -58.94507,-48.473689 -95.7963,-43.575619 m 96,26.575619 -1,1 1,-1 m 126,84 11.57563,33 30.42437,84 c 22.17047,-0.95206 45.10919,-6.91547 67,-10.58643 59.51227,-9.97985 118.22193,-23.72818 176,-41.13348 23.93061,-7.20895 47.74616,-17.53253 72.00006,-23.28009 l -16.3079,-49 -26.69216,-71 c -70.94549,24.00134 -140.55938,46.59418 -214,62.21069 -32.53369,6.91803 -66.69409,14.3595 -100,15.78931 m 532.00006,-67 c 0.2451,6.86664 -3.6225,14.67255 -2.8334,22 2.5669,23.83331 10.4943,44.66083 27.8334,62 5.7477,5.74768 12.7394,14.26092 21,16 l -14.5755,-37 -27.4245,-64 -4,1 m 4,0 -1,1 1,-1 m -63,126 18.9329,-10.39044 -1.3425,-13.60956 0.8348,-25 8.878,-24 -19.3032,-28 c -16.2088,4.66925 -18.2954,14.70624 -20.2816,30 -3.0725,23.6579 1.014,49.86499 12.2816,71 m 17,-97 13,20 c 4.522,-1.91168 18.5719,-9.39545 18.6543,-14.99921 0.19,-12.91314 -25.7479,-7.76104 -31.6543,-5.00079 m -86,11 30,102 32,-13 c -5.8436,-17.95825 -10.6144,-36.07544 -11.9105,-55 -0.6946,-10.14166 3.4475,-23.43225 1.0216,-32.99616 -1.3295,-5.24102 -11.6471,-13.22583 -16.8256,-14.38891 -8.4251,-1.89234 -26.828,9.40936 -34.2855,13.38507 m -55.0001,16 c 2.8746,16.70532 11.9422,32.80615 16.9746,49 6.204,19.96393 7.6607,38.28265 6.0255,59 l 56,-21 -9.9498,-28 -28.0502,-74 -41.0001,15 m 151.0001,55 c 11.4846,-3.14114 22.9226,-8.20917 34,-12.60107 3.0602,-1.21326 10.1432,-2.51682 11.5965,-5.81791 1.3883,-3.15356 -2.4578,-7.9227 -3.8518,-10.58102 -4.9218,-9.38568 -9.9639,-18.7677 -15.1691,-28 -1.4536,-2.57837 -3.8655,-9.58997 -7.6659,-9.07867 -5.1488,0.69274 -9.4894,9.98156 -11.5393,14.07867 -8.4345,16.85791 -7.5203,33.89502 -7.3704,52 m -151.0001,-66 -1,1 1,-1 m -655.99996,24 7,47 7,54 4,27 3,15 c 54.14008,-22.54047 97.21802,-86.25787 105,-144 l -126,1 m 209,0 c -2.79821,15.07227 -3.06347,30.7771 -5.42437,46 -5.71119,36.82489 -15.17542,73.37759 -29.02469,108 -7.66135,19.15289 -16.47388,38.07394 -26.70139,56 -3.67764,6.44589 -13.82501,17.53763 -13.85187,25 -0.019,5.2804 5.42768,12.34451 7.75541,17 6.45056,12.90115 13.70379,25.68597 19.24691,39 l 103,2 26.28162,-196 12.71838,-95 -94,-2 m -71,2 c -5.04278,39.04779 -25.65197,79.04547 -53.03936,106.98535 -8.84861,9.0271 -19.24527,16.91861 -29.96064,23.58951 -3.92834,2.44562 -12.5549,5.1395 -14.38195,9.63809 -2.77775,6.83936 2.11807,21.5741 3.30169,28.78705 3.75485,22.88177 7.15854,46.00201 10.08026,69 9.60898,0 19.41346,-0.56699 29,0.0895 5.28833,0.36215 11.96686,2.4111 16.99924,-0.11728 4.866,-2.4448 8.32037,-8.1022 12.00076,-11.97223 11.06592,-11.63611 21.0651,-24.66431 29.99924,-38 37.40726,-55.83652 57.12677,-120.07477 60.00076,-187 l -64,-1 m 640.00006,67 c 2.08,10.84177 14.6981,6.03979 23,5.99924 23.9978,-0.11725 47.9965,-3.98081 72,-3.99924 5.1007,-0.004 24.7295,1.39047 27.8172,-2.60339 2.4255,-3.13746 -0.1127,-9.00916 -0.8141,-12.39661 -0.6775,-3.27197 -0.8146,-7.78137 -2.9413,-10.50156 -4.6611,-5.96194 -27.5408,-14.78158 -35.0618,-15.18054 -10.6112,-0.5629 -27.5643,11.71738 -37,16.43518 -15.4219,7.71094 -31.046,15.70157 -47,22.24692 m -491.00006,106 h 28 l 11,-16 15,-21 -6,-23 -13,-55 -7,-25 c -12.10986,2.66483 -10.68432,22.62656 -12.13037,33 -4.90967,35.22003 -14.34546,71.49561 -15.86963,107 m 522.00006,-135 -1,1 1,-1 m 88,5 -1,1 1,-1 m -397.00006,55 c 4.2735,66.36688 90.32001,83.08719 138,49.96063 33.97366,-23.60376 37.71196,-60.57748 30.00006,-97.96063 l -123.00006,35.42129 -45,12.57871 m 281.00006,-45 -1,1 1,-1 m 147,15 -1,1 1,-1 m -225,31 41,24 17,-38 c -19.1643,-1.74027 -44.6166,-3.34073 -58,14 m 0,393 h 226 v -409 c -39.6113,2.55017 -80.2832,0 -120,0 h -30 c -3.306,0 -8.8119,-0.98135 -11.3966,1.60339 -4.7557,4.75571 -1.1786,20.92795 -2.0278,27.39661 -4.1366,31.5083 -1.5756,66.19232 -1.5756,98 0,68.9126 -5.4385,138.81976 -26.0255,205 -5.6865,18.28009 -13.6285,35.93384 -22.2222,53 -4.0063,7.95624 -10.0656,15.51276 -12.7523,24 m -970.000064,-393 c 19.139164,8.48383 40.135074,14.37198 60.000004,21 7.4466,2.48459 18.08457,8.37784 26,7.6821 10.33782,-0.90866 24.10858,-12.43851 33,-17.6821 l 2,-25 c -29.79684,2.35165 -60.10923,5.60028 -90,6.00384 -8.94725,0.12079 -27.509888,-1.66723 -31.000004,7.99616 m 948.000064,-8 -1,1 1,-1 m -946.000064,7 -1,1 1,-1 m 929.000064,23 c 5.33,-0.19034 15.1457,8.70013 20,11.66666 17.7667,10.85742 36.2421,23.57547 51,38.33334 h 1 c 6.4719,-6.76224 16.5946,-15.76492 19,-25 -17.2241,-12.76794 -33.5766,-26.28476 -52,-37.39893 -4.4408,-2.67898 -13.5642,-10.70532 -18.9606,-9.72299 -6.8881,1.25388 -16.4922,16.4509 -20.0394,22.12192 m -333.00006,63 53,-21.71915 105,-44.28085 -2,-7 c -12.84222,-1.29672 -24.82849,-4.53745 -38,-3.96063 -34.45819,1.509 -65.86291,18.13147 -91,40.79162 -8.22259,7.41236 -28.11236,24.09943 -27,36.16901 m -600.000004,-73 v 57 26 l 4,1 c 6.724204,-17.33179 21.060174,-37.64545 23.516204,-56 0.76482,-5.71564 -6.58905,-22.7746 -11.74074,-25.48611 -4.47194,-2.35373 -10.848264,-2.12131 -15.775464,-2.51389 m 17.000004,3 -1,1 1,-1 m 162,23 c -7.69659,-5.52869 -15.29397,-11.19446 -23,-16.70987 -2.7223,-1.94843 -6.36276,-5.78302 -10,-5.42285 -4.69238,0.46466 -9.3742,6.30621 -13,8.97684 -8.68567,6.39752 -18.13107,11.93133 -28,16.294 -12.29638,5.43573 -26.48224,9.51599 -40,9.84723 -6.68863,0.16388 -21.05764,-3.32114 -26.61034,0.19367 -7.90595,5.00439 -12.84057,21.807 -17.38966,29.82098 -2.90255,5.11331 -13.642094,19.03363 -11.69753,24.90973 1.24173,3.75229 6.6924,6.34485 9.69753,8.51465 14.66615,10.58941 25.14705,7.83581 42,3.15124 35.24674,-9.79742 69.81737,-27.70831 96,-53.57947 7.24491,-7.15872 19.24286,-15.80191 22,-25.99615 m 756.00006,-8 c -7.2874,11.01291 -19.4918,25.99158 -22.0001,39 34.1144,17.96857 59.9743,45.16537 91.0001,67 5.5593,-8.40161 10.5183,-17.28626 15.5756,-26 1.6839,-2.90146 5.4315,-7.39478 5.1721,-10.91049 -0.47,-6.37079 -15.1327,-15.40476 -19.7477,-19.36035 -20.7546,-17.78925 -44.6762,-38.81684 -70,-49.72916 m -371.00006,284 c 17.77802,52.20953 99.6463,102.51947 144.82642,52 45.44568,-50.81641 38.49383,-127.54004 74.51849,-183 17.29743,-26.62939 46.88129,-52.79944 80.65509,-42 1.88416,-3.76834 -1.27874,-6.55743 -3,-10 -4.5075,-9.01508 -9.81396,-17.10965 -15,-26 -23.54516,-40.36313 -63.29602,-69.926 -111,-58 -9.92956,2.48239 -19.12451,7.82263 -28,13 -32.31445,18.8501 -42.73748,51.94992 -51,85 -3.49182,13.96738 -2.51996,29.0798 -6,43 -1.625,6.49994 0.62964,13.48135 -1,20 -3.90997,15.63983 -3.91223,31.3894 -10,46 -10.15429,24.37024 -33.34503,45.78168 -58,54 -4.90063,1.63354 -14.53241,6.61688 -17,6 m -286,-248 c -22.47159,-2.85486 -44.68597,-8.36597 -67,-12.25 -6.63392,-1.15472 -18.3063,-5.97382 -24.81482,-3.97611 -4.30153,1.32032 -7.18647,8.72977 -9.51851,12.22611 -5.95533,8.92868 -12.92002,17.5166 -20.66743,24.96063 -20.27898,19.4849 -44.71289,33.38227 -70.99924,42.98615 -9.07068,3.31402 -18.5787,5.5625 -28,7.62884 -3.38455,0.74234 -8.79756,0.67114 -11.01157,3.74149 -2.93816,4.07458 -1.93631,10.97766 -1.99229,15.68289 -0.11393,9.57724 -0.91874,19.46234 -1.82638,29 -0.32012,3.36383 -1.57401,11.59012 1.43364,13.97223 3.51072,2.78052 13.1144,1.07486 17.3966,1.02392 17.94133,-0.21344 36.4496,-3.36547 54,-6.99923 44.59066,-9.23233 87.90198,-27.8407 125,-54.28781 10.54856,-7.52005 28.59522,-17.33854 34.97223,-28.87888 1.87006,-3.38415 0.8739,-8.10635 1.31326,-11.83023 1.27451,-10.80182 1.71451,-22.11676 1.71451,-33 m 269,51 c 1.60022,12.02316 26.61536,10.55316 36,9.91049 28.93921,-1.98181 55.64478,-15.58795 76,-35.91049 5.57483,-5.56589 17.41187,-14.28 16,-23 l -128,49 m 437.00006,82 39,-17 c -3.4247,-11.88834 -12.3271,-23.18155 -19.6296,-33 -21.6102,-29.05557 -49.9908,-52.56329 -82.3705,-68.75308 -7.7273,-3.86368 -20.13216,-11.7677 -28.99996,-11.25849 -5.17706,0.29728 -10.42767,4.07099 -15,6.23072 -3.50488,1.65551 -10.90423,3.20816 -11.35724,7.8858 -1.25885,12.99933 9.88514,32.34631 13.49848,44.89505 1.21051,4.20398 2.39538,12.39285 6.27771,14.97223 2.81384,1.86947 7.36676,0.91931 10.58105,1.31406 7.13282,0.87597 14.18276,2.46221 20.99996,4.71447 25.7636,8.51169 52.4437,26.72751 67.0001,49.99924 m -309.00006,-130 -1,1 1,-1 m 330.00006,1 -1,1 1,-1 m -710.00006,13 -20,43 39,12 c 3.05429,-16.45236 -2.30517,-46.86456 -19,-55 m -20,27 -1,1 1,-1 m -274.000004,4 -1,122 v 27 l 0.5,9.66669 7.500004,1.33331 c 23.73711,-39.28717 29.12247,-79.10455 14.33256,-123 -3.32095,-9.85635 -10.59437,-33.65024 -21.332564,-37 m 3,1 -1,1 1,-1 m 620.000004,10 c -19.06305,11.1265 -45.81781,22.1882 -68,24 l 6,28 c 17.83795,-1.84848 36.651,-9.52164 53,-16.75 4.03223,-1.78278 12.75666,-3.79758 15.27777,-7.55554 2.78327,-4.14868 -3.19091,-24.02164 -6.27777,-27.69446 m -465,79 5,9 10,-2 29,-4 98,-16 31,-5 8,-2 -8,-24 -3,-10 -23,-7 -23,-7 -10,-3 -20,13 -56,34 -29,18 -9,6 m 210,-66 -1,1 1,-1 m -20,44 58,-22 -9,-20 -42,17.65588 -14.60803,5.90738 7.60803,18.43674 m 516,-41 1,1 -1,-1 m 16,9.42438 c -34.12585,4.48071 -66.97058,12.48477 -89.10107,41.57562 -51.62702,67.8645 -16.80145,181.55872 69.10107,201.76392 13.3642,3.14337 26.54944,1.76556 40,-0.0463 22.97956,-3.09552 45.68876,-12.28259 63.00006,-27.88812 46.4495,-41.87238 45.5993,-118.80188 9.3488,-165.82947 -21.2209,-27.52982 -55.3448,-54.43423 -92.34886,-49.57562 m -247,4.57562 -81,57 c 3.83692,8.2767 11.79688,14.33203 17.83026,21 13.0423,14.41406 26.24836,32.78461 42.16974,44 14.43805,-30.88855 30.61298,-58.41852 27.16974,-94 -0.87561,-9.04843 -1.19604,-20.08612 -6.16974,-28 m -232,24.96991 c -10.01004,1.96765 -23.19745,18.11951 -31,24.61652 -2.9097,2.42285 -9.18817,5.89166 -7.41821,10.42822 4.99487,12.80237 24.95877,25.06286 35.41821,33.38428 34.20572,27.21368 76.19092,46.73181 119,55.59802 11.4361,2.36853 29.48011,8.56109 41,5.56555 8.16663,-2.1236 16.63867,-12.29443 22.99921,-17.64276 2.12274,-1.78491 5.59576,-3.94361 5.97845,-6.95911 0.63709,-5.02008 -6.63458,-12.86981 -9.1698,-16.96063 -7.0531,-11.38098 -14.27966,-22.65259 -21.38348,-34 -3.34283,-5.33978 -6.53155,-13.23892 -11.32562,-17.38196 -2.92536,-2.52807 -7.77344,-0.28589 -11.09876,0.29785 -9.69293,1.70151 -19.18414,2.09989 -29,2.08411 -25.45154,-0.0409 -50.76144,-9.03958 -73,-20.78088 -7.32147,-3.86548 -14.29995,-8.38025 -21,-13.22992 -2.74746,-1.98871 -6.26516,-5.75342 -10,-5.01929 m -184,33.03009 c 0.033,11.98993 1.85361,24.01788 1.99616,36 0.0833,7.00446 -1.23648,16.53821 2.03085,23 3.41708,6.758 12.25626,12.30859 17.97299,17.08026 15.21299,12.698 31.21341,24.44159 48,34.96991 72.62735,45.5509 156.2854,69.94983 242,69.94983 -1.21417,-18.85632 -1.77899,-38.09381 -2.00384,-57 -0.0605,-5.08948 1.03692,-19.46301 -2.02393,-23.40045 -2.57318,-3.31018 -12.05401,-3.41126 -15.97223,-4.19989 -12.92187,-2.60065 -25.55792,-6.42365 -38,-10.74378 -33.85821,-11.75634 -64.89914,-31.31482 -90.99923,-55.74536 -11.19916,-10.48279 -21.02137,-23.15301 -29.48456,-35.91052 -2.6156,-3.94281 -5.97489,-13.70367 -10.72916,-15.22687 -8.54169,-2.73657 -25.00058,3.81354 -33.78705,5.30789 -29.63275,5.03977 -59.18475,12.13108 -89,15.91898 m -132,89 c 7.85208,3.52496 18.49779,3.36468 27,4.75384 2.92958,0.4787 7.63147,2.14753 10.30094,0.21454 4.64584,-3.36419 6.33012,-14.76684 8.27469,-19.96838 6.38055,-17.06738 10.99856,-35.16003 14.62344,-53 1.03404,-5.08911 4.83665,-14.6665 3.02779,-19.68286 -1.02889,-2.85336 -5.74538,-2.83649 -8.22686,-3.18674 -5.49423,-0.77545 -25.05069,-7.03201 -28.97607,-2.38425 -3.87572,4.58893 -3.34287,17.3592 -4.67439,23.25385 -3.82019,16.91193 -8.18065,33.55359 -13.68287,50 -1.95527,5.84442 -3.7187,15.38965 -7.66667,20 m -12,-91 c -2.21486,27.83136 -14.53995,55.50415 -25,81 l 31,12 19.33333,-59 4.16667,-20.83331 -29.5,-13.16669 m -32,2 -24,70 25,6 8.66667,-20 16.33333,-50 -26,-6 m 107,0 -1,1 1,-1 m -2,62 c 13.70671,-3.91834 25.40712,-7.93329 40,-6.91052 4.77062,0.33441 16.38309,5.72619 20.39661,2.84338 2.60251,-1.86932 2.43683,-9.02771 2.56404,-11.93286 0.45079,-10.29462 0.0394,-20.69525 0.0394,-31 0,-3.30969 0.97977,-8.80689 -1.60339,-11.39661 -4.5112,-4.5227 -18.67975,-2.906 -24.39661,-2.01312 -31.98436,4.99555 -37,32.67542 -37,60.40973 m -80,-56 -1,1 1,-1 m 36,5 -1,1 1,-1 m 46,49 -1,1 1,-1 m -13,28 54,-15.42438 20,-7.57562 c -6.22184,0.22223 -14.35505,-3.35394 -21,-4 -14.30989,-1.39124 -31.92701,4.08008 -43,13 -4.65567,3.75037 -9.83131,7.59039 -10,14 m -36,18 c 3.07643,20.83142 11.47263,46.73859 20,66 8.47284,-5.96838 15.19699,-13.92621 24,-19.65509 15.29952,-9.95667 32.81002,-15.94824 50,-21.67822 8.97162,-2.99054 18.03186,-5.67792 27,-8.66669 2.85147,-0.95032 8.2071,-1.71466 9.88196,-4.51001 1.7023,-2.84119 -0.64343,-7.69238 -1.5517,-10.48999 -2.79464,-8.60791 -5.36355,-17.31372 -7.90588,-26 -0.91083,-3.112 -1.52695,-8.74561 -5.55786,-9.24072 -9.12949,-1.1214 -23.05954,6.56366 -31.86652,9.09948 -27.97644,8.05549 -55.62097,18.63538 -84,25.14124 m -99.000004,-24 c 1.487358,23.10266 0,46.83136 0,70 0,5.84564 -2.684486,20.70947 1.027779,25.39661 3.447471,4.35278 20.732785,1.60339 25.972225,1.60339 24.79844,0 50.28062,-1.70093 75,0 -1.11169,-53.86182 -49.7812,-97 -102.000004,-97 m 235.000004,19 7,28 29,-8 c -5.51507,-15.81201 -20.39154,-21.9726 -36,-20 m 290,-1 -1,1 1,-1 m 233,13.3457 c -4.79785,1.19605 -9.62744,8.28174 -13,11.6543 -10.18109,10.18109 -20.828,19.828 -31,30 -2.94098,2.94098 -11.88629,9.17273 -10.65435,13.98535 1.4754,5.76373 11.81268,9.94245 16.65435,12.23377 18.68482,8.84259 41.13697,10.20007 61,4.89587 7.56916,-2.0213 30.79322,-10.27332 30.79322,-20.11499 0,-3.50269 -4.57117,-6.77325 -6.79322,-9 l -20,-20 c -6.33142,-6.33142 -12.60229,-12.73096 -19,-18.99536 -2.02258,-1.98047 -4.76239,-5.46607 -8,-4.65894 m -209,12.6543 c 0,17.97455 -4.08728,41.78961 1,59 l 50,-7 c -4.20184,-22.41699 -27.88336,-49.01959 -51,-52 m -426,53 h 238 c -0.002,-18.65332 -27.64703,-27.9538 -43,-33.68054 -47.15051,-17.58747 -99.41607,-14.55261 -146,3.49151 -12.79068,4.95441 -25.09688,10.8031 -37,17.61652 -5.49887,3.14752 -11.46983,5.68945 -12,12.57251 m -3,-9 -1,1 1,-1 m 431,13 -1,1 z"
       id="path1" />
  </g>
</svg>
