<svg version="1.2" xmlns="http://www.w3.org/2000/svg" viewBox="0 0 1767 195" width="1767" height="195">
	<title>CMYK_Bårder-malva(1)</title>
	<style>
		.s0 { fill: #e7d5e8 } 
	</style>
	<g id="Typografi">
		<g id="&lt;Group&gt;">
			<path id="&lt;Path&gt;" class="s0" d="m1210.3 58.2c0 47.8 0 68.2 0 111.4 17.8 6.4 38.1-7.6 50.7-30.5 10.5-19.2 8.9-80.5-50.7-80.9z"/>
			<path id="&lt;Path&gt;" class="s0" d="m579.7 4.4c-101.3-0.3-144.3-0.4-235.8-0.7-13.5 40.7 15.9 87.2 64.2 116.2 40.5 24.2 170.3 20.9 171.6-115.5z"/>
			<path id="&lt;Path&gt;" class="s0" d="m888.8 73.1c-14.9 27.5-32.7 25.3-52 7 7.5-3.6 15.1-10.1 19.7-18.2 2.2-3.5 3.4-7.5 5.4-11z"/>
			<path id="&lt;Path&gt;" class="s0" d="m991.5 100.7c-52.9-4.1-95.5 52.1-94.3 93l94.2 0.2z"/>
			<path id="&lt;Path&gt;" class="s0" d="m836.7 44.5c24 2.6 44.1-22.4 44.1-41.1l-42.9-1.3z"/>
			<path id="&lt;Path&gt;" class="s0" d="m590.8 190.1c-1.1-7.5-9.1-41.3 27.1-63.8 36.1-22.5 66.6-40.6 59.3-83.5-7.3-43-66.1-40.4-74.1-40.5 9.3 4 21.6 36.8-20.6 74.1-42.3 37.2-67.5 64.3-39.3 94.7 19.6 21 41.9 19 47.6 19z"/>
			<path id="&lt;Path&gt;" class="s0" d="m595.3 193.1h58.9l-9.2-69.4c-25.4 11.7-42 37-49.7 69.4z"/>
			<path id="&lt;Path&gt;" class="s0" d="m123.2 102.2l-11.4-99.2 109.9 1.9c-13.2 45.1-49.5 78-98.5 97.3z"/>
			<path id="&lt;Path&gt;" class="s0" d="m1646.7 191.4l-31.2-38.4 46.8-30.8c6.4 22.8-0.1 47.1-15.6 69.2z"/>
			<path id="&lt;Path&gt;" class="s0" d="m1349.4 53.7l4.5-48.9-53.9 2.3c6.9 21.9 25.1 37.7 49.4 46.6z"/>
			<path id="&lt;Path&gt;" class="s0" d="m650.2 114.8l9.7 79.2 35.8 0.2c51.3-51.5 81.1-119.9 84.4-192.4l-49.8-0.4c-8.7 44.3-34.4 91.4-80.1 113.4z"/>
			<path id="&lt;Path&gt;" class="s0" d="m770.8 110.9l-38.7 60.9 24.7 22.4c65.1-3.9 124.8-32.9 168.7-81l-34.4-31.1c-31.3 25.2-76.1 41.9-120.3 28.8z"/>
			<path id="&lt;Path&gt;" class="s0" d="m1294.9 113.1l60.5-8 0.1-29.6c-39.3-42.4-91.5-67-146.9-69.7l-0.3 41.1c33.8 7.2 69.8 28.5 86.6 66.2z"/>
			<path id="&lt;Path&gt;" class="s0" d="m939.9 103.6l-68.5-52.1 19-36.1c75.4-24.2 154.9-17.4 224.2 18l-26.4 50.4c-45.8-15.1-103.4-14.3-148.3 19.8z"/>
			<path id="&lt;Path&gt;" class="s0" d="m240.4 2.7l86.9-0.6 5.6 41.7c-47.8 67.7-117.1 112.7-194.8 127.5l-7.8-58.1c46.3-16.7 93.3-53.9 110.1-110.5z"/>
			<path id="&lt;Path&gt;" class="s0" d="m1767.2 3.3h-2.6c-26.7 42.5-28.5 92-2.5 127.6h5.1c0-51.5 0-59.2 0-127.6z"/>
			<path id="&lt;Path&gt;" class="s0" d="m1625.1 192.1v-8.7c-130-88.3-281.6-94.5-390.6-8.2v16.9c157.8 0 181.3 0 390.6 0z"/>
			<path id="&lt;Path&gt;" class="s0" d="m0 191h3.9c40-63.6 42.7-137.7 3.8-191.1h-7.7c0 77.2 0 88.7 0 191.1z"/>
			<path id="&lt;Path&gt;" class="s0" d="m1682.9 191.4l-21.1-189.4h58.8c2.5 53.6 16.8 107.5 44.4 153l-18.6 36.4z"/>
			<path id="&lt;Path&gt;" class="s0" d="m1651.1 3.7l-293.3-1 10.6 97.2c82.3-5.4 167.2 8.6 241.8 46.1l52.3-37.3-11.4-105z"/>
			<path id="&lt;Path&gt;" class="s0" d="m519.6 168.6l-84.9-3 4.1-27.9c23.7 2.4 48.4-0.7 70.4-10.7l14.7 11.3-4.3 30.3z"/>
			<path id="&lt;Path&gt;" class="s0" d="m691.1 6.6l-10.5 79.3 3.8 2.1 29.5-52.2-7.8-24.5z"/>
			<path id="&lt;Path&gt;" class="s0" d="m431.2 193.4l-260.3 1.6-5.3-13.9 181.6-80.2 75.7 37.8z"/>
			<path id="&lt;Path&gt;" class="s0" d="m1200.3 4.8h-72.5c-3.1 66.1 5.3 132.6-28.8 188.8h101.3z"/>
			<path id="&lt;Path&gt;" class="s0" d="m830.4 127.8l0.1-124.9h-38.8c-1.6 35.4 2.8 70.9-15.4 100.9h12.3 41.9z"/>
			<path id="&lt;Path&gt;" class="s0" d="m449.8 172.3v21.6h53.8v-21.6z"/>
			<path id="&lt;Path&gt;" class="s0" d="m1010.1 79.8c32.6 2.8 60.2 4.5 110.6 18.4 0 0-11.4 44.1-11.9 44-31.9-10.6-80.1-18.8-110.4-19.2z"/>
			<path id="&lt;Path&gt;" class="s0" d="m1007 125.1c26.1 4.3 48.3 7.5 88.3 21.8 0 0-11.8 35-12.2 34.8-25.2-10.5-63.7-20.2-88.1-22.4z"/>
			<path id="&lt;Path&gt;" class="s0" d="m1000.9 171.1c14.3 0.1 26.3 0 48.8 4.3 0 0-3.7 19.7-3.9 19.6-14.3-3.5-35.5-5.5-48.7-4.7z"/>
			<path id="&lt;Path&gt;" class="s0" d="m99.1 1.1c10.7 55.1 20.6 101.5 22.5 191.3 0 0-72.7 1.3-72.7 0.4 1.5-57.7-7.9-141.1-21.1-191.3z"/>
		</g>
	</g>
	<g id="1. Orginal.u.bakgrund">
	</g>
	<g id="1.1 med text">
	</g>
	<g id="1.2 Färgskala">
	</g>
	<g id="2. Orginal.m bakgrund">
	</g>
	<g id="2.1 med text">
	</g>
	<g id="2.2 bara text">
	</g>
	<g id="3. Inverterat grön">
	</g>
	<g id="3.1 med text">
	</g>
	<g id="3.2 bara text">
	</g>
	<g id="4. Inverterat mörkblå">
	</g>
	<g id="4.1 med text">
	</g>
	<g id="4.2 bara text">
	</g>
</svg>