<?xml version="1.0" encoding="UTF-8" standalone="no"?>
<!-- Created with Inkscape (http://www.inkscape.org/) -->

<svg
   width="147.93753mm"
   height="189.99019mm"
   viewBox="0 0 147.93753 189.99019"
   version="1.1"
   id="svg1"
   xml:space="preserve"
   xmlns="http://www.w3.org/2000/svg"
   xmlns:svg="http://www.w3.org/2000/svg"><defs
     id="defs1" /><g
     id="layer1"
     transform="translate(-25.417526,-16.882708)"><path
       id="path20"
       class="s1"
       d="M 28.742237,16.882708 H 170.03034 c 1.83101,0 3.32471,1.493705 3.32471,3.324718 V 203.54818 c 0,1.83101 -1.4937,3.32472 -3.32471,3.32472 H 28.742237 c -1.830992,0 -3.324711,-1.49371 -3.324711,-3.32472 V 20.207426 c 0,-1.831013 1.493719,-3.324718 3.324711,-3.324718 z"
       style="fill:#2f222d;stroke-width:0.120461" /><g
       id="g137"
       transform="matrix(2.0124966,0,0,2.0124966,-89.030592,-52.031272)"><g
         id="g136"><g
           id="g135"
           transform="translate(-9.3450566,-27.363981)"
           style="fill:#ff5a5a;fill-opacity:1"><path
             id="path42"
             style="fill:#ff5a5a;fill-opacity:1"
             d="m 105.54911,115.23224 c -0.1276,0.0425 -0.24603,0.40261 -0.80977,2.46083 -0.77844,2.84216 -1.3746,5.08054 -1.37562,5.16403 -0.003,0.23624 0.27609,0.0585 0.72243,-0.46044 1.03811,-1.20695 2.03916,-3.45131 2.03916,-4.57129 0,-0.85861 -0.39869,-2.6523 -0.5762,-2.59313 z m 1.86759,1.95389 c -0.19155,0.0362 -0.36505,0.12694 -0.49713,0.26872 -0.30022,0.32225 -0.34848,0.76307 -0.11007,1.00149 0.228,0.22799 0.89935,0.19383 1.17977,-0.06 0.30257,-0.27382 0.32417,-1.03736 0.0326,-1.14928 -0.20409,-0.0783 -0.41358,-0.0971 -0.60513,-0.061 z m 2.46135,1.45676 c -0.0793,-0.0866 -1.36482,0.26853 -1.911,0.52813 -0.89632,0.42602 -1.50927,0.97064 -1.90014,1.68879 -0.19414,0.35669 -0.32065,0.64854 -0.28112,0.64854 0.0395,0 0.51262,-0.31053 1.0511,-0.6904 0.53848,-0.37987 1.4508,-1.01643 2.02727,-1.41439 0.57647,-0.39796 1.0327,-0.74012 1.01389,-0.76067 z" /><path
             id="path41"
             style="fill:#ff5a5a;fill-opacity:1"
             d="m 117.33754,112.63033 c -0.15536,-0.008 -0.50002,0.0603 -1.03198,0.20464 -1.7707,0.4804 -3.28232,1.4332 -4.10311,2.58589 -0.21613,0.30353 -0.81465,1.66638 -0.81493,1.8557 -1.9e-4,0.1214 0.43642,-0.19095 2.63498,-1.88567 1.31416,-1.013 2.51678,-1.95109 2.6727,-2.08514 0.15592,-0.13405 0.39812,-0.32533 0.53847,-0.42478 0.22508,-0.15948 0.25924,-0.24296 0.10387,-0.25064 z" /><path
             id="path40"
             style="fill:#ff5a5a;fill-opacity:1"
             d="m 105.0184,110.32608 c -0.36406,0 -0.822,0.54228 -0.66818,0.79117 0.0492,0.0796 0.27599,0.12655 0.50436,0.10438 0.36223,-0.0352 0.42086,-0.0952 0.45682,-0.46818 0.0367,-0.38099 0.005,-0.42737 -0.293,-0.42737 z" /><path
             id="path39"
             style="fill:#ff5a5a;fill-opacity:1"
             d="m 101.65219,105.43749 c 0,-0.24621 -1.74354,0.61001 -2.510955,1.233 -0.36216,0.294 -0.865729,1.20165 -0.966349,1.74201 l -0.09664,0.52039 1.030428,-1.00046 c 0.566831,-0.55016 1.370926,-1.3123 1.786976,-1.69395 0.41605,-0.38164 0.75654,-0.74221 0.75654,-0.80099 z m -1.64434,2.65204 c -0.0309,0 -0.29643,0.25163 -0.589629,0.55914 -0.47171,0.49477 -0.524046,0.61212 -0.455786,1.01957 0.13856,0.82718 0.622838,2.36833 0.744141,2.36833 0.11362,0 0.328584,0.0922 2.179194,0.93793 0.45404,0.20749 0.84851,0.37724 0.87643,0.37724 0.0279,0 0.48493,0.20068 1.01596,0.44545 0.85681,0.39491 1.25435,0.56336 1.40767,0.59686 0.0261,0.006 0.007,-0.2086 -0.0434,-0.47594 -0.23259,-1.23983 -1.28456,-2.5964 -2.39469,-3.0887 -0.37992,-0.16848 -0.87737,-0.62734 -1.61644,-1.49138 -0.5872,-0.68652 -1.09256,-1.2485 -1.12344,-1.2485 z" /><path
             id="path38"
             style="fill:#ff5a5a;fill-opacity:1"
             d="m 109.68374,105.1481 -0.2005,0.48008 c -0.25681,0.61462 -0.26888,1.54047 -0.0202,1.54047 0.0992,0 0.42887,-0.22219 0.73277,-0.49351 l 0.5519,-0.49299 -0.53227,-0.51728 z" /><path
             id="path37"
             style="fill:#ff5a5a;fill-opacity:1"
             d="m 84.211914,104.37244 -0.353983,0.46405 c -0.542848,0.71171 -1.018543,1.6751 -1.018543,2.06293 0,0.36653 0.1649,0.62147 1.919263,2.96623 2.81178,3.75802 7.106355,7.77436 10.710457,10.01695 1.387745,0.86349 4.331506,2.24887 5.799132,2.72904 l 1.36426,0.44648 0.15812,-0.34726 c 0.0869,-0.19093 0.24753,-0.73219 0.35709,-1.20251 0.10957,-0.47032 0.41369,-1.65403 0.67593,-2.63085 0.68877,-2.5656 1.00573,-3.84194 0.96014,-3.86747 -0.20582,-0.11524 -0.89498,-0.41363 -1.88153,-0.81442 -3.56886,-1.44985 -6.488807,-3.43393 -8.062044,-5.47821 -0.613078,-0.79664 -1.56526,-2.61834 -1.687236,-3.22823 -0.07352,-0.36758 -0.143462,-0.42198 -0.626318,-0.48628 -0.549958,-0.0732 -4.567872,-0.3862 -6.994922,-0.54467 z m 10.325985,2.27015 c -0.18842,0 0.134529,0.8389 0.568441,1.47639 0.444515,0.65307 1.219666,1.28859 1.968355,1.61386 0.50822,0.22079 0.630969,0.23802 0.630969,0.0894 0,-0.13867 -3.029623,-3.17965 -3.167765,-3.17965 z" /><path
             id="path36"
             style="fill:#ff5a5a;fill-opacity:1"
             d="m 82.543282,101.07962 c -0.187733,0.10122 -0.10727,1.45748 0.0987,1.66346 0.204514,0.20451 0.789016,0.34791 2.696993,0.66249 1.760362,0.29024 1.816558,0.2836 1.912028,-0.2253 0.04503,-0.24002 0.06242,-0.63914 0.03876,-0.88729 l -0.04341,-0.45113 -1.315165,-0.23048 c -0.723568,-0.12655 -1.760026,-0.30956 -2.302702,-0.40721 -0.542677,-0.0977 -1.030938,-0.15379 -1.085204,-0.12454 z" /><path
             id="path35"
             style="fill:#ff5a5a;fill-opacity:1"
             d="m 103.04332,100.94629 c -0.87744,0.028 -2.66179,0.4213 -3.562054,0.78497 -1.80563,0.72944 -3.437788,1.62047 -4.209562,2.29753 -0.217071,0.19043 -0.565315,0.49004 -0.774113,0.66611 l -0.379822,0.3204 0.708484,0.66921 c 0.9003,0.85073 1.614176,1.47938 1.683102,1.48208 0.02949,0.001 0.35501,-0.22754 0.72347,-0.50798 1.61395,-1.22842 2.964235,-1.82717 4.393525,-1.94821 l 0.96067,-0.0811 1.125,-1.37821 1.12551,-1.37821 -0.47749,-0.47646 c -0.45729,-0.45651 -0.51275,-0.47577 -1.31672,-0.4501 z" /><path
             id="path34"
             style="fill:#ff5a5a;fill-opacity:1"
             d="m 125.89102,100.93906 c -0.0547,-0.0338 -0.30631,0.0378 -0.55914,0.15916 -0.25283,0.12141 -1.30083,0.59854 -2.32854,1.0604 -1.76287,0.79226 -1.8599,0.85542 -1.72185,1.1157 0.0805,0.15174 0.45333,0.77919 0.82889,1.39423 0.37557,0.61503 0.82118,1.36989 0.99012,1.67741 0.16894,0.30752 0.35305,0.55914 0.40927,0.55914 0.0562,0 0.22856,-0.13331 0.38293,-0.2961 0.84905,-0.89541 1.64309,-2.43154 1.91771,-3.71037 0.19136,-0.89115 0.23152,-1.86633 0.0806,-1.95957 z" /><path
             id="path33"
             style="fill:#ff5a5a;fill-opacity:1"
             d="m 94.649003,100.3825 c -0.508409,-0.0828 -1.047235,0.0639 -1.435054,0.46974 -0.317764,0.33251 -0.375607,0.50098 -0.372071,1.08572 0.0046,0.76311 0.159092,1.04703 0.731739,1.34566 0.495184,0.25824 1.016624,0.25422 1.532206,-0.0124 0.888412,-0.45942 1.192269,-1.21634 0.7953,-1.98128 -0.265819,-0.51222 -0.743711,-0.82467 -1.25212,-0.90744 z" /><path
             id="path32"
             style="fill:#ff5a5a;fill-opacity:1"
             d="m 113.91398,99.392383 c -0.58984,0.0063 -1.19178,0.107687 -1.5968,0.302307 -0.90685,0.4358 -1.91081,1.52448 -2.10065,2.27841 -0.45043,1.78881 0.73228,3.71299 2.5523,4.15221 0.67843,0.16373 1.09968,0.13073 1.94458,-0.1509 1.57443,-0.52481 2.6771,-2.04467 2.56884,-3.54139 -0.0893,-1.23452 -0.72186,-2.1847 -1.84433,-2.771403 -0.35672,-0.18645 -0.9341,-0.275567 -1.52394,-0.269234 z m 8.05119,2.150777 c -0.0456,-0.0145 -0.13298,-0.011 -0.26666,0.0155 -0.20803,0.0413 -0.93493,0.17383 -1.6154,0.29455 -1.16296,0.20632 -1.21871,0.23073 -0.92139,0.40205 0.40005,0.23052 1.40305,0.12666 2.17454,-0.2248 0.52258,-0.23806 0.76559,-0.44391 0.62891,-0.4873 z m -3.57911,1.54719 c -0.0638,0 -0.1895,0.25162 -0.27957,0.55914 -0.41733,1.42477 -1.51423,2.58044 -2.98277,3.14347 -0.49936,0.19146 -1.7367,0.50823 -2.7497,0.70384 -2.96139,0.57186 -3.90054,0.91193 -4.9537,1.79369 -1.30121,1.08943 -1.97276,2.75875 -1.68052,4.177 0.19361,0.93958 0.40652,1.34948 1.08417,2.08463 0.63718,0.69125 1.44737,1.27519 2.45877,1.7725 1.00987,0.49655 1.05213,0.48402 1.05213,-0.30747 0,-0.89243 0.39017,-1.6528 1.33325,-2.59881 0.8132,-0.81573 1.78696,-1.35255 3.64215,-2.00763 2.61227,-0.92241 3.77373,-1.42778 4.75992,-2.07223 0.83972,-0.54874 1.08708,-0.80484 1.46709,-1.5198 0.61711,-1.16106 -0.0257,-3.37227 -1.33686,-4.59868 -0.56586,-0.52929 -1.53012,-1.12965 -1.81436,-1.12965 z" /><path
             id="path31"
             style="fill:#ff5a5a;fill-opacity:1"
             d="m 106.14288,98.846163 c -0.0927,-0.01196 -0.25716,0.01356 -0.54416,0.07028 -0.57349,0.11339 -0.65784,0.171022 -0.65784,0.450102 0,0.35305 0.21533,0.829405 0.37466,0.829405 0.056,0 0.19311,-0.0744 0.30489,-0.16485 0.30218,-0.244504 0.63613,-0.785388 0.63613,-1.029908 0,-0.09377 -0.021,-0.143065 -0.11368,-0.155029 z" /><path
             id="path30"
             style="fill:#ff5a5a;fill-opacity:1"
             d="m 88.656087,92.960217 -0.07751,1.150834 c -0.04243,0.633122 -0.112535,1.832337 -0.156063,2.664437 -0.04353,0.8321 -0.100446,1.764188 -0.126091,2.071708 -0.02565,0.30751 0.0016,0.559139 0.06046,0.559139 0.05886,0 0.643905,-0.944673 1.300179,-2.099613 l 1.193725,-2.10013 -0.289388,-0.856279 c -0.393568,-1.16561 -0.607788,-1.390096 -1.326017,-1.390096 z m 4.168221,1.872754 c -0.120558,0.03881 -0.225559,0.155566 -0.429431,0.387573 -1.472828,1.676092 -2.122451,2.613692 -2.85564,4.120162 -0.805307,1.654644 -1.397654,4.008734 -1.086755,4.319634 0.04824,0.0482 0.717904,0.0873 1.488281,0.0873 h 1.400948 l 0.36897,-1.28261 c 0.500044,-1.73692 0.892134,-2.46202 1.809192,-3.345529 l 0.776697,-0.747758 -0.203089,-1.549259 c -0.11174,-0.85204 -0.203088,-1.593593 -0.203088,-1.647962 0,-0.05437 -0.243779,-0.171746 -0.541569,-0.260966 -0.267688,-0.0802 -0.403957,-0.119431 -0.524516,-0.08061 z m 17.508492,1.438155 c -0.26935,-0.0075 -0.67389,0.420301 -1.57665,1.569414 -0.68739,0.87496 -1.30946,1.658999 -1.38286,1.742529 -0.0734,0.0835 -0.33961,0.418541 -0.59118,0.744141 -0.25156,0.32561 -0.50426,0.65111 -0.56172,0.72347 -0.31582,0.39769 -3.21999,4.06641 -4.20646,5.31389 -0.63312,0.80062 -1.15084,1.50384 -1.15084,1.56269 0,0.0589 0.31052,0.26826 0.6904,0.46561 0.37987,0.19735 0.957,0.53103 1.28261,0.74104 0.3256,0.21 0.63692,0.38654 0.69195,0.39222 0.055,0.006 1.15752,-0.51909 2.44946,-1.16582 l 2.34869,-1.17564 0.1571,-0.62373 c 0.0864,-0.34306 0.27038,-1.16113 0.40876,-1.81746 0.13839,-0.65634 0.40313,-1.84422 0.5886,-2.64015 1.03716,-4.450835 1.23997,-5.508674 1.08985,-5.690094 -0.0733,-0.0886 -0.14793,-0.139604 -0.23771,-0.14211 z M 75.404183,97.4571 c -0.145168,0.14517 0.738367,2.409001 1.292428,3.31143 1.230916,2.00484 3.07307,3.49104 5.017264,4.04781 0.873939,0.25028 1.125513,0.28799 1.125513,0.16795 0,-0.0435 -1.3986,-1.49009 -3.107821,-3.21479 -1.709222,-1.72469 -3.367305,-3.415161 -3.685046,-3.756361 -0.317741,-0.3412 -0.606804,-0.591569 -0.642338,-0.556039 z m 25.512137,0.206706 c -0.10788,-0.0661 -0.39488,0.299118 -0.87953,1.118278 -1.063156,1.796886 -1.054967,1.777416 -0.784967,1.857766 0.545867,0.16244 2.488287,-0.0179 3.097487,-0.28732 1.29411,-0.572449 1.29611,-0.520898 -0.0636,-1.616438 -0.6649,-0.53576 -1.28131,-1.018276 -1.36943,-1.072286 z m 14.64872,0.05013 -0.51005,0.337447 c -0.28056,0.18567 -0.51004,0.381416 -0.51004,0.435116 0,0.17672 0.84645,0.519389 1.29087,0.522449 l 0.43564,0.0026 -0.35295,-0.64854 z m -4.28191,0.08113 -0.19844,0.312643 c -0.21948,0.34546 -0.4334,1.430403 -0.28215,1.430403 0.0527,0 0.3541,-0.129431 0.67024,-0.287321 0.64351,-0.32139 0.66786,-0.567982 0.11214,-1.143082 z m 18.65002,0.559139 c -0.18033,0 -0.71946,0.339738 -1.40973,0.888318 -0.70278,0.55854 -1.30618,1.428137 -1.55133,2.236037 -0.20353,0.67077 -0.25489,1.48215 -0.0935,1.47588 0.0543,-0.002 0.79425,-1.03805 1.64486,-2.30219 0.85062,-1.264121 1.48506,-2.298045 1.40973,-2.298045 z" /><path
             id="path29"
             style="fill:#ff5a5a;fill-opacity:1"
             d="m 103.0795,92.930245 c -0.1,0.01563 -0.14167,0.06353 -0.16589,0.149862 -0.0322,0.114975 -0.18548,0.741467 -0.34003,1.392679 -0.15456,0.651212 -0.4083,1.551092 -0.5643,1.999362 -0.15601,0.44827 -0.2401,0.858539 -0.18655,0.912089 0.12613,0.12613 1.14519,0.272492 1.43195,0.205672 0.14299,-0.0333 0.31495,-0.361399 0.48524,-0.926559 0.75945,-2.520571 0.94656,-3.565094 0.64182,-3.579626 -0.0904,-0.0043 -0.44452,-0.05367 -0.78703,-0.110071 -0.25718,-0.04234 -0.41522,-0.05904 -0.51521,-0.04341 z" /><path
             id="path28"
             style="fill:#ff5a5a;fill-opacity:1"
             d="m 111.60197,91.303988 c -0.15914,-0.06107 -1.81922,0.984115 -1.9823,1.247985 -0.0344,0.05568 0.0847,0.317799 0.26458,0.582394 0.76717,1.12899 1.86302,3.008288 2.45308,4.206978 l 0.63459,1.289327 0.53485,-0.30024 c 0.29404,-0.16526 0.73916,-0.499353 0.98908,-0.742073 0.547,-0.53124 0.55382,-0.495124 -0.49557,-2.510958 -0.90089,-1.730598 -2.13518,-3.672442 -2.39831,-3.773413 z" /><path
             id="path27"
             style="fill:#ff5a5a;fill-opacity:1"
             d="m 105.53929,90.745365 c -0.0347,0.04052 -0.19882,0.906329 -0.86868,4.582666 -0.13844,0.75975 -0.31451,1.723165 -0.39119,2.140955 -0.0767,0.41779 -0.10023,0.82238 -0.0527,0.89917 0.12563,0.20328 1.5981,0.007 2.18695,-0.291972 0.56027,-0.28415 1.3499,-1.057035 1.66501,-1.629875 0.16293,-0.29618 0.21705,-0.739491 0.21705,-1.776119 0,-1.260304 -0.0306,-1.432875 -0.35037,-1.973006 -0.48742,-0.823287 -1.1273,-1.443322 -1.79834,-1.742012 -0.31353,-0.139556 -0.58703,-0.233943 -0.60772,-0.209807 z" /><path
             id="path26"
             style="fill:#ff5a5a;fill-opacity:1"
             d="m 96.388949,89.963501 c -0.302481,-0.03356 -0.394093,0.108681 -1.182874,1.829862 -0.47032,1.026273 -0.877158,1.921943 -0.903821,1.990577 -0.04322,0.111253 1.912421,-1.176848 2.526978,-1.664498 0.54126,-0.429485 0.203277,-2.08453 -0.440283,-2.155941 z" /><path
             id="path25"
             style="fill:#ff5a5a;fill-opacity:1"
             d="m 111.70274,82.567053 c -0.23611,0 -2.42,0.648208 -2.42,0.718303 0,0.0246 0.23855,0.563582 0.5302,1.197859 l 0.5302,1.153418 0.47232,-0.449585 c 0.25989,-0.247199 0.61261,-0.745124 0.78393,-1.106909 0.36954,-0.780343 0.41983,-1.513086 0.10335,-1.513086 z" /><path
             id="path24"
             style="fill:#ff5a5a;fill-opacity:1"
             d="m 116.72104,82.439929 c -0.10537,-0.08746 -0.54516,-0.06025 -1.33118,0.08217 -0.64557,0.116974 -1.38784,0.225814 -1.64952,0.241845 -0.26169,0.01603 -0.54466,0.07144 -0.6289,0.123507 -0.21257,0.131374 -1.53789,2.801846 -1.93011,3.889168 l -0.32298,0.89607 0.64389,1.097607 c 1.47636,2.515656 4.09484,7.20846 4.09484,7.33857 0,0.0772 0.0499,0.140043 0.11059,0.140043 0.0607,0 0.18359,0.162755 0.27285,0.361735 0.28045,0.62519 0.80746,1.480013 0.9126,1.480013 0.0555,0 0.21264,-0.08145 0.34934,-0.181384 0.22619,-0.16539 0.24626,-0.352796 0.22117,-2.079976 -0.0152,-1.043815 -0.11984,-3.196506 -0.23254,-4.784204 -0.11271,-1.587698 -0.23835,-4.14415 -0.27906,-5.68079 -0.051,-1.926697 -0.12247,-2.834309 -0.23099,-2.92437 z" /><path
             id="path23"
             style="fill:#ff5a5a;fill-opacity:1"
             d="m 90.340739,66.253837 c -1.041724,0 -1.186612,0.02831 -1.187524,0.230477 -0.0052,1.163099 -0.269933,11.907855 -0.335381,13.616223 -0.04643,1.211977 -0.0396,2.203483 0.01499,2.203483 0.05459,0 0.293503,-0.14837 0.531233,-0.329695 0.23773,-0.181326 2.818946,-1.920697 5.735568,-3.864881 2.916622,-1.944184 5.565555,-3.769111 5.886975,-4.055566 l 0.58446,-0.520899 -0.34468,-0.588077 c -0.99174,-1.692266 -2.92291,-3.808918 -4.2447,-4.65243 -2.074393,-1.323794 -4.402965,-2.038635 -6.640938,-2.038635 z m 26.440761,0.100252 -1.15135,0.08888 c -2.45402,0.189292 -4.54395,0.762524 -6.21719,1.705322 -1.03935,0.585626 -3.25362,2.708295 -3.92534,3.762561 -0.11526,0.180892 -0.49286,0.70745 -0.83871,1.170471 -0.34584,0.463021 -0.6289,0.880068 -0.6289,0.926559 0,0.04649 0.19272,0.174658 0.42788,0.284737 0.23516,0.110079 1.04892,0.529853 1.80867,0.932759 1.40958,0.747523 2.52969,1.332452 6.55361,3.423564 1.25292,0.651109 2.58544,1.352182 2.96054,1.557528 0.3751,0.205346 0.71711,0.376511 0.76016,0.380338 0.0431,0.0038 0.11693,-0.801813 0.16433,-1.790071 0.0474,-0.988257 0.0863,-4.191892 0.0863,-7.119462 z m -28.903143,5.17e-4 -1.828829,0.05943 c -1.645221,0.05379 -1.939067,0.101523 -2.926953,0.471806 -4.129621,1.547882 -7.852062,4.660836 -10.14305,8.482686 -1.352532,2.256308 -1.995217,4.235032 -2.239657,6.89467 -0.303304,3.300108 0.410224,7.332282 1.78077,10.062435 1.368325,2.725729 3.935083,5.228531 6.789766,6.621301 2.13975,1.04396 4.952209,1.722946 7.291545,1.760096 l 0.93431,0.015 0.08527,-7.59747 c 0.04683,-4.178607 0.123738,-11.91149 0.171049,-17.183964 z m 30.056043,0.491443 0.0176,1.512569 c 0.12702,10.950815 0.418,29.672755 0.48266,31.051335 l 0.0837,1.779217 1.24282,-0.0997 c 0.68374,-0.055 1.93595,-0.24084 2.78277,-0.41238 4.76962,-0.966203 8.51596,-3.722494 10.62209,-7.815545 2.22075,-4.315783 2.569,-11.047735 0.77773,-15.030607 -1.17859,-2.62058 -3.63897,-5.730111 -5.78259,-7.307564 -0.28943,-0.212984 -0.55603,-0.424307 -0.59221,-0.469739 -0.11718,-0.147156 -2.28614,-1.522017 -2.84996,-1.806608 -1.79041,-0.903726 -3.6651,-1.38626 -5.42086,-1.394747 z m -15.80988,7.432621 c -0.0987,0 -0.73377,0.425806 -1.41129,0.946196 -0.67751,0.52039 -1.735202,1.321711 -2.350242,1.780253 -0.61503,0.458541 -1.206635,0.906189 -1.315165,0.995288 -0.10853,0.0891 -0.818968,0.62929 -1.578715,1.200443 -0.759747,0.571153 -2.544469,1.916922 -3.966166,2.989999 l -2.585372,1.950785 -0.07493,1.613855 c -0.04138,0.887492 -0.107694,2.508623 -0.147278,3.602881 l -0.07183,1.989543 2.058272,1.342037 c 1.132053,0.737961 2.101665,1.292992 2.154908,1.233516 0.05324,-0.05948 0.415911,-0.730085 0.805635,-1.489832 0.389723,-0.759746 0.737935,-1.411076 0.774113,-1.447456 0.03618,-0.03638 0.531987,-0.983452 1.101742,-2.104782 1.717908,-3.381008 2.871532,-5.583808 2.994132,-5.716963 0.0726,-0.0789 0.188969,-0.05236 0.311609,0.07028 0.17329,0.173287 0.151594,0.300922 -0.189136,1.112593 -0.71984,1.714731 -0.963007,2.952146 -0.901237,4.585767 0.0324,0.857707 0.133243,1.641475 0.243913,1.897042 0.18454,0.426126 0.194182,0.43054 0.451652,0.195337 0.30162,-0.275526 2.115785,-1.679827 3.739825,-2.894914 l 1.10846,-0.829407 0.3054,0.286804 c 0.1681,0.157921 0.30593,0.324125 0.30593,0.36897 0,0.04484 -0.66599,0.57833 -1.48001,1.185974 -0.81401,0.607643 -1.66406,1.256682 -1.88878,1.441773 -0.22472,0.185092 -0.550216,0.439221 -0.723466,0.564823 -0.173256,0.125601 -1.230521,0.925313 -2.349211,1.777153 -1.747186,1.33042 -2.048892,1.613593 -2.141471,2.008146 -0.05928,0.252625 -0.144231,1.361776 -0.188619,2.464966 l -0.08062,2.005562 0.467672,0.441317 c 0.594306,0.560501 2.224923,1.659261 2.398303,1.615921 0.0724,-0.0181 1.552629,-2.873867 3.289212,-6.345865 1.73657,-3.471995 3.20609,-6.385038 3.26543,-6.473507 0.078,-0.116279 0.24174,-0.0375 0.5917,0.284221 2.64469,2.431289 3.59102,3.272083 3.63388,3.228743 0.40186,-0.406278 1.78387,-2.441288 1.78387,-2.626713 0,-0.137179 -0.35547,-1.109427 -0.78961,-2.160592 -0.43414,-1.051165 -0.7891,-1.962122 -0.7891,-2.024682 0,-0.06256 -0.22217,-0.175799 -0.49351,-0.251665 -0.45293,-0.126638 -5.11881,-1.534231 -7.13703,-2.15284 -0.47032,-0.144159 -1.14227,-0.342048 -1.493457,-0.440283 -0.797783,-0.22316 -0.826585,-0.253944 -0.612365,-0.654224 0.13294,-0.248402 0.256892,-0.314055 0.51573,-0.273368 1.723642,0.27095 2.814002,0.172678 3.196192,-0.287838 0.12548,-0.151193 0.0784,-0.255878 -0.24236,-0.537434 -0.21926,-0.192458 -0.75585,-0.663925 -1.19218,-1.047482 l -0.79323,-0.697632 0.70952,-1.34152 c 1.50363,-2.843527 1.432,-2.658574 1.18132,-3.041158 -0.12239,-0.186785 -0.30338,-0.340031 -0.40204,-0.340031 z m 1.44952,0.679029 c -0.0173,0.02467 -0.21528,0.464667 -0.44028,0.977718 -0.60238,1.373577 -0.65115,1.782575 -0.28319,2.383833 0.50229,0.820754 2.10566,2.946271 2.26808,3.006535 0.0831,0.03084 2.25326,0.162901 4.82193,0.293006 4.40948,0.223345 5.26221,0.206015 5.26221,-0.106971 0,-0.111708 -4.92477,-2.891296 -5.12269,-2.891296 -0.0768,0 -0.13952,-0.05942 -0.13952,-0.131775 0,-0.07236 -0.0512,-0.131775 -0.11318,-0.131775 -0.0621,0 -1.48725,-0.774638 -3.16724,-1.721858 -1.67999,-0.947219 -3.06879,-1.702086 -3.08612,-1.677417 z m 1.11104,7.034712 c -0.37547,-0.02743 -0.73868,-0.01233 -1.07073,0.05064 -0.90627,0.171871 -1.06134,0.335539 -0.42633,0.450619 1.01044,0.183116 4.70913,1.012206 4.76508,1.068152 0.0317,0.03166 0.1216,0.05514 0.19999,0.05219 0.0784,-0.0029 -0.0521,-0.172286 -0.29042,-0.376205 -0.81667,-0.69889 -2.05116,-1.163107 -3.17759,-1.245402 z" /></g></g></g><path
       id="path21"
       class="s2"
       d="m 137.54214,148.61819 h 11.5883 v 17.64747 c 1.01189,-0.1084 3.18016,-0.1807 4.13182,-0.21681 v -17.43066 h 12.02195 v 34.47579 h -12.02195 v -9.48023 c -0.96369,0.0123 -3.13198,0.0963 -4.13182,0.26502 v 9.21521 h -11.5883 z"
       style="fill:#efffce;stroke-width:0.120461" /><path
       id="path22"
       class="s2"
       d="m 68.205095,183.09398 v -14.41911 c 5.131613,-0.265 11.973779,6.79397 11.985829,12.03401 l 2.5899,-0.0481 c 1.50575,-11.27511 -15.491225,-14.58777 -14.696182,-24.26075 0.277059,-3.28858 2.794677,-5.87845 5.649595,-7.07102 1.818957,-0.75891 3.818587,-0.81914 5.758017,-0.90347 4.66182,-0.12051 13.96138,0.19275 13.96138,0.19275 l 0.024,11.8292 c -4.63773,-0.37342 -11.79307,-3.31266 -12.19059,-9.7332 -0.7348,0.0123 -1.93941,0.0723 -2.68627,0.12051 -0.32524,8.86587 8.107,9.70909 13.39521,15.02141 5.63755,5.66164 4.95093,17.23789 -9.10682,17.23789 z"
       style="fill:#efffce;stroke-width:0.120461" /><path
       id="path23-1"
       class="s2"
       d="m 49.184393,164.42261 c 1.57802,-3.54153 2.878992,-10.01027 -1.240746,-13.67227 0,0 -1.529857,0.0123 -2.132154,0.0844 v 32.25933 H 33.452249 l -0.0843,-34.4758 c 7.4565,-0.48185 15.129847,-0.81914 22.586348,-0.24094 2.806728,0.16857 5.758012,1.13236 7.227629,3.75838 1.794854,2.93925 2.300798,6.26396 0.397514,9.28752 -3.156067,4.975 -9.612743,5.52913 -14.395018,2.98743 z"
       style="fill:#efffce;stroke-width:0.120461" /><path
       id="path24-7"
       class="s2"
       d="m 130.51931,148.61819 3.90292,34.47579 h -9.73322 c 0,-9.73318 -3.26448,-20.05666 -8.37199,-28.34436 l 3.32471,-6.13143 z"
       style="fill:#efffce;stroke-width:0.120461" /><path
       id="path25-1"
       class="s2"
       d="m 99.030954,162.01342 1.590056,-13.39523 h 5.6737 c 9.26339,9.26343 14.58776,21.51427 15.11777,34.47579 h -8.31176 c -1.22872,-8.37199 -5.81824,-16.93673 -14.069766,-20.91193 z"
       style="fill:#efffce;stroke-width:0.120461" /><path
       id="path26-1"
       class="s2"
       d="m 64.506958,183.09398 c -12.804947,2.12013 -16.804232,-4.72204 -16.10557,-16.1417 3.168118,1.60214 7.420375,2.37308 11.263068,1.83101 1.686435,-0.1807 3.119913,-0.80709 4.782275,-1.04801 z"
       style="fill:#efffce;stroke-width:0.120461" /><path
       id="path27-5"
       class="s2"
       d="M 109.88444,183.09398 H 96.043524 l 2.27671,-16.70785 c 6.300086,2.84286 9.974116,9.08271 11.564206,16.70785 z"
       style="fill:#efffce;stroke-width:0.120461" /><path
       id="path28-2"
       class="s5"
       d="m 165.03123,189.67114 v 6.89034 h -64.68726 v -6.89034 z"
       style="fill:#ff5a5a;stroke-width:0.120461" /><path
       id="MÄLARDALEN  GOTLAND "
       class="s3"
       aria-label="MÄLARDALEN  GOTLAND "
       d="M 34.765258,196.27236 H 33.64498 v -6.21575 h 1.891233 l 0.53002,3.79451 0.517981,-3.79451 h 1.903284 v 6.21575 h -1.132331 v -4.46906 l -0.710712,4.46906 h -1.120292 l -0.758905,-4.46906 z m 5.312309,0 H 38.87296 l 0.602311,-6.21575 h 2.108053 l 0.590259,6.21575 h -1.180505 l -0.0843,-1.01185 h -0.746853 z m 0.397529,-5.14367 -0.240921,3.15608 h 0.566157 l -0.265009,-3.15608 z m 1.493705,-1.40937 h -1.264835 v -1.06005 h 1.264835 z m -1.710539,0 h -1.264835 v -1.04802 h 1.264835 z m 4.794327,6.56509 h -2.517616 v -6.21575 h 1.240732 v 5.1557 h 1.276884 z m 1.397339,0 h -1.204607 l 0.602311,-6.21575 h 2.096015 l 0.590245,6.21575 h -1.168453 l -0.09633,-0.9998 h -0.746852 z m 0.409565,-5.15572 -0.240921,3.15608 h 0.566171 l -0.277059,-3.15608 z m 3.324711,5.15572 H 48.93142 v -6.21575 h 1.903269 q 0.481844,0 0.722766,0.21681 0.240921,0.21684 0.32525,0.61436 0.0843,0.38548 0.0843,0.90347 0,0.51796 -0.132535,0.81912 -0.120503,0.30115 -0.481842,0.42161 0.289112,0.0602 0.409565,0.2891 0.120503,0.22887 0.120503,0.59026 v 2.36102 H 50.654 v -2.43329 q 0,-0.27707 -0.108487,-0.33728 -0.108488,-0.0723 -0.36139,-0.0723 z m 0.01263,-5.05933 v 1.15642 h 0.301149 q 0.252971,0 0.252971,-0.56615 0,-0.36141 -0.04824,-0.46982 -0.06025,-0.1205 -0.21682,-0.1205 z m 3.842693,5.05933 h -1.662363 v -6.2037 h 1.710539 q 0.674588,0 1.011876,0.37341 0.337286,0.37344 0.337286,1.08414 v 2.90311 q 0,0.8914 -0.313198,1.37326 -0.301149,0.46978 -1.08414,0.46978 z m -0.409565,-5.11955 v 4.02336 h 0.216819 q 0.337302,0 0.337302,-0.32523 v -3.20426 q 0,-0.3132 -0.0843,-0.39752 -0.0843,-0.0963 -0.337287,-0.0963 z m 3.36085,5.11955 h -1.21666 l 0.602311,-6.2037 h 2.108053 l 0.590259,6.2037 h -1.180519 l -0.0843,-0.9998 h -0.746853 z m 0.397512,-5.15572 -0.22887,3.16813 h 0.566158 l -0.277048,-3.16813 z m 4.589545,5.15572 h -2.517617 v -6.2037 h 1.240747 v 5.14365 h 1.27687 z m 2.915145,0 h -2.565807 v -6.2037 h 2.48148 v 1.19255 h -1.216645 v 1.21666 h 1.168468 v 1.16845 h -1.168468 v 1.42144 h 1.300972 z m 1.62621,0 H 65.30258 v -6.21575 h 1.276885 l 0.578208,2.97537 v -2.97537 h 1.192557 v 6.21575 h -1.204607 l -0.626399,-3.10788 z m 7.058987,0.0603 q -1.337099,0 -1.337099,-1.91532 v -2.67423 q 0,-1.73464 1.529843,-1.73464 0.626379,0 0.963689,0.25297 0.33728,0.25297 0.45774,0.73482 0.13253,0.48183 0.13253,1.1805 H 74.10826 v -0.5541 q 0,-0.2048 -0.06025,-0.3373 -0.04824,-0.13261 -0.228885,-0.13261 -0.204782,0 -0.277046,0.14454 -0.07228,0.14453 -0.07228,0.31318 v 3.01153 q 0,0.25297 0.06025,0.40957 0.07228,0.15663 0.265009,0.15663 0.192732,0 0.252959,-0.15663 0.07228,-0.15664 0.07228,-0.42162 v -0.87935 h -0.337288 v -1.07211 h 1.517805 v 3.61381 h -0.49389 l -0.20479,-0.51796 q -0.32525,0.5782 -1.023922,0.5782 z m 3.698133,0 q -0.74685,0 -1.13231,-0.45777 -0.39753,-0.4457 -0.39753,-1.30097 v -2.95126 q 0,-0.79505 0.38548,-1.20462 0.39751,-0.40957 1.14436,-0.40957 0.75891,0 1.14438,0.40957 0.38548,0.40957 0.38548,1.20462 v 2.95126 q 0,0.85527 -0.38548,1.30097 -0.39751,0.45777 -1.14438,0.45777 z m 0.0126,-1.14437 q 0.28911,0 0.28911,-0.55414 v -3.02356 q 0,-0.45775 -0.27706,-0.45775 -0.3132,0 -0.3132,0.46982 v 3.02354 q 0,0.2891 0.0723,0.40957 0.0723,0.13261 0.22888,0.13261 z m 3.79452,1.08412 h -1.24075 v -5.0232 h -0.7348 v -1.19256 h 2.7224 v 1.19256 h -0.74685 z m 3.60175,0 h -2.51771 v -6.2037 h 1.24075 v 5.14366 h 1.27687 z m 1.39736,0 h -1.20461 l 0.6023,-6.2037 h 2.09601 l 0.59026,6.2037 h -1.16856 l -0.0963,-0.9998 h -0.74686 z m 0.40955,-5.14365 -0.24091,3.15606 h 0.56616 l -0.27706,-3.15606 z m 3.28856,5.14365 h -1.21664 v -6.2037 h 1.27689 l 0.5782,2.97537 v -2.97537 h 1.19257 v 6.2037 h -1.21667 l -0.61435,-3.10788 z m 4.0475,0 h -1.66237 v -6.2037 h 1.71053 q 0.66256,0 1.01189,0.37343 0.33729,0.3734 0.33729,1.08414 v 2.91514 q 0,0.87935 -0.3132,1.36122 -0.31321,0.46977 -1.08414,0.46977 z m -0.40957,-5.11957 v 4.0234 h 0.21683 q 0.33729,0 0.33729,-0.32525 v -3.20425 q 0,-0.3132 -0.0844,-0.39753 -0.0844,-0.0963 -0.3373,-0.0963 z"
       style="fill:#ebf2c8;stroke-width:0.120461" /></g></svg>
