<svg width="652" height="913" viewBox="0 0 652 913" fill="none" xmlns="http://www.w3.org/2000/svg">
<rect y="0.121094" width="651.613" height="912.122" rx="26.5595" fill="#2F222D"/>
<path d="M348.467 386.67H455.08V540.338C464.119 539.363 480.655 538.716 489.228 538.414V386.67H591.742V686.852H489.228V604.288C480.618 604.418 464.103 605.153 455.08 606.639V686.846H389.268L348.467 386.67Z" fill="#EFFFCE"/>
<path d="M306.672 386.676L349.236 686.851H262.321C259.501 604.332 222.359 499.361 189.607 436.509L219.679 386.676H306.672Z" fill="#EFFFCE"/>
<path d="M56 527.146L56 386.67H102.995C170.292 449.892 226.153 574.001 230.926 686.846H156.996C152.845 633.338 114.82 555.521 56 528.54V527.146Z" fill="#EFFFCE"/>
<path d="M131.228 686.85H56V563.984C100.178 589.296 131.228 656.783 131.228 686.85Z" fill="#EFFFCE"/>
<path d="M366.697 353.092V226.372C412.379 224.12 473.256 286.091 473.372 332.142L496.425 331.742C509.814 232.675 358.579 203.549 365.676 118.608C368.091 89.6926 390.498 66.9119 415.936 56.4159C432.124 49.8132 449.939 49.2607 467.169 48.5031C508.616 47.4983 591.385 50.2025 591.385 50.2025L591.579 154.184C550.258 150.874 486.604 125.048 483.089 68.6218C476.576 68.727 465.845 69.2215 459.221 69.7371C456.285 147.56 531.308 155.02 578.342 201.645C628.576 251.441 622.441 353.092 497.357 353.092H366.707H366.697Z" fill="#EFFFCE"/>
<path d="M195.969 189.416C209.96 158.397 221.519 101.752 185.02 69.712C185.02 69.712 171.353 69.7487 166.084 70.3837L166.063 353.079H56.3455L55.6948 50.9622C121.805 46.7273 189.935 43.7729 256.091 48.8474C280.96 50.3115 307.119 58.7654 320.207 81.7815C336.086 107.553 340.641 136.735 323.681 163.141C295.659 206.817 238.423 211.598 195.975 189.411L195.969 189.416Z" fill="#EFFFCE"/>
<path d="M326.708 351.721C215.196 369.93 180.387 311.135 186.508 212.982C214.112 226.753 251.068 233.365 284.566 228.66C299.187 227.182 311.701 221.736 326.173 219.743L326.703 351.721H326.708Z" fill="#EFFFCE"/>
<rect x="56" y="736.17" width="61.3457" height="48.9844" fill="#FF5A5A"/>
<path d="M567.318 851.793L572.048 802.822H588.659L593.306 851.793H584.041L583.345 843.891H577.446L576.834 851.793H567.318ZM578.142 836.072H582.594L580.451 811.17H580.006L578.142 836.072Z" fill="#EFFFCE"/>
<path d="M553.541 852.242C549.071 852.242 545.843 851.129 543.858 848.903C541.892 846.677 540.909 843.134 540.909 838.274V833.489H550.592V839.61C550.592 840.742 550.759 841.632 551.092 842.281C551.445 842.912 552.048 843.227 552.901 843.227C553.791 843.227 554.404 842.967 554.737 842.448C555.09 841.929 555.266 841.075 555.266 839.888C555.266 838.386 555.118 837.134 554.821 836.132C554.524 835.112 554.005 834.147 553.263 833.238C552.539 832.311 551.528 831.235 550.23 830.011L545.834 825.837C542.55 822.739 540.909 819.196 540.909 815.208C540.909 811.034 541.873 807.853 543.802 805.664C545.75 803.475 548.56 802.381 552.233 802.381C556.722 802.381 559.904 803.577 561.777 805.97C563.669 808.363 564.615 811.999 564.615 816.877H554.654V813.511C554.654 812.843 554.459 812.323 554.07 811.952C553.699 811.581 553.189 811.396 552.539 811.396C551.76 811.396 551.185 811.619 550.814 812.064C550.462 812.49 550.286 813.047 550.286 813.733C550.286 814.42 550.471 815.162 550.842 815.959C551.213 816.757 551.946 817.675 553.04 818.714L558.689 824.14C559.82 825.215 560.859 826.356 561.805 827.562C562.751 828.749 563.511 830.14 564.086 831.736C564.661 833.312 564.949 835.242 564.949 837.523C564.949 842.123 564.096 845.731 562.389 848.347C560.701 850.944 557.752 852.242 553.541 852.242Z" fill="#EFFFCE"/>
<path d="M519.484 851.793V802.822H529.278V843.446H539.35V851.793H519.484Z" fill="#EFFFCE"/>
<path d="M488.781 851.795L493.511 802.824H510.122L514.769 851.795H505.504L504.808 843.893H498.909L498.297 851.795H488.781ZM499.605 836.074H504.057L501.914 811.171H501.469L499.605 836.074ZM503.305 800.069V791.777H513.267V800.069H503.305ZM489.838 800.069V791.777H499.8V800.069H489.838Z" fill="#EFFFCE"/>
<path d="M459.971 851.793V802.822H469.71V820.324H474.328V802.822H484.067V851.793H474.328V829.589H469.71V851.793H459.971Z" fill="#EFFFCE"/>
<path d="M421.191 851.793V802.822H430.985V843.446H441.058V851.793H421.191Z" fill="#EFFFCE"/>
<path d="M390.488 851.793L395.219 802.822H411.83L416.476 851.793H407.211L406.515 843.891H400.617L400.004 851.793H390.488ZM401.312 836.072H405.764L403.622 811.17H403.176L401.312 836.072Z" fill="#EFFFCE"/>
<path d="M372.502 851.793V812.227H366.686V802.822H388.111V812.227H382.296V851.793H372.502Z" fill="#EFFFCE"/>
<path d="M338.21 851.793V802.822H348.282L352.79 826.278V802.822H362.25V851.793H352.678L347.781 827.308V851.793H338.21Z" fill="#EFFFCE"/>
<path d="M313.016 851.793V802.822H332.604V812.283H322.977V821.826H332.215V831.036H322.977V842.25H333.244V851.793H313.016Z" fill="#EFFFCE"/>
<path d="M268.791 851.793V802.822H283.705L287.823 832.678L291.913 802.822H306.966V851.793H298.007V816.512L292.386 851.793H283.594L277.639 816.512V851.793H268.791Z" fill="#EFFFCE"/>
<path d="M231.861 852.243C228.828 852.243 226.441 851.068 224.702 848.719C222.982 846.37 222.122 843.133 222.122 839.007C222.122 836.066 222.381 833.624 222.899 831.682C223.435 829.74 224.175 828.121 225.119 826.826C226.062 825.531 227.144 824.403 228.365 823.441L228.143 822.886C227.366 820.962 226.682 819.131 226.09 817.392C225.516 815.635 225.23 813.831 225.23 811.981C225.23 810.113 225.627 808.458 226.423 807.015C227.218 805.572 228.319 804.443 229.725 803.629C231.149 802.797 232.777 802.381 234.608 802.381C236.421 802.381 238.067 802.779 239.547 803.574C241.046 804.351 242.239 805.526 243.127 807.098C244.015 808.67 244.459 810.659 244.459 813.064C244.459 815.672 243.968 817.855 242.988 819.612C242.026 821.369 240.574 823.062 238.632 824.69L241.295 831.405C242.387 828.648 243.959 826.512 246.012 824.995L249.869 831.016C247.724 832.737 245.929 835.539 244.486 839.424L249.37 851.66H239.936L238.854 849.024C238.132 849.912 237.161 850.671 235.94 851.3C234.738 851.929 233.378 852.243 231.861 852.243ZM233.942 811.121C233.942 811.602 234.063 812.314 234.303 813.258C234.544 814.183 235.108 815.792 235.996 818.086C236.347 817.716 236.662 817.133 236.939 816.338C237.217 815.542 237.355 814.451 237.355 813.064C237.355 811.639 237.18 810.64 236.828 810.067C236.495 809.493 236.051 809.207 235.496 809.207C234.96 809.207 234.562 809.41 234.303 809.817C234.063 810.206 233.942 810.64 233.942 811.121ZM230.613 840.201C230.613 843.493 231.547 845.14 233.415 845.14C234.174 845.14 234.784 844.862 235.246 844.307C235.709 843.734 236.023 843.142 236.19 842.531L231.528 831.183C230.918 832.478 230.613 834.744 230.613 837.981V840.201Z" fill="#EFFFCE"/>
<path d="M187.198 851.793V802.822H196.992V843.446H207.065V851.793H187.198Z" fill="#EFFFCE"/>
<path d="M156.495 851.793L161.226 802.822H177.837L182.483 851.793H173.218L172.522 843.891H166.623L166.011 851.793H156.495ZM167.319 836.072H171.771L169.629 811.17H169.183L167.319 836.072Z" fill="#EFFFCE"/>
<path d="M142.766 851.793V802.822H152.226V851.793H142.766Z" fill="#EFFFCE"/>
<path d="M125.863 852.242C122.321 852.242 119.464 851.139 117.294 848.931C115.142 846.724 114.066 843.635 114.066 839.666V817.072C114.066 812.323 115.003 808.688 116.876 806.165C118.768 803.642 121.838 802.381 126.086 802.381C128.405 802.381 130.464 802.808 132.263 803.661C134.081 804.514 135.509 805.794 136.548 807.501C137.587 809.189 138.106 811.322 138.106 813.9V822.359H128.368V815.124C128.368 813.659 128.182 812.676 127.811 812.175C127.44 811.656 126.865 811.396 126.086 811.396C125.177 811.396 124.565 811.73 124.25 812.398C123.934 813.047 123.777 813.919 123.777 815.013V839.527C123.777 840.881 123.971 841.836 124.361 842.392C124.769 842.949 125.344 843.227 126.086 843.227C126.921 843.227 127.505 842.884 127.839 842.198C128.191 841.511 128.368 840.621 128.368 839.527V830.706H138.218V839.972C138.218 844.275 137.132 847.401 134.962 849.349C132.792 851.278 129.759 852.242 125.863 852.242Z" fill="#EFFFCE"/>
<path d="M96.7194 852.242C92.8054 852.242 89.8096 851.064 87.7321 848.709C85.6731 846.334 84.6436 842.912 84.6436 838.441V815.18C84.6436 810.988 85.6638 807.807 87.7042 805.636C89.7633 803.466 92.7683 802.381 96.7194 802.381C100.67 802.381 103.666 803.466 105.707 805.636C107.766 807.807 108.795 810.988 108.795 815.18V838.441C108.795 842.912 107.756 846.334 105.679 848.709C103.62 851.064 100.633 852.242 96.7194 852.242ZM96.8028 843.227C98.2868 843.227 99.0288 841.79 99.0288 838.914V815.013C99.0288 812.602 98.3054 811.396 96.8585 811.396C95.2261 811.396 94.4099 812.63 94.4099 815.097V838.97C94.4099 840.491 94.5954 841.586 94.9664 842.253C95.3374 842.903 95.9496 843.227 96.8028 843.227Z" fill="#EFFFCE"/>
<path d="M68.6323 852.242C64.1618 852.242 60.9342 851.129 58.9494 848.903C56.9831 846.677 56 843.134 56 838.274V833.489H65.6829V839.61C65.6829 840.742 65.8499 841.632 66.1837 842.281C66.5362 842.912 67.1391 843.227 67.9923 843.227C68.8827 843.227 69.4949 842.967 69.8287 842.448C70.1812 841.929 70.3574 841.075 70.3574 839.888C70.3574 838.386 70.209 837.134 69.9122 836.132C69.6154 835.112 69.096 834.147 68.3541 833.238C67.6306 832.311 66.6197 831.235 65.3212 830.011L60.9249 825.837C57.6416 822.739 56 819.196 56 815.208C56 811.034 56.9646 807.853 58.8937 805.664C60.8415 803.475 63.6517 802.381 67.3245 802.381C71.8136 802.381 74.9948 803.577 76.8683 805.97C78.7604 808.363 79.7064 811.999 79.7064 816.877H69.7453V813.511C69.7453 812.843 69.5505 812.323 69.161 811.952C68.79 811.581 68.2799 811.396 67.6306 811.396C66.8515 811.396 66.2765 811.619 65.9055 812.064C65.5531 812.49 65.3768 813.047 65.3768 813.733C65.3768 814.42 65.5623 815.162 65.9333 815.959C66.3043 816.757 67.037 817.675 68.1315 818.714L73.7798 824.14C74.9113 825.215 75.9501 826.356 76.8962 827.562C77.8422 828.749 78.6027 830.14 79.1778 831.736C79.7528 833.312 80.0403 835.242 80.0403 837.523C80.0403 842.123 79.187 845.731 77.4805 848.347C75.7925 850.944 72.8431 852.242 68.6323 852.242Z" fill="#EFFFCE"/>
<path d="M568.877 785.137V736.166H583.902C586.406 736.166 588.299 736.741 589.578 737.891C590.858 739.023 591.712 740.618 592.138 742.677C592.584 744.717 592.806 747.12 592.806 749.883C592.806 752.555 592.463 754.688 591.777 756.283C591.109 757.878 589.838 758.982 587.965 759.594C589.504 759.91 590.58 760.679 591.192 761.904C591.823 763.109 592.138 764.677 592.138 766.606V785.137H582.483V765.966C582.483 764.538 582.186 763.657 581.593 763.323C581.018 762.97 580.081 762.794 578.783 762.794V785.137H568.877ZM578.838 754.308H581.203C582.557 754.308 583.234 752.833 583.234 749.883C583.234 747.973 583.086 746.721 582.789 746.127C582.493 745.534 581.936 745.237 581.12 745.237H578.838V754.308Z" fill="#EFFFCE"/>
<path d="M551.141 785.584C547.227 785.584 544.231 784.406 542.153 782.05C540.094 779.676 539.065 776.253 539.065 771.783V748.521C539.065 744.329 540.085 741.148 542.126 738.978C544.185 736.807 547.19 735.722 551.141 735.722C555.092 735.722 558.088 736.807 560.128 738.978C562.187 741.148 563.217 744.329 563.217 748.521V771.783C563.217 776.253 562.178 779.676 560.1 782.05C558.041 784.406 555.055 785.584 551.141 785.584ZM551.224 776.569C552.708 776.569 553.45 775.131 553.45 772.256V748.355C553.45 745.943 552.727 744.737 551.28 744.737C549.648 744.737 548.831 745.971 548.831 748.438V772.311C548.831 773.832 549.017 774.927 549.388 775.595C549.759 776.244 550.371 776.569 551.224 776.569ZM552.727 733.413V725.121H562.688V733.413H552.727ZM539.26 733.413V725.121H549.221V733.413H539.26Z" fill="#EFFFCE"/>
<path d="M514.985 785.137V736.166H534.574V745.71H524.835V753.501H534.073V762.933H524.835V785.137H514.985Z" fill="#EFFFCE"/>
<path d="M478.238 785.137V745.571H472.423V736.166H493.848V745.571H488.032V785.137H478.238Z" fill="#EFFFCE"/>
<path d="M448.843 785.137V736.166H468.432V745.626H458.804V755.17H468.042V764.38H458.804V775.593H469.072V785.137H448.843Z" fill="#EFFFCE"/>
<path d="M419.031 785.137V736.166H432.498C436.022 736.166 438.675 737.149 440.456 739.115C442.237 741.063 443.127 743.92 443.127 747.685V770.613C443.127 775.25 442.311 778.83 440.678 781.353C439.065 783.876 436.227 785.137 432.164 785.137H419.031ZM428.881 776.484H430.578C432.377 776.484 433.277 775.612 433.277 773.868V748.604C433.277 746.971 433.055 745.923 432.609 745.459C432.183 744.977 431.302 744.736 429.966 744.736H428.881V776.484Z" fill="#EFFFCE"/>
<path d="M388.297 785.137V736.166H398.369L402.877 759.622V736.166H412.337V785.137H402.765L397.868 760.652V785.137H388.297Z" fill="#EFFFCE"/>
<path d="M370.278 785.582C366.197 785.582 363.192 784.441 361.263 782.16C359.333 779.86 358.369 776.484 358.369 772.032V736.166H367.885V771.642C367.885 772.458 367.931 773.247 368.024 774.007C368.117 774.749 368.33 775.361 368.664 775.844C368.998 776.326 369.536 776.567 370.278 776.567C371.038 776.567 371.585 776.335 371.919 775.872C372.253 775.389 372.457 774.768 372.531 774.007C372.624 773.247 372.671 772.458 372.671 771.642V736.166H382.187V772.032C382.187 776.484 381.222 779.86 379.293 782.16C377.364 784.441 374.359 785.582 370.278 785.582Z" fill="#EFFFCE"/>
<path d="M329.976 785.137V736.166H343.248C346.81 736.166 349.398 737.038 351.011 738.782C352.644 740.507 353.46 743.363 353.46 747.351V749.494C353.46 751.794 353.043 753.658 352.208 755.087C351.392 756.515 350.14 757.452 348.452 757.897C350.659 758.453 352.134 759.761 352.876 761.82C353.636 763.861 354.016 766.356 354.016 769.305C354.016 772.477 353.72 775.25 353.126 777.624C352.532 779.999 351.457 781.844 349.898 783.162C348.34 784.479 346.124 785.137 343.248 785.137H329.976ZM339.548 754.614H341.551C342.46 754.614 343.044 754.261 343.304 753.556C343.564 752.851 343.694 752.007 343.694 751.024V746.099C343.694 744.523 342.998 743.734 341.607 743.734H339.548V754.614ZM340.522 776.511C343.063 776.511 344.333 775.306 344.333 772.894V766.773C344.333 765.382 344.12 764.287 343.694 763.49C343.285 762.673 342.506 762.265 341.356 762.265H339.548V776.456C339.956 776.493 340.28 776.511 340.522 776.511Z" fill="#EFFFCE"/>
<path d="M300.813 785.137V736.166H315.838C318.343 736.166 320.235 736.741 321.514 737.891C322.794 739.023 323.648 740.618 324.074 742.677C324.52 744.717 324.742 747.12 324.742 749.883C324.742 752.555 324.399 754.688 323.713 756.283C323.045 757.878 321.774 758.982 319.901 759.594C321.44 759.91 322.516 760.679 323.128 761.904C323.759 763.109 324.074 764.677 324.074 766.606V785.137H314.419V765.966C314.419 764.538 314.122 763.657 313.529 763.323C312.954 762.97 312.017 762.794 310.719 762.794V785.137H300.813ZM310.774 754.308H313.139C314.493 754.308 315.171 752.833 315.171 749.883C315.171 747.973 315.022 746.721 314.725 746.127C314.429 745.534 313.872 745.237 313.056 745.237H310.774V754.308Z" fill="#EFFFCE"/>
<path d="M283.077 785.584C279.163 785.584 276.167 784.406 274.089 782.05C272.03 779.676 271.001 776.253 271.001 771.783V748.521C271.001 744.329 272.021 741.148 274.062 738.978C276.121 736.807 279.126 735.722 283.077 735.722C287.028 735.722 290.024 736.807 292.064 738.978C294.123 741.148 295.153 744.329 295.153 748.521V771.783C295.153 776.253 294.114 779.676 292.036 782.05C289.977 784.406 286.991 785.584 283.077 785.584ZM283.16 776.569C284.644 776.569 285.386 775.131 285.386 772.256V748.355C285.386 745.943 284.663 744.737 283.216 744.737C281.584 744.737 280.767 745.971 280.767 748.438V772.311C280.767 773.832 280.953 774.927 281.324 775.595C281.695 776.244 282.307 776.569 283.16 776.569ZM284.663 733.413V725.121H294.624V733.413H284.663ZM271.196 733.413V725.121H281.157V733.413H271.196Z" fill="#EFFFCE"/>
<path d="M246.92 785.137V736.166H266.508V745.71H256.77V753.501H266.007V762.933H256.77V785.137H246.92Z" fill="#EFFFCE"/>
<path d="M230.519 785.584C226.049 785.584 222.821 784.471 220.836 782.245C218.87 780.019 217.887 776.476 217.887 771.616V766.83H227.57V772.952C227.57 774.083 227.737 774.974 228.07 775.623C228.423 776.254 229.026 776.569 229.879 776.569C230.769 776.569 231.382 776.309 231.715 775.79C232.068 775.27 232.244 774.417 232.244 773.23C232.244 771.728 232.096 770.475 231.799 769.474C231.502 768.453 230.983 767.489 230.241 766.58C229.517 765.652 228.506 764.577 227.208 763.352L222.812 759.179C219.528 756.081 217.887 752.538 217.887 748.55C217.887 744.376 218.851 741.195 220.78 739.006C222.728 736.817 225.538 735.723 229.211 735.723C233.7 735.723 236.882 736.919 238.755 739.312C240.647 741.705 241.593 745.341 241.593 750.219H231.632V746.852C231.632 746.185 231.437 745.665 231.048 745.294C230.677 744.923 230.167 744.738 229.517 744.738C228.738 744.738 228.163 744.96 227.792 745.406C227.44 745.832 227.264 746.389 227.264 747.075C227.264 747.761 227.449 748.503 227.82 749.301C228.191 750.099 228.924 751.017 230.018 752.056L235.667 757.481C236.798 758.557 237.837 759.698 238.783 760.904C239.729 762.091 240.489 763.482 241.064 765.077C241.64 766.654 241.927 768.583 241.927 770.865C241.927 775.465 241.074 779.073 239.367 781.689C237.679 784.286 234.73 785.584 230.519 785.584Z" fill="#EFFFCE"/>
<path d="M190.245 785.137V736.166H199.928V755.782L204.491 736.166H214.341L208.86 758.593L215.482 785.137H205.326L199.984 761.431V785.137H190.245Z" fill="#EFFFCE"/>
<path d="M175.18 785.137V736.166H184.64V785.137H175.18Z" fill="#EFFFCE"/>
<path d="M146.115 785.137V736.166H161.14C163.644 736.166 165.536 736.741 166.816 737.891C168.096 739.023 168.949 740.618 169.376 742.677C169.821 744.717 170.044 747.12 170.044 749.883C170.044 752.555 169.7 754.688 169.014 756.283C168.346 757.878 167.076 758.982 165.202 759.594C166.742 759.91 167.818 760.679 168.43 761.904C169.06 763.109 169.376 764.677 169.376 766.606V785.137H159.721V765.966C159.721 764.538 159.424 763.657 158.83 763.323C158.255 762.97 157.318 762.794 156.02 762.794V785.137H146.115ZM156.076 754.308H158.441C159.795 754.308 160.472 752.833 160.472 749.883C160.472 747.973 160.324 746.721 160.027 746.127C159.73 745.534 159.173 745.237 158.357 745.237H156.076V754.308Z" fill="#EFFFCE"/>
</svg>
