<?xml version="1.0" encoding="utf-8"?>
<!-- Generator: Adobe Illustrator 24.0.2, SVG Export Plug-In . SVG Version: 6.00 Build 0)  -->
<svg version="1.1" id="Outline" xmlns="http://www.w3.org/2000/svg" xmlns:xlink="http://www.w3.org/1999/xlink" x="0px" y="0px"
	 viewBox="0 0 24 24" enable-background="new 0 0 24 24" xml:space="preserve">
<g>
	<path d="M21.53027,5.46973l-5-5C16.38965,0.3291,16.19873,0.25,16,0.25H4C3.03516,0.25,2.25,1.03516,2.25,2v20
		c0,0.96484,0.78516,1.75,1.75,1.75h16c0.96484,0,1.75-0.78516,1.75-1.75V6C21.75,5.80127,21.6709,5.61035,21.53027,5.46973z
		 M16.75,2.81055L19.18945,5.25H17c-0.1377,0-0.25-0.1123-0.25-0.25V2.81055z M20,22.25H4c-0.13574,0-0.25-0.11426-0.25-0.25V2
		c0-0.13574,0.11426-0.25,0.25-0.25h11.25V5c0,0.96484,0.78516,1.75,1.75,1.75h3.25V22C20.25,22.13574,20.13574,22.25,20,22.25z"/>
	<path d="M12,7.25c-3.17041,0-5.75,2.57959-5.75,5.75s2.57959,5.75,5.75,5.75c0.41406,0,0.75-0.33594,0.75-0.75
		s-0.33594-0.75-0.75-0.75c-2.34326,0-4.25-1.90674-4.25-4.25S9.65674,8.75,12,8.75s4.25,1.90674,4.25,4.25v1.5
		c0,0.41357-0.33643,0.75-0.75,0.75s-0.75-0.33643-0.75-0.75V13c0-1.5166-1.2334-2.75-2.75-2.75S9.25,11.4834,9.25,13
		s1.2334,2.75,2.75,2.75c0.52039,0,1.0022-0.15344,1.41754-0.40552C13.75244,16.1673,14.55823,16.75,15.5,16.75
		c1.24072,0,2.25-1.00928,2.25-2.25V13C17.75,9.82959,15.17041,7.25,12,7.25z M12,14.25c-0.68945,0-1.25-0.56055-1.25-1.25
		s0.56055-1.25,1.25-1.25s1.25,0.56055,1.25,1.25S12.68945,14.25,12,14.25z"/>
</g>
</svg>
