<?xml version="1.0" encoding="utf-8"?>
<!-- Generator: Adobe Illustrator 24.0.2, SVG Export Plug-In . SVG Version: 6.00 Build 0)  -->
<svg version="1.1" id="Outline" xmlns="http://www.w3.org/2000/svg" xmlns:xlink="http://www.w3.org/1999/xlink" x="0px" y="0px"
	 viewBox="0 0 24 24" enable-background="new 0 0 24 24" xml:space="preserve">
<path d="M18.5,16.75c2.89453,0,5.25-2.35547,5.25-5.25c0-2.8252-2.24219-5.13574-5.04102-5.24609
	C18.33691,2.88184,15.46973,0.25,12,0.25C8.27832,0.25,5.25,3.27832,5.25,7v2.25H4c-2.06738,0-3.75,1.68262-3.75,3.75
	S1.93262,16.75,4,16.75h7.25v1.5H10c-0.96484,0-1.75,0.78516-1.75,1.75v0.25H4c-0.41406,0-0.75,0.33594-0.75,0.75
	S3.58594,21.75,4,21.75h4.25V22c0,0.96484,0.78516,1.75,1.75,1.75h4c0.96484,0,1.75-0.78516,1.75-1.75v-0.25H20
	c0.41406,0,0.75-0.33594,0.75-0.75s-0.33594-0.75-0.75-0.75h-4.25V20c0-0.96484-0.78516-1.75-1.75-1.75h-1.25v-1.5H18.5z M14.25,20
	v2c0,0.1377-0.1123,0.25-0.25,0.25h-4c-0.1377,0-0.25-0.1123-0.25-0.25v-2c0-0.1377,0.1123-0.25,0.25-0.25h4
	C14.1377,19.75,14.25,19.8623,14.25,20z M1.75,13c0-1.24023,1.00977-2.25,2.25-2.25h2c0.41406,0,0.75-0.33594,0.75-0.75V7
	c0-2.89453,2.35547-5.25,5.25-5.25c2.89451,0,5.24996,2.35543,5.25,5.24992C17.25001,7.7364,17.96543,7.75,18.5,7.75
	c2.06738,0,3.75,1.68262,3.75,3.75s-1.68262,3.75-3.75,3.75H4C2.75977,15.25,1.75,14.24023,1.75,13z"/>
</svg>
