<?xml version="1.0" encoding="utf-8"?>
<!-- Generator: Adobe Illustrator 24.0.2, SVG Export Plug-In . SVG Version: 6.00 Build 0)  -->
<svg version="1.1" id="Outline" xmlns="http://www.w3.org/2000/svg" xmlns:xlink="http://www.w3.org/1999/xlink" x="0px" y="0px"
	 viewBox="0 0 24 24" enable-background="new 0 0 24 24" xml:space="preserve">
<g>
	<path d="M18.75,8.25586V8c0-3.72168-3.02832-6.75-6.75-6.75C8.27783,1.25,5.25,4.27832,5.25,8v3.25H4
		c-2.06787,0-3.75,1.68262-3.75,3.75S1.93213,18.75,4,18.75h5c0.41406,0,0.75-0.33594,0.75-0.75S9.41406,17.25,9,17.25H4
		c-1.24072,0-2.25-1.00977-2.25-2.25S2.75928,12.75,4,12.75h2c0.41406,0,0.75-0.33594,0.75-0.75V8c0-2.89453,2.35498-5.25,5.25-5.25
		c2.89453,0,5.25,2.35547,5.25,5.25c0,0,0,0.99844,0,1c0,0.71509,0.70483,0.75,1.25,0.75c2.06738,0,3.75,1.68262,3.75,3.75
		s-1.68262,3.75-3.75,3.75H15c-0.41406,0-0.75,0.33594-0.75,0.75s0.33594,0.75,0.75,0.75h3.5c2.89453,0,5.25-2.35547,5.25-5.25
		C23.75,10.68848,21.5293,8.38672,18.75,8.25586z"/>
	<path d="M14.46973,15.53027C14.61621,15.67676,14.80762,15.75,15,15.75s0.38379-0.07324,0.53027-0.21973
		c0.29297-0.29297,0.29297-0.76758,0-1.06055l-3-3c-0.29297-0.29297-0.76758-0.29297-1.06055,0l-3,3
		c-0.29297,0.29297-0.29297,0.76758,0,1.06055s0.76758,0.29297,1.06055,0L11.25,13.81055V22c0,0.41406,0.33594,0.75,0.75,0.75
		s0.75-0.33594,0.75-0.75v-8.18945L14.46973,15.53027z"/>
</g>
</svg>
