<?xml version="1.0" encoding="utf-8"?>
<!-- Generator: Adobe Illustrator 24.0.2, SVG Export Plug-In . SVG Version: 6.00 Build 0)  -->
<svg version="1.1" id="Outline" xmlns="http://www.w3.org/2000/svg" xmlns:xlink="http://www.w3.org/1999/xlink" x="0px" y="0px"
	 viewBox="0 0 24 24" enable-background="new 0 0 24 24" xml:space="preserve">
<g>
	<path d="M21.53027,5.46973l-5-5C16.38965,0.3291,16.19922,0.25,16,0.25H4C3.03516,0.25,2.25,1.03516,2.25,2v20
		c0,0.96484,0.78516,1.75,1.75,1.75h16c0.96484,0,1.75-0.78516,1.75-1.75V6C21.75,5.80127,21.6709,5.61035,21.53027,5.46973z
		 M16.75,2.81055L19.18945,5.25H17c-0.1377,0-0.25-0.1123-0.25-0.25V2.81055z M20,22.25H4c-0.13574,0-0.25-0.11426-0.25-0.25V2
		c0-0.13574,0.11426-0.25,0.25-0.25h11.25V5c0,0.96484,0.78516,1.75,1.75,1.75h3.25V22C20.25,22.13574,20.13574,22.25,20,22.25z"/>
	<path d="M8,11.75h0.5c0.41406,0,0.75-0.33594,0.75-0.75s-0.33594-0.75-0.75-0.75H8c-1.79199,0-3.25,1.45801-3.25,3.25
		S6.20801,16.75,8,16.75h0.5c0.41406,0,0.75-0.33594,0.75-0.75s-0.33594-0.75-0.75-0.75H8c-0.96484,0-1.75-0.78516-1.75-1.75
		S7.03516,11.75,8,11.75z"/>
	<path d="M11.66211,11.75H13.5c0.41406,0,0.75-0.33594,0.75-0.75s-0.33594-0.75-0.75-0.75h-1.83789
		c-1.0542,0-1.91211,0.85791-1.91211,1.91211c0,0.82471,0.52539,1.55371,1.30811,1.81445l1.40967,0.46973
		c0.16895,0.05615,0.28223,0.21387,0.28223,0.3916c0,0.22705-0.18506,0.41211-0.41211,0.41211H10.5
		c-0.41406,0-0.75,0.33594-0.75,0.75s0.33594,0.75,0.75,0.75h1.83789c1.05469,0,1.91211-0.85791,1.91211-1.91211
		c0-0.82471-0.52539-1.55371-1.30811-1.81445l-1.40967-0.46973c-0.16895-0.05615-0.28223-0.21387-0.28223-0.3916
		C11.25,11.93506,11.43506,11.75,11.66211,11.75z"/>
	<path d="M16.66211,11.75H18.5c0.41406,0,0.75-0.33594,0.75-0.75s-0.33594-0.75-0.75-0.75h-1.83789
		c-1.05469,0-1.91211,0.85791-1.91211,1.91211c0,0.82471,0.52539,1.55371,1.30762,1.81445l1.41016,0.46973
		c0.16895,0.05615,0.28223,0.21387,0.28223,0.3916c0,0.22705-0.18457,0.41211-0.41211,0.41211H15.5
		c-0.41406,0-0.75,0.33594-0.75,0.75s0.33594,0.75,0.75,0.75h1.83789c1.05469,0,1.91211-0.85791,1.91211-1.91211
		c0-0.82471-0.52539-1.55371-1.30762-1.81445l-1.41016-0.46973c-0.16895-0.05615-0.28223-0.21387-0.28223-0.3916
		C16.25,11.93506,16.43457,11.75,16.66211,11.75z"/>
</g>
</svg>
