<?xml version="1.0" encoding="utf-8"?>
<!-- Generator: Adobe Illustrator 24.0.2, SVG Export Plug-In . SVG Version: 6.00 Build 0)  -->
<svg version="1.1" id="Outline" xmlns="http://www.w3.org/2000/svg" xmlns:xlink="http://www.w3.org/1999/xlink" x="0px" y="0px"
	 viewBox="0 0 24 24" enable-background="new 0 0 24 24" xml:space="preserve">
<g>
	<path d="M15,6.25h-0.25928c-0.12842-1.67578-1.53271-3-3.24072-3c-1.79199,0-3.25,1.45801-3.25,3.25v0.76367
		c-1.12354,0.125-2,1.08008-2,2.23633c0,0.41406,0.33594,0.75,0.75,0.75S7.75,9.91406,7.75,9.5c0-0.41309,0.33643-0.75,0.75-0.75H9
		c0.41406,0,0.75-0.33594,0.75-0.75V6.5c0-0.96484,0.78516-1.75,1.75-1.75s1.75,0.78516,1.75,1.75V7
		c0,0.41406,0.33594,0.75,0.75,0.75h1c0.68945,0,1.25,0.56055,1.25,1.25c0,0.41406,0.33594,0.75,0.75,0.75S17.75,9.41406,17.75,9
		C17.75,7.4834,16.5166,6.25,15,6.25z"/>
	<path d="M12.53027,8.46973c-0.29297-0.29297-0.76758-0.29297-1.06055,0l-2,2c-0.29297,0.29297-0.29297,0.76758,0,1.06055
		s0.76758,0.29297,1.06055,0L11.25,10.81055V14c0,0.41406,0.33594,0.75,0.75,0.75s0.75-0.33594,0.75-0.75v-3.18945
		c0,0,0.71908,0.71908,0.71973,0.71973c0.28242,0.28242,0.76914,0.2914,1.06055,0c0.29297-0.29297,0.29297-0.76758,0-1.06055
		L12.53027,8.46973z"/>
	<path d="M22,0.25H2C1.03516,0.25,0.25,1.03516,0.25,2v14c0,0.96484,0.78516,1.75,1.75,1.75h7.25v4.5H7
		c-0.41406,0-0.75,0.33594-0.75,0.75S6.58594,23.75,7,23.75h10c0.41406,0,0.75-0.33594,0.75-0.75s-0.33594-0.75-0.75-0.75h-2.25
		v-4.5H22c0.96484,0,1.75-0.78516,1.75-1.75V2C23.75,1.03516,22.96484,0.25,22,0.25z M13.25,22.25h-2.5v-4.5h2.5V22.25z M22.25,16
		c0,0.1377-0.1123,0.25-0.25,0.25H2c-0.1377,0-0.25-0.1123-0.25-0.25V2c0-0.1377,0.1123-0.25,0.25-0.25h20
		c0.1377,0,0.25,0.1123,0.25,0.25V16z"/>
</g>
</svg>
