<?xml version="1.0" encoding="utf-8"?>
<!-- Generator: Adobe Illustrator 24.0.2, SVG Export Plug-In . SVG Version: 6.00 Build 0)  -->
<svg version="1.1" id="Outline" xmlns="http://www.w3.org/2000/svg" xmlns:xlink="http://www.w3.org/1999/xlink" x="0px" y="0px"
	 viewBox="0 0 24 24" enable-background="new 0 0 24 24" xml:space="preserve">
<g>
	<path d="M23.1457,9.87631C22.828,9.49747,22.35584,9.25,21.81934,9.25c0,0-10.67676,0-10.67681,0
		c-0.14966-0.00003-0.26695-0.13595-0.248-0.2832l0.09766-0.73535c0.06738-0.5-0.08496-1.00488-0.41699-1.38379
		C10.24219,6.46777,9.7627,6.25,9.25781,6.25H4.87598c-0.87305,0-1.61914,0.65332-1.73438,1.51953L2.81287,10.25
		c0,0-0.71781,0-0.71814,0c-1.00136,0-1.83525,0.90498-1.74219,1.90234l0.81738,10.00684
		C1.25293,23.06641,2.00195,23.75,2.91309,23.75c0,0,18.07831,0,18.08691,0c0.39297,0,0.64705-0.27917,0.74121-0.63672
		c0,0,1.80415-11.82263,1.80469-11.82617C23.62589,10.76295,23.46266,10.25426,23.1457,9.87631z M2.91309,22.25
		c-0.12793,0-0.2373-0.09961-0.24902-0.2207c0,0-0.81738-10.00684-0.81739-10.00691C1.83342,11.8777,1.94983,11.75,2.09473,11.75
		h3.60352c0.10547,0,0.2002,0.06738,0.23535,0.16699l0.5918,1.66602C6.77051,14.28125,7.43359,14.75,8.1748,14.75h10.94238
		c0.12598,0,0.23242,0.09375,0.24707,0.20801L20.16309,22.25H2.91309z M21.1217,17.23029l-0.26819-2.44708
		c-0.10938-0.87402-0.85547-1.5332-1.73633-1.5332H8.1748c-0.10547,0-0.2002-0.06641-0.23535-0.16699l-0.5918-1.66797
		C7.10059,10.71875,6.4375,10.25,5.69824,10.25H4.32538l0.30255-2.28223C4.64453,7.84375,4.75098,7.75,4.87598,7.75
		c0,0,4.38184,0,4.38188,0c0.14968,0.00002,0.26721,0.13545,0.248,0.2832c0,0-0.09764,0.7352-0.09766,0.73535
		C9.2709,9.80248,10.09961,10.75,11.14258,10.75c0,0,10.67676,0,10.6768,0c0.1612,0.00002,0.26975,0.14725,0.24508,0.30078
		L21.1217,17.23029z"/>
	<path d="M16.53027,3.53027L17.25,2.81055V6c0,0.41406,0.33594,0.75,0.75,0.75S18.75,6.41406,18.75,6V2.81055l0.71973,0.71973
		C19.61621,3.67676,19.80762,3.75,20,3.75s0.38379-0.07324,0.53027-0.21973c0.29297-0.29297,0.29297-0.76758,0-1.06055l-2-2
		c-0.29297-0.29297-0.76758-0.29297-1.06055,0l-2,2c-0.29297,0.29297-0.29297,0.76758,0,1.06055S16.2373,3.82324,16.53027,3.53027z"
		/>
</g>
</svg>
