<?xml version="1.0" encoding="utf-8"?>
<!-- Generator: Adobe Illustrator 24.0.2, SVG Export Plug-In . SVG Version: 6.00 Build 0)  -->
<svg version="1.1" id="Outline" xmlns="http://www.w3.org/2000/svg" xmlns:xlink="http://www.w3.org/1999/xlink" x="0px" y="0px"
	 viewBox="0 0 24 24" enable-background="new 0 0 24 24" xml:space="preserve">
<g>
	<path d="M23.13714,9.8837C22.81866,9.50316,22.3488,9.25,21.81934,9.25c0,0-10.67725,0-10.67729,0
		c-0.14978-0.00002-0.2675-0.13519-0.24752-0.2832l0.09766-0.73535c0.06689-0.5-0.08496-1.00488-0.41748-1.38379
		C10.24268,6.46777,9.7627,6.25,9.25781,6.25H4.87646c-0.87451,0-1.62012,0.65332-1.73535,1.51953L2.81281,10.25H2.09521
		c-0.49072,0-0.96143,0.20801-1.29248,0.57031c-0.33057,0.36133-0.49512,0.84961-0.45117,1.33203l0.81885,10.00684
		C1.25342,23.06641,2.00244,23.75,2.91309,23.75c0,0,18.08068,0,18.08691,0c0.38656,0,0.64647-0.27698,0.74121-0.63672
		c0,0,1.80226-11.81026,1.80469-11.82616C23.62393,10.77577,23.45676,10.26559,23.13714,9.8837z M2.91309,22.25
		c-0.12988,0-0.23682-0.09766-0.24805-0.2207L1.84619,12.02344c-0.00879-0.09668,0.03662-0.16211,0.06445-0.19238
		C1.93799,11.80078,1.99902,11.75,2.09521,11.75h3.60254c0.10547,0,0.2002,0.06641,0.23535,0.16699l0.5918,1.66797
		C6.77197,14.28125,7.43506,14.75,8.17432,14.75h10.94287c0.12598,0,0.23242,0.09375,0.24707,0.20801L20.16309,22.25H2.91309z
		 M21.1217,17.23029l-0.26819-2.44708c-0.10938-0.87402-0.85547-1.5332-1.73633-1.5332H8.17432
		c-0.10547,0-0.2002-0.06738-0.23535-0.16699l-0.5918-1.66699C7.10107,10.71875,6.43799,10.25,5.69775,10.25H4.32617l0.30225-2.2832
		C4.64453,7.84277,4.75146,7.75,4.87646,7.75c0,0,4.38135,0,4.3814,0c0.15022,0.00003,0.2673,0.13509,0.24751,0.2832
		L9.40771,8.76855c-0.06689,0.5,0.08545,1.00488,0.41748,1.38379c0.33203,0.37988,0.8125,0.59766,1.31689,0.59766
		c0,0,10.65637,0,10.67722,0c0.15503,0,0.26989,0.14682,0.24515,0.30078L21.1217,17.23029z"/>
	<path d="M17.46973,6.53027C17.61621,6.67676,17.80762,6.75,18,6.75s0.38379-0.07324,0.53027-0.21973l2-2
		c0.29297-0.29297,0.29297-0.76758,0-1.06055s-0.76758-0.29297-1.06055,0L18.75,4.18945V1c0-0.41406-0.33594-0.75-0.75-0.75
		S17.25,0.58594,17.25,1v3.18945l-0.71973-0.71973c-0.29297-0.29297-0.76758-0.29297-1.06055,0s-0.29297,0.76758,0,1.06055
		L17.46973,6.53027z"/>
</g>
</svg>
