<?xml version="1.0" encoding="utf-8"?>
<!-- Generator: Adobe Illustrator 24.0.2, SVG Export Plug-In . SVG Version: 6.00 Build 0)  -->
<svg version="1.1" id="Outline" xmlns="http://www.w3.org/2000/svg" xmlns:xlink="http://www.w3.org/1999/xlink" x="0px" y="0px"
	 viewBox="0 0 24 24" enable-background="new 0 0 24 24" xml:space="preserve">
<g>
	<path d="M21.53027,5.46973l-5-5C16.38965,0.3291,16.19922,0.25,16,0.25H4C3.03516,0.25,2.25,1.03516,2.25,2v20
		c0,0.96484,0.78516,1.75,1.75,1.75h16c0.96484,0,1.75-0.78516,1.75-1.75V6C21.75,5.80127,21.6709,5.61035,21.53027,5.46973z
		 M16.75,2.81055L19.18945,5.25H17c-0.1377,0-0.25-0.1123-0.25-0.25V2.81055z M20,22.25H4c-0.13574,0-0.25-0.11426-0.25-0.25V2
		c0-0.13574,0.11426-0.25,0.25-0.25h11.25V5c0,0.96484,0.78516,1.75,1.75,1.75h3.25V22C20.25,22.13574,20.13574,22.25,20,22.25z"/>
	<path d="M14.65137,10.34863c-0.29297-0.29297-0.76758-0.29297-1.06055,0L12,11.93945l-1.59082-1.59082
		c-0.29297-0.29297-0.76758-0.29297-1.06055,0s-0.29297,0.76758,0,1.06055L10.93945,13l-1.59082,1.59082
		c-0.29297,0.29297-0.29297,0.76758,0,1.06055c0.28453,0.28453,0.76893,0.29162,1.06055,0L12,14.06055
		c0,0,1.59072,1.59072,1.59082,1.59082c0.28414,0.28414,0.76965,0.29089,1.06055,0c0.29297-0.29297,0.29297-0.76758,0-1.06055
		L13.06055,13l1.59082-1.59082C14.94434,11.11621,14.94434,10.6416,14.65137,10.34863z"/>
</g>
</svg>
