<?xml version="1.0" encoding="utf-8"?>
<!-- Generator: Adobe Illustrator 24.0.2, SVG Export Plug-In . SVG Version: 6.00 Build 0)  -->
<svg version="1.1" id="Outline" xmlns="http://www.w3.org/2000/svg" xmlns:xlink="http://www.w3.org/1999/xlink" x="0px" y="0px"
	 viewBox="0 0 24 24" enable-background="new 0 0 24 24" xml:space="preserve">
<g>
	<path d="M21.53027,5.46973l-5-5C16.38965,0.3291,16.19922,0.25,16,0.25H4C3.03516,0.25,2.25,1.03516,2.25,2v20
		c0,0.96484,0.78516,1.75,1.75,1.75h16c0.96484,0,1.75-0.78516,1.75-1.75V6C21.75,5.80127,21.6709,5.61035,21.53027,5.46973z
		 M16.75,2.81055L19.18945,5.25H17c-0.1377,0-0.25-0.1123-0.25-0.25V2.81055z M20,22.25H4c-0.13574,0-0.25-0.11426-0.25-0.25V2
		c0-0.13574,0.11426-0.25,0.25-0.25h11.25V5c0,0.96484,0.78516,1.75,1.75,1.75h3.25V22C20.25,22.13574,20.13574,22.25,20,22.25z"/>
	<path d="M6,10.25H5.5c-0.41406,0-0.75,0.33594-0.75,0.75v5c0,0.41406,0.33594,0.75,0.75,0.75H6c1.79199,0,3.25-1.45801,3.25-3.25
		S7.79199,10.25,6,10.25z M6.25,15.23242v-3.46484c0.84668,0.12207,1.5,0.85254,1.5,1.73242S7.09668,15.11035,6.25,15.23242z"/>
	<path d="M12,10.25c-1.24023,0-2.25,1.00928-2.25,2.25v2c0,1.24072,1.00977,2.25,2.25,2.25s2.25-1.00928,2.25-2.25v-2
		C14.25,11.25928,13.24023,10.25,12,10.25z M12.75,14.5c0,0.41357-0.33691,0.75-0.75,0.75s-0.75-0.33643-0.75-0.75v-2
		c0-0.41357,0.33691-0.75,0.75-0.75s0.75,0.33643,0.75,0.75V14.5z"/>
	<path d="M18,11.75h0.5c0.41406,0,0.75-0.33594,0.75-0.75s-0.33594-0.75-0.75-0.75H18c-1.79199,0-3.25,1.45801-3.25,3.25
		s1.45801,3.25,3.25,3.25h0.5c0.41406,0,0.75-0.33594,0.75-0.75s-0.33594-0.75-0.75-0.75H18c-0.96484,0-1.75-0.78516-1.75-1.75
		S17.03516,11.75,18,11.75z"/>
</g>
</svg>
