<?xml version="1.0" encoding="utf-8"?>
<!-- Generator: Adobe Illustrator 24.0.2, SVG Export Plug-In . SVG Version: 6.00 Build 0)  -->
<svg version="1.1" id="Outline" xmlns="http://www.w3.org/2000/svg" xmlns:xlink="http://www.w3.org/1999/xlink" x="0px" y="0px"
	 viewBox="0 0 24 24" enable-background="new 0 0 24 24" xml:space="preserve">
<g>
	<path d="M22,4.25h-9.6748L9.73877,1.4873C9.59717,1.33594,9.39893,1.25,9.19141,1.25H2C1.03516,1.25,0.25,2.03516,0.25,3v18
		c0,0.96484,0.78516,1.75,1.75,1.75h20c0.96484,0,1.75-0.78516,1.75-1.75V6C23.75,5.03516,22.96484,4.25,22,4.25z M2,2.75h6.86621
		l2.58643,2.7627C11.59424,5.66406,11.79248,5.75,12,5.75h10c0.1377,0,0.25,0.1123,0.25,0.25v2.27527
		C22.16766,8.26331,22.08557,8.25,22,8.25H2c-0.08557,0-0.16766,0.01331-0.25,0.02527V3C1.75,2.8623,1.8623,2.75,2,2.75z M22.25,21
		c0,0.1377-0.1123,0.25-0.25,0.25H2c-0.1377,0-0.25-0.1123-0.25-0.25V10c0-0.1377,0.1123-0.25,0.25-0.25h20
		c0.1377,0,0.25,0.1123,0.25,0.25V21z"/>
	<path d="M20,17.25h-3c-0.41406,0-0.75,0.33594-0.75,0.75s0.33594,0.75,0.75,0.75h3c0.41406,0,0.75-0.33594,0.75-0.75
		S20.41406,17.25,20,17.25z"/>
</g>
</svg>
