<?xml version="1.0" encoding="utf-8"?>
<!-- Generator: Adobe Illustrator 24.0.2, SVG Export Plug-In . SVG Version: 6.00 Build 0)  -->
<svg version="1.1" id="Outline" xmlns="http://www.w3.org/2000/svg" xmlns:xlink="http://www.w3.org/1999/xlink" x="0px" y="0px"
	 viewBox="0 0 24 24" enable-background="new 0 0 24 24" xml:space="preserve">
<g>
	<path d="M21.53027,5.46973l-5-5C16.38965,0.3291,16.19922,0.25,16,0.25H4C3.03516,0.25,2.25,1.03516,2.25,2v20
		c0,0.96484,0.78516,1.75,1.75,1.75h16c0.96484,0,1.75-0.78516,1.75-1.75V6C21.75,5.80127,21.6709,5.61035,21.53027,5.46973z
		 M16.75,2.81055L19.18945,5.25H17c-0.1377,0-0.25-0.1123-0.25-0.25V2.81055z M20,22.25H4c-0.13574,0-0.25-0.11426-0.25-0.25V2
		c0-0.13574,0.11426-0.25,0.25-0.25h11.25V5c0,0.96484,0.78516,1.75,1.75,1.75h3.25V22C20.25,22.13574,20.13574,22.25,20,22.25z"/>
	<path d="M7,11.75h2c0.41406,0,0.75-0.33594,0.75-0.75S9.41406,10.25,9,10.25H7c-0.96484,0-1.75,0.78516-1.75,1.75v3
		c0,0.96484,0.78516,1.75,1.75,1.75h2c0.41406,0,0.75-0.33594,0.75-0.75v-2c0-0.41406-0.33594-0.75-0.75-0.75H8
		c-0.41406,0-0.75,0.33594-0.75,0.75S7.58594,14.75,8,14.75h0.25v0.5H7c-0.1377,0-0.25-0.1123-0.25-0.25v-3
		C6.75,11.8623,6.8623,11.75,7,11.75z"/>
	<path d="M12,10.25c-0.41406,0-0.75,0.33594-0.75,0.75v5c0,0.41406,0.33594,0.75,0.75,0.75s0.75-0.33594,0.75-0.75v-5
		C12.75,10.58594,12.41406,10.25,12,10.25z"/>
	<path d="M18,11.75c0.41406,0,0.75-0.33594,0.75-0.75s-0.33594-0.75-0.75-0.75h-3c-0.41406,0-0.75,0.33594-0.75,0.75v5
		c0,0.41406,0.33594,0.75,0.75,0.75s0.75-0.33594,0.75-0.75v-1.25H18c0.41406,0,0.75-0.33594,0.75-0.75s-0.33594-0.75-0.75-0.75
		h-2.25v-1.5H18z"/>
</g>
</svg>
