<?xml version="1.0" encoding="utf-8"?>
<!-- Generator: Adobe Illustrator 24.0.2, SVG Export Plug-In . SVG Version: 6.00 Build 0)  -->
<svg version="1.1" id="Outline" xmlns="http://www.w3.org/2000/svg" xmlns:xlink="http://www.w3.org/1999/xlink" x="0px" y="0px"
	 viewBox="0 0 24 24" enable-background="new 0 0 24 24" xml:space="preserve">
<g>
	<path d="M21.53027,5.46973l-5-5C16.38965,0.3291,16.19922,0.25,16,0.25H4C3.03516,0.25,2.25,1.03516,2.25,2v20
		c0,0.96484,0.78516,1.75,1.75,1.75h16c0.96484,0,1.75-0.78516,1.75-1.75V6C21.75,5.80127,21.6709,5.61035,21.53027,5.46973z
		 M16.75,2.81055L19.18945,5.25H17c-0.1377,0-0.25-0.1123-0.25-0.25V2.81055z M20,22.25H4c-0.13574,0-0.25-0.11426-0.25-0.25V2
		c0-0.13574,0.11426-0.25,0.25-0.25h11.25V5c0,0.96484,0.78516,1.75,1.75,1.75h3.25V22C20.25,22.13574,20.13574,22.25,20,22.25z"/>
	<path d="M16.5,11.75h2c0.41406,0,0.75-0.33594,0.75-0.75s-0.33594-0.75-0.75-0.75h-2c-0.96484,0-1.75,0.78516-1.75,1.75v3
		c0,0.96484,0.78516,1.75,1.75,1.75h2c0.41406,0,0.75-0.33594,0.75-0.75v-2c0-0.41406-0.33594-0.75-0.75-0.75h-1
		c-0.41406,0-0.75,0.33594-0.75,0.75s0.33594,0.75,0.75,0.75h0.25v0.5H16.5c-0.1377,0-0.25-0.1123-0.25-0.25v-3
		C16.25,11.8623,16.3623,11.75,16.5,11.75z"/>
	<path d="M8.5,10.25h-2c-0.41406,0-0.75,0.33594-0.75,0.75s0.33594,0.75,0.75,0.75h1.25v2.75c0,0.41357-0.33691,0.75-0.75,0.75
		s-0.75-0.33643-0.75-0.75V14c0-0.41406-0.33594-0.75-0.75-0.75S4.75,13.58594,4.75,14v0.5c0,1.24072,1.00977,2.25,2.25,2.25
		s2.25-1.00928,2.25-2.25V11C9.25,10.58594,8.91406,10.25,8.5,10.25z"/>
	<path d="M12,10.25h-1.5c-0.41406,0-0.75,0.33594-0.75,0.75c0,1.66667,0,3.33333,0,5c0,0.41406,0.33594,0.75,0.75,0.75
		s0.75-0.33594,0.75-0.75v-1.25H12c1.24023,0,2.25-1.00928,2.25-2.25S13.24023,10.25,12,10.25z M12,13.25h-0.75v-1.5H12
		c0.41309,0,0.75,0.33643,0.75,0.75S12.41309,13.25,12,13.25z"/>
</g>
</svg>
