<?xml version="1.0" encoding="utf-8"?>
<!-- Generator: Adobe Illustrator 24.0.2, SVG Export Plug-In . SVG Version: 6.00 Build 0)  -->
<svg version="1.1" id="Outline" xmlns="http://www.w3.org/2000/svg" xmlns:xlink="http://www.w3.org/1999/xlink" x="0px" y="0px"
	 viewBox="0 0 24 24" enable-background="new 0 0 24 24" xml:space="preserve">
<g>
	<path d="M21.53027,5.46973l-5-5C16.38965,0.3291,16.19873,0.25,16,0.25H4C3.03516,0.25,2.25,1.03516,2.25,2v20
		c0,0.96484,0.78516,1.75,1.75,1.75h16c0.96484,0,1.75-0.78516,1.75-1.75V6C21.75,5.80127,21.6709,5.61035,21.53027,5.46973z
		 M16.75,2.81055L19.18945,5.25H17c-0.1377,0-0.25-0.1123-0.25-0.25V2.81055z M20,22.25H4c-0.13574,0-0.25-0.11426-0.25-0.25V2
		c0-0.13574,0.11426-0.25,0.25-0.25h11.25V5c0,0.96484,0.78516,1.75,1.75,1.75h3.25V22C20.25,22.13574,20.13574,22.25,20,22.25z"/>
	<path d="M8.46973,8.46973L7,9.93945L6.53027,9.46973c-0.29297-0.29297-0.76758-0.29297-1.06055,0s-0.29297,0.76758,0,1.06055l1,1
		C6.61621,11.67676,6.80811,11.75,7,11.75s0.38379-0.07324,0.53027-0.21973l2-2c0.29297-0.29297,0.29297-0.76758,0-1.06055
		S8.7627,8.17676,8.46973,8.46973z"/>
	<path d="M18,9.25h-6c-0.41406,0-0.75,0.33594-0.75,0.75s0.33594,0.75,0.75,0.75h6c0.41406,0,0.75-0.33594,0.75-0.75
		S18.41406,9.25,18,9.25z"/>
	<path d="M8.46973,12.46973L7,13.93945l-0.46973-0.46973c-0.29297-0.29297-0.76758-0.29297-1.06055,0s-0.29297,0.76758,0,1.06055
		l1,1C6.61621,15.67676,6.80811,15.75,7,15.75s0.38379-0.07324,0.53027-0.21973l2-2c0.29297-0.29297,0.29297-0.76758,0-1.06055
		S8.7627,12.17676,8.46973,12.46973z"/>
	<path d="M18,13.25h-6c-0.41406,0-0.75,0.33594-0.75,0.75s0.33594,0.75,0.75,0.75h6c0.41406,0,0.75-0.33594,0.75-0.75
		S18.41406,13.25,18,13.25z"/>
	<path d="M8.46973,16.46973L7,17.93945l-0.46973-0.46973c-0.29297-0.29297-0.76758-0.29297-1.06055,0s-0.29297,0.76758,0,1.06055
		l1,1C6.61621,19.67676,6.80811,19.75,7,19.75s0.38379-0.07324,0.53027-0.21973l2-2c0.29297-0.29297,0.29297-0.76758,0-1.06055
		S8.7627,16.17676,8.46973,16.46973z"/>
	<path d="M18,17.25h-6c-0.41406,0-0.75,0.33594-0.75,0.75s0.33594,0.75,0.75,0.75h6c0.41406,0,0.75-0.33594,0.75-0.75
		S18.41406,17.25,18,17.25z"/>
</g>
</svg>
