<?xml version="1.0" encoding="utf-8"?>
<!-- Generator: Adobe Illustrator 24.0.2, SVG Export Plug-In . SVG Version: 6.00 Build 0)  -->
<svg version="1.1" id="Outline" xmlns="http://www.w3.org/2000/svg" xmlns:xlink="http://www.w3.org/1999/xlink" x="0px" y="0px"
	 viewBox="0 0 24 24" enable-background="new 0 0 24 24" xml:space="preserve">
<g>
	<path d="M21.53027,5.46973l-5-5C16.38965,0.3291,16.19922,0.25,16,0.25H4C3.03516,0.25,2.25,1.03516,2.25,2v20
		c0,0.96484,0.78516,1.75,1.75,1.75h16c0.96484,0,1.75-0.78516,1.75-1.75V6C21.75,5.80127,21.6709,5.61035,21.53027,5.46973z
		 M16.75,2.81055L19.18945,5.25H17c-0.1377,0-0.25-0.1123-0.25-0.25V2.81055z M20,22.25H4c-0.13574,0-0.25-0.11426-0.25-0.25V2
		c0-0.13574,0.11426-0.25,0.25-0.25h11.25V5c0,0.96484,0.78516,1.75,1.75,1.75h3.25V22C20.25,22.13574,20.13574,22.25,20,22.25z"/>
	<path d="M16,10.25c-0.01563,0-1.5498-0.06738-2.28223-2.46875C13.60938,7.42578,13.25,7.20313,12.88965,7.2583
		C12.52148,7.31299,12.25,7.62842,12.25,8v5.68994C11.74384,13.41443,11.14532,13.25,10.5,13.25c-1.79199,0-3.25,1.2334-3.25,2.75
		s1.45801,2.75,3.25,2.75s3.25-1.2334,3.25-2.75v-5.26221C14.81152,11.73242,15.92969,11.75,16,11.75
		c0.41406,0,0.75-0.33594,0.75-0.75S16.41406,10.25,16,10.25z M10.5,17.25c-0.94824,0-1.75-0.57227-1.75-1.25
		s0.80176-1.25,1.75-1.25s1.75,0.57227,1.75,1.25S11.44824,17.25,10.5,17.25z"/>
</g>
</svg>
