<?xml version="1.0" encoding="utf-8"?>
<!-- Generator: Adobe Illustrator 24.0.2, SVG Export Plug-In . SVG Version: 6.00 Build 0)  -->
<svg version="1.1" id="Outline" xmlns="http://www.w3.org/2000/svg" xmlns:xlink="http://www.w3.org/1999/xlink" x="0px" y="0px"
	 viewBox="0 0 24 24" enable-background="new 0 0 24 24" xml:space="preserve">
<g>
	<path d="M21.69077,5.71167c-0.03775-0.09021-0.09239-0.17338-0.1605-0.24194c0,0-4.99053-4.99053-4.99999-4.99999
		C16.3927,0.33216,16.19412,0.25,16,0.25H4C3.03516,0.25,2.25,1.03516,2.25,2v20c0,0.96484,0.78516,1.75,1.75,1.75h16
		c0.96484,0,1.75-0.78516,1.75-1.75c0,0,0-15.96853,0-15.99996C21.75,5.90194,21.72907,5.80318,21.69077,5.71167z M16.75,2.81055
		L19.18945,5.25H17c-0.1377,0-0.25-0.1123-0.25-0.25V2.81055z M20,22.25H4c-0.13574,0-0.25-0.11426-0.25-0.25V2
		c0-0.13574,0.11426-0.25,0.25-0.25h11.25V5c0,0.96484,0.78516,1.75,1.75,1.75h3.25V22C20.25,22.13574,20.13574,22.25,20,22.25z"/>
	<path d="M7,10.25H5.5c-0.41406,0-0.75,0.33594-0.75,0.75001c0,1.66666,0,3.33333,0,4.99999c0,0.41406,0.33594,0.75,0.75,0.75
		S6.25,16.41406,6.25,16v-1.25H7c1.24072,0,2.25-1.00977,2.25-2.25C9.25,11.25928,8.24072,10.25,7,10.25z M7,13.25H6.25v-1.5H7
		c0.41357,0,0.75,0.33643,0.75,0.75S7.41357,13.25,7,13.25z"/>
	<path d="M11,10.25h-0.5c-0.41406,0-0.75,0.33594-0.75,0.75v5c0,0.41406,0.33594,0.75,0.75,0.75H11
		c1.79199,0,3.25-1.45801,3.25-3.25S12.79199,10.25,11,10.25z M11.25,15.23242v-3.46484c0.84717,0.12207,1.5,0.85254,1.5,1.73242
		S12.09717,15.11035,11.25,15.23242z"/>
	<path d="M18.5,11.75c0.41406,0,0.75-0.33594,0.75-0.75s-0.33594-0.75-0.75-0.75h-3c-0.41406,0-0.75,0.33594-0.75,0.75v5
		c0,0.41406,0.33594,0.75,0.75,0.75s0.75-0.33594,0.75-0.75v-1.25h2.25c0.41406,0,0.75-0.33594,0.75-0.75s-0.33594-0.75-0.75-0.75
		h-2.25v-1.5H18.5z"/>
</g>
</svg>
