<?xml version="1.0" encoding="utf-8"?>
<!-- Generator: Adobe Illustrator 24.0.2, SVG Export Plug-In . SVG Version: 6.00 Build 0)  -->
<svg version="1.1" id="Outline" xmlns="http://www.w3.org/2000/svg" xmlns:xlink="http://www.w3.org/1999/xlink" x="0px" y="0px"
	 viewBox="0 0 24 24" enable-background="new 0 0 24 24" xml:space="preserve">
<g>
	<path d="M21.53027,5.46973l-5-5C16.38965,0.3291,16.19922,0.25,16,0.25H4C3.03516,0.25,2.25,1.03516,2.25,2v20
		c0,0.96484,0.78516,1.75,1.75,1.75h16c0.96484,0,1.75-0.78516,1.75-1.75V6C21.75,5.80127,21.6709,5.61035,21.53027,5.46973z
		 M16.75,2.81055L19.18945,5.25H17c-0.1377,0-0.25-0.1123-0.25-0.25V2.81055z M20,22.25H4c-0.13574,0-0.25-0.11426-0.25-0.25V2
		c0-0.13574,0.11426-0.25,0.25-0.25h11.25V5c0,0.96484,0.78516,1.75,1.75,1.75h3.25V22C20.25,22.13574,20.13574,22.25,20,22.25z"/>
	<path d="M13,8.25c-0.41406,0-0.75,0.33594-0.75,0.75v4c0,0.41406,0.33594,0.75,0.75,0.75h4c0.41406,0,0.75-0.33594,0.75-0.75
		C17.75,10.38086,15.61914,8.25,13,8.25z M13.75,12.25V9.8374c1.19043,0.28223,2.12988,1.22168,2.41309,2.4126H13.75z"/>
	<path d="M15,14.25h-3.25V11c0-0.41406-0.33594-0.75-0.75-0.75c-2.61914,0-4.75,2.13086-4.75,4.75s2.13086,4.75,4.75,4.75
		s4.75-2.13086,4.75-4.75C15.75,14.58594,15.41406,14.25,15,14.25z M11,18.25c-1.79199,0-3.25-1.45801-3.25-3.25
		c0-1.53418,1.06836-2.82324,2.5-3.1626V15c0,0.41406,0.33594,0.75,0.75,0.75h3.16309C13.82324,17.18164,12.53418,18.25,11,18.25z"
		/>
</g>
</svg>
