<?xml version="1.0" encoding="utf-8"?>
<!-- Generator: Adobe Illustrator 24.0.2, SVG Export Plug-In . SVG Version: 6.00 Build 0)  -->
<svg version="1.1" id="Outline" xmlns="http://www.w3.org/2000/svg" xmlns:xlink="http://www.w3.org/1999/xlink" x="0px" y="0px"
	 viewBox="0 0 24 24" enable-background="new 0 0 24 24" xml:space="preserve">
<g>
	<path d="M21.53027,5.46973l-5-5C16.38965,0.3291,16.19873,0.25,16,0.25H4C3.03516,0.25,2.25,1.03516,2.25,2v20
		c0,0.96484,0.78516,1.75,1.75,1.75h16c0.96484,0,1.75-0.78516,1.75-1.75V6C21.75,5.80127,21.6709,5.61035,21.53027,5.46973z
		 M16.75,2.81055L19.18945,5.25H17c-0.1377,0-0.25-0.1123-0.25-0.25V2.81055z M20,22.25H4c-0.13574,0-0.25-0.11426-0.25-0.25V2
		c0-0.13574,0.11426-0.25,0.25-0.25h11.25V5c0,0.96484,0.78516,1.75,1.75,1.75h3.25V22C20.25,22.13574,20.13574,22.25,20,22.25z"/>
	<path d="M7,10.25H5.5c-0.41406,0-0.75,0.33594-0.75,0.75001c0,1.66666,0,3.33333,0,4.99999c0,0.41406,0.33594,0.75,0.75,0.75
		S6.25,16.41406,6.25,16v-1.25H7c1.24072,0,2.25-1.00928,2.25-2.25S8.24072,10.25,7,10.25z M7,13.25H6.25v-1.5H7
		c0.41357,0,0.75,0.33643,0.75,0.75S7.41357,13.25,7,13.25z"/>
	<path d="M13.5,10.25c-0.41406,0-0.75,0.33594-0.75,0.75v2.29248l-1.60693-2.67822
		c-0.17285-0.28906-0.51855-0.42725-0.84326-0.33691C9.9751,10.36719,9.75,10.66309,9.75,11v5c0,0.41406,0.33594,0.75,0.75,0.75
		s0.75-0.33594,0.75-0.75v-2.29248c0,0,1.60496,2.67493,1.60693,2.67822c0.17061,0.28436,0.52394,0.42614,0.84326,0.33692
		C14.0249,16.63281,14.25,16.33691,14.25,16v-5C14.25,10.58594,13.91406,10.25,13.5,10.25z"/>
	<path d="M16.5,11.75h2c0.41406,0,0.75-0.33594,0.75-0.75s-0.33594-0.75-0.75-0.75h-2c-0.96484,0-1.75,0.78516-1.75,1.75v3
		c0,0.96484,0.78516,1.75,1.75,1.75h2c0.41406,0,0.75-0.33594,0.75-0.75v-2c0-0.41406-0.33594-0.75-0.75-0.75h-1
		c-0.41406,0-0.75,0.33594-0.75,0.75s0.33594,0.75,0.75,0.75h0.25v0.5H16.5c-0.1377,0-0.25-0.1123-0.25-0.25v-3
		C16.25,11.8623,16.3623,11.75,16.5,11.75z"/>
</g>
</svg>
