<?xml version="1.0" encoding="utf-8"?>
<!-- Generator: Adobe Illustrator 24.0.2, SVG Export Plug-In . SVG Version: 6.00 Build 0)  -->
<svg version="1.1" id="Outline" xmlns="http://www.w3.org/2000/svg" xmlns:xlink="http://www.w3.org/1999/xlink" x="0px" y="0px"
	 viewBox="0 0 24 24" enable-background="new 0 0 24 24" xml:space="preserve">
<g>
	<path d="M21.53027,5.46973l-5-5C16.38965,0.3291,16.19873,0.25,16,0.25H4C3.03516,0.25,2.25,1.03516,2.25,2v20
		c0,0.96484,0.78516,1.75,1.75,1.75h16c0.96484,0,1.75-0.78516,1.75-1.75V6C21.75,5.80127,21.6709,5.61035,21.53027,5.46973z
		 M16.75,2.81055L19.18945,5.25H17c-0.1377,0-0.25-0.1123-0.25-0.25V2.81055z M20,22.25H4c-0.13574,0-0.25-0.11426-0.25-0.25V2
		c0-0.13574,0.11426-0.25,0.25-0.25h11.25V5c0,0.96484,0.78516,1.75,1.75,1.75h3.25V22C20.25,22.13574,20.13574,22.25,20,22.25z"/>
	<path d="M12,8.25c-1.5166,0-2.75,1.2334-2.75,2.75c0,0.41406,0.33594,0.75,0.75,0.75s0.75-0.33594,0.75-0.75
		c0-0.68945,0.56055-1.25,1.25-1.25s1.25,0.56055,1.25,1.25c0,0.40283-0.18701,0.77051-0.51221,1.00928
		C11.79248,12.70166,11.25,13.69629,11.25,14.7373V15c0,0.41406,0.33594,0.75,0.75,0.75s0.75-0.33594,0.75-0.75v-0.2627
		c0-0.76367,0.54785-1.27881,0.87451-1.51807C14.32959,12.70215,14.75,11.87256,14.75,11C14.75,9.4834,13.5166,8.25,12,8.25z"/>
	<circle cx="12" cy="18" r="0.75"/>
</g>
</svg>
