<?xml version="1.0" encoding="utf-8"?>
<!-- Generator: Adobe Illustrator 24.0.2, SVG Export Plug-In . SVG Version: 6.00 Build 0)  -->
<svg version="1.1" id="Outline" xmlns="http://www.w3.org/2000/svg" xmlns:xlink="http://www.w3.org/1999/xlink" x="0px" y="0px"
	 viewBox="0 0 24 24" enable-background="new 0 0 24 24" xml:space="preserve">
<g>
	<path d="M21.53027,5.46973l-5-5C16.38965,0.3291,16.19873,0.25,16,0.25H4C3.03516,0.25,2.25,1.03516,2.25,2v20
		c0,0.96484,0.78516,1.75,1.75,1.75h16c0.96484,0,1.75-0.78516,1.75-1.75V6C21.75,5.80078,21.6709,5.61035,21.53027,5.46973z
		 M16.75,2.81055L19.18945,5.25H17c-0.1377,0-0.25-0.1123-0.25-0.25V2.81055z M20,22.25H4c-0.13574,0-0.25-0.11426-0.25-0.25V2
		c0-0.13574,0.11426-0.25,0.25-0.25h11.25V5c0,0.96484,0.78516,1.75,1.75,1.75h3.25V22C20.25,22.13574,20.13574,22.25,20,22.25z"/>
	<path d="M14.12518,14.06464C14.51819,13.47174,14.75,12.76294,14.75,12c0-2.06738-1.68213-3.75-3.75-3.75S7.25,9.93262,7.25,12
		s1.68213,3.75,3.75,3.75c0.76306,0,1.47186-0.23175,2.0647-0.62476c0,0,2.39471,2.39471,2.405,2.405
		c0.27503,0.27503,0.77232,0.28829,1.06058,0.00003c0.29297-0.29297,0.29297-0.76758,0-1.06055L14.12518,14.06464z M8.75,12
		c0-1.24023,1.00928-2.25,2.25-2.25s2.25,1.00977,2.25,2.25s-1.00928,2.25-2.25,2.25S8.75,13.24023,8.75,12z"/>
</g>
</svg>
