<?xml version="1.0" encoding="utf-8"?>
<!-- Generator: Adobe Illustrator 24.0.2, SVG Export Plug-In . SVG Version: 6.00 Build 0)  -->
<svg version="1.1" id="Outline" xmlns="http://www.w3.org/2000/svg" xmlns:xlink="http://www.w3.org/1999/xlink" x="0px" y="0px"
	 viewBox="0 0 24 24" enable-background="new 0 0 24 24" xml:space="preserve">
<g>
	<path d="M21.53027,5.46973l-5-5C16.38965,0.3291,16.19873,0.25,16,0.25H4C3.03516,0.25,2.25,1.03516,2.25,2v20
		c0,0.96484,0.78516,1.75,1.75,1.75h16c0.96484,0,1.75-0.78516,1.75-1.75V6C21.75,5.80127,21.6709,5.61035,21.53027,5.46973z
		 M16.75,2.81055L19.18945,5.25H17c-0.1377,0-0.25-0.1123-0.25-0.25V2.81055z M20,22.25H4c-0.13574,0-0.25-0.11426-0.25-0.25V2
		c0-0.13574,0.11426-0.25,0.25-0.25h11.25V5c0,0.96484,0.78516,1.75,1.75,1.75h3.25V22C20.25,22.13574,20.13574,22.25,20,22.25z"/>
	<path d="M6.16211,11.75H8c0.41406,0,0.75-0.33594,0.75-0.75S8.41406,10.25,8,10.25H6.16211
		c-1.0542,0-1.91211,0.85791-1.91211,1.91211c0,0.82422,0.52539,1.55371,1.30762,1.81348l1.41016,0.47168
		C7.13672,14.50293,7.25,14.66016,7.25,14.83789c0,0.22754-0.18506,0.41211-0.41211,0.41211H5c-0.41406,0-0.75,0.33594-0.75,0.75
		S4.58594,16.75,5,16.75h1.83789c1.0542,0,1.91211-0.85742,1.91211-1.91211c0-0.82422-0.52539-1.55371-1.30762-1.81348
		l-1.41016-0.47119C5.86328,12.49707,5.75,12.33984,5.75,12.16211C5.75,11.93506,5.93506,11.75,6.16211,11.75z"/>
	<path d="M14,10.25c-0.41406,0-0.75,0.33594-0.75,0.75v2.52246l-0.62598-0.93848c-0.27832-0.41699-0.96973-0.41699-1.24805,0
		L10.75,13.52246V11c0-0.41406-0.33594-0.75-0.75-0.75S9.25,10.58594,9.25,11v5c0,0.33008,0.21631,0.62207,0.53271,0.71777
		c0.31445,0.09375,0.65771-0.02637,0.84131-0.30176L12,14.35254c0,0,1.37573,2.0631,1.37598,2.06348
		c0.17777,0.26659,0.52663,0.39595,0.84131,0.30176C14.53369,16.62207,14.75,16.33008,14.75,16v-5
		C14.75,10.58594,14.41406,10.25,14,10.25z"/>
	<path d="M19,11.75c0.41406,0,0.75-0.33594,0.75-0.75s-0.33594-0.75-0.75-0.75h-3c-0.41406,0-0.75,0.33594-0.75,0.75v5
		c0,0.41406,0.33594,0.75,0.75,0.75s0.75-0.33594,0.75-0.75v-1.25H19c0.41406,0,0.75-0.33594,0.75-0.75s-0.33594-0.75-0.75-0.75
		h-2.25v-1.5H19z"/>
</g>
</svg>
