<?xml version="1.0" encoding="utf-8"?>
<!-- Generator: Adobe Illustrator 24.0.2, SVG Export Plug-In . SVG Version: 6.00 Build 0)  -->
<svg version="1.1" id="Outline" xmlns="http://www.w3.org/2000/svg" xmlns:xlink="http://www.w3.org/1999/xlink" x="0px" y="0px"
	 viewBox="0 0 24 24" enable-background="new 0 0 24 24" xml:space="preserve">
<g>
	<path d="M22,0.25H2C1.03516,0.25,0.25,1.03516,0.25,2v14c0,0.96484,0.78516,1.75,1.75,1.75h7.25v4.5H7
		c-0.41406,0-0.75,0.33594-0.75,0.75S6.58594,23.75,7,23.75h3h4h3c0.41406,0,0.75-0.33594,0.75-0.75s-0.33594-0.75-0.75-0.75h-2.25
		v-4.5H22c0.96484,0,1.75-0.78516,1.75-1.75V2C23.75,1.03516,22.96484,0.25,22,0.25z M13.25,22.25h-2.5v-4.5h2.5V22.25z M22.25,16
		c0,0.1377-0.1123,0.25-0.25,0.25H2c-0.1377,0-0.25-0.1123-0.25-0.25V2c0-0.1377,0.1123-0.25,0.25-0.25h20
		c0.1377,0,0.25,0.1123,0.25,0.25V16z"/>
	<path d="M15.53027,3.46973c-0.29297-0.29297-0.76758-0.29297-1.06055,0s-0.29297,0.76758,0,1.06055L15.18945,5.25H7
		C6.58594,5.25,6.25,5.58594,6.25,6S6.58594,6.75,7,6.75h8.18945l-0.71973,0.71973
		c-0.29295,0.29295-0.29297,0.76752-0.00006,1.06049c0.27905,0.27911,0.76747,0.29318,1.0606,0.00006l2-2
		c0.29297-0.29297,0.29297-0.76758,0-1.06055L15.53027,3.46973z"/>
	<path d="M17,11.25H8.81055l0.71973-0.71973c0.29297-0.29297,0.29297-0.76758,0-1.06055s-0.76758-0.29297-1.06055,0l-2,2
		c-0.29297,0.29297-0.29297,0.76758,0,1.06055c0,0,1.99146,1.99146,1.99997,1.99997c0.274,0.274,0.77308,0.28752,1.06057,0.00003
		c0.29297-0.29297,0.29297-0.76758,0-1.06055L8.81055,12.75H17c0.41406,0,0.75-0.33594,0.75-0.75S17.41406,11.25,17,11.25z"/>
</g>
</svg>
