<?xml version="1.0" encoding="utf-8"?>
<!-- Generator: Adobe Illustrator 24.0.2, SVG Export Plug-In . SVG Version: 6.00 Build 0)  -->
<svg version="1.1" id="Outline" xmlns="http://www.w3.org/2000/svg" xmlns:xlink="http://www.w3.org/1999/xlink" x="0px" y="0px"
	 viewBox="0 0 24 24" enable-background="new 0 0 24 24" xml:space="preserve">
<g>
	<path d="M21.53027,5.46973l-5-5C16.38965,0.3291,16.19922,0.25,16,0.25H4C3.03516,0.25,2.25,1.03516,2.25,2v20
		c0,0.96484,0.78516,1.75,1.75,1.75h16c0.96484,0,1.75-0.78516,1.75-1.75V6C21.75,5.80078,21.6709,5.61035,21.53027,5.46973z
		 M16.75,2.81055L19.18945,5.25H17c-0.1377,0-0.25-0.1123-0.25-0.25V2.81055z M20,22.25H4c-0.13574,0-0.25-0.11426-0.25-0.25V2
		c0-0.13574,0.11426-0.25,0.25-0.25h11.25V5c0,0.96484,0.78516,1.75,1.75,1.75h3.25V22C20.25,22.13574,20.13574,22.25,20,22.25z"/>
	<path d="M17,10.25h-2.25V9c0-0.96484-0.78516-1.75-1.75-1.75h-2c-0.96484,0-1.75,0.78516-1.75,1.75v1.25H7
		c-0.41406,0-0.75,0.33594-0.75,0.75S6.58594,11.75,7,11.75h0.25V18c0,0.96484,0.78516,1.75,1.75,1.75h6
		c0.96484,0,1.75-0.78516,1.75-1.75v-6.25H17c0.41406,0,0.75-0.33594,0.75-0.75S17.41406,10.25,17,10.25z M10.75,9
		c0-0.1377,0.1123-0.25,0.25-0.25h2c0.1377,0,0.25,0.1123,0.25,0.25v1.25h-2.5V9z M15.25,18c0,0.1377-0.1123,0.25-0.25,0.25H9
		c-0.1377,0-0.25-0.1123-0.25-0.25v-6.25h6.5V18z"/>
	<path d="M12.75,13.5v3c0,0.41406,0.33594,0.75,0.75,0.75s0.75-0.33594,0.75-0.75v-3c0-0.41406-0.33594-0.75-0.75-0.75
		S12.75,13.08594,12.75,13.5z"/>
	<path d="M10.5,12.75c-0.41406,0-0.75,0.33594-0.75,0.75v3c0,0.41406,0.33594,0.75,0.75,0.75s0.75-0.33594,0.75-0.75v-3
		C11.25,13.08594,10.91406,12.75,10.5,12.75z"/>
</g>
</svg>
