<?xml version="1.0" encoding="utf-8"?>
<!-- Generator: Adobe Illustrator 24.0.2, SVG Export Plug-In . SVG Version: 6.00 Build 0)  -->
<svg version="1.1" id="Outline" xmlns="http://www.w3.org/2000/svg" xmlns:xlink="http://www.w3.org/1999/xlink" x="0px" y="0px"
	 viewBox="0 0 24 24" enable-background="new 0 0 24 24" xml:space="preserve">
<g>
	<path d="M17,6.25h-0.25V1c0-0.41406-0.33594-0.75-0.75-0.75H8C7.58594,0.25,7.25,0.58594,7.25,1v5.25H7
		C6.03516,6.25,5.25,7.03516,5.25,8v8c0,3.72168,3.02832,6.75,6.75,6.75s6.75-3.02832,6.75-6.75V8
		C18.75,7.03516,17.96484,6.25,17,6.25z M8.75,4.75H10c0.41406,0,0.75-0.33594,0.75-0.75S10.41406,3.25,10,3.25H8.75v-1.5h6.5v1.5
		H14c-0.41406,0-0.75,0.33594-0.75,0.75S13.58594,4.75,14,4.75h1.25v1.5h-6.5V4.75z M17.25,16c0,2.89453-2.35547,5.25-5.25,5.25
		S6.75,18.89453,6.75,16V8c0-0.1377,0.1123-0.25,0.25-0.25h10c0.1377,0,0.25,0.1123,0.25,0.25V16z"/>
	<path d="M12,12.25c-2.06738,0-3.75,1.68262-3.75,3.75s1.68262,3.75,3.75,3.75s3.75-1.68262,3.75-3.75S14.06738,12.25,12,12.25z
		 M12,18.25c-1.24023,0-2.25-1.00977-2.25-2.25s1.00977-2.25,2.25-2.25s2.25,1.00977,2.25,2.25S13.24023,18.25,12,18.25z"/>
</g>
</svg>
