<?xml version="1.0" encoding="utf-8"?>
<!-- Generator: Adobe Illustrator 24.0.2, SVG Export Plug-In . SVG Version: 6.00 Build 0)  -->
<svg version="1.1" id="Outline" xmlns="http://www.w3.org/2000/svg" xmlns:xlink="http://www.w3.org/1999/xlink" x="0px" y="0px"
	 viewBox="0 0 24 24" enable-background="new 0 0 24 24" xml:space="preserve">
<g>
	<path d="M21.53027,5.46973l-5-5C16.38965,0.3291,16.19922,0.25,16,0.25H4C3.03516,0.25,2.25,1.03516,2.25,2v20
		c0,0.96484,0.78516,1.75,1.75,1.75h16c0.96484,0,1.75-0.78516,1.75-1.75V6C21.75,5.80127,21.6709,5.61035,21.53027,5.46973z
		 M16.75,2.81055L19.18945,5.25H17c-0.1377,0-0.25-0.1123-0.25-0.25V2.81055z M20,22.25H4c-0.13574,0-0.25-0.11426-0.25-0.25V2
		c0-0.13574,0.11426-0.25,0.25-0.25h11.25V5c0,0.96484,0.78516,1.75,1.75,1.75h3.25V22C20.25,22.13574,20.13574,22.25,20,22.25z"/>
	<path d="M9.65234,10.63037C9.51953,10.39551,9.27051,10.25,9,10.25H6c-0.41406,0-0.75,0.33594-0.75,0.75S5.58594,11.75,6,11.75
		h1.67578l-2.31934,3.86426c-0.13867,0.23145-0.14258,0.52002-0.00879,0.75537C5.48047,16.60449,5.72949,16.75,6,16.75h3
		c0.41406,0,0.75-0.33594,0.75-0.75S9.41406,15.25,9,15.25H7.32422l2.31934-3.86426
		C9.78223,11.1543,9.78613,10.86572,9.65234,10.63037z"/>
	<path d="M12,10.25c-0.41406,0-0.75,0.33594-0.75,0.75v5c0,0.41406,0.33594,0.75,0.75,0.75s0.75-0.33594,0.75-0.75v-5
		C12.75,10.58594,12.41406,10.25,12,10.25z"/>
	<path d="M16.5,10.25H15c-0.41406,0-0.75,0.33594-0.75,0.75c0,1.59053-0.01109,3.18147,0.00022,4.77195
		c0.00121,0.1704,0.00361,0.34479,0.06288,0.50455c0.08765,0.23629,0.30444,0.42046,0.55216,0.46679
		c0.24772,0.04633,0.51738-0.04778,0.68095-0.23951c0.17721-0.20772,0.22091-0.49811,0.21736-0.77112
		c-0.00429-0.33053-0.03028-0.6574-0.00875-0.98683C16.0023,14.75409,16.25178,14.75,16.5,14.75c1.24023,0,2.25-1.00928,2.25-2.25
		S17.74023,10.25,16.5,10.25z M16.5,13.25h-0.75v-1.5h0.75c0.41309,0,0.75,0.33643,0.75,0.75S16.91309,13.25,16.5,13.25z"/>
</g>
</svg>
